{
    "asset" : {
        "generator" : "Khronos glTF Blender I/O v1.6.16",
        "version" : "2.0"
    },
    "scene" : 0,
    "scenes" : [
        {
            "name" : "Scene",
            "nodes" : [
                0,
                1
            ]
        }
    ],
    "nodes" : [
        {
            "name" : "Light",
            "rotation" : [
                0.16907575726509094,
                0.7558803558349609,
                -0.27217137813568115,
                0.570947527885437
            ],
            "translation" : [
                4.076245307922363,
                5.903861999511719,
                -1.0054539442062378
            ]
        },
        {
            "mesh" : 0,
            "name" : "baby",
            "rotation" : [
                0.7071068286895752,
                0,
                0,
                0.7071067094802856
            ],
            "scale" : [
                0.432472825050354,
                0.432472825050354,
                0.432472825050354
            ],
            "translation" : [
                0,
                0,
                -2.408583879470825
            ]
        }
    ],
    "materials" : [
        {
            "doubleSided" : true,
            "name" : "playing",
            "pbrMetallicRoughness" : {
                "baseColorTexture" : {
                    "index" : 0
                },
                "metallicFactor" : 0,
                "roughnessFactor" : 0.870900571346283
            }
        }
    ],
    "meshes" : [
        {
            "name" : "baby",
            "primitives" : [
                {
                    "attributes" : {
                        "POSITION" : 0,
                        "NORMAL" : 1,
                        "TEXCOORD_0" : 2
                    },
                    "indices" : 3,
                    "material" : 0
                }
            ]
        }
    ],
    "textures" : [
        {
            "sampler" : 0,
            "source" : 0
        }
    ],
    "images" : [
        {
            "bufferView" : 4,
            "mimeType" : "image/jpeg",
            "name" : "PlayingBabyDiffuseMap"
        }
    ],
    "accessors" : [
        {
            "bufferView" : 0,
            "componentType" : 5126,
            "count" : 13188,
            "max" : [
                6.527599811553955,
                14.489899635314941,
                9.636099815368652
            ],
            "min" : [
                -6.527599811553955,
                0.323199987411499,
                -9.636099815368652
            ],
            "type" : "VEC3"
        },
        {
            "bufferView" : 1,
            "componentType" : 5126,
            "count" : 13188,
            "type" : "VEC3"
        },
        {
            "bufferView" : 2,
            "componentType" : 5126,
            "count" : 13188,
            "type" : "VEC2"
        },
        {
            "bufferView" : 3,
            "componentType" : 5123,
            "count" : 72168,
            "type" : "SCALAR"
        }
    ],
    "bufferViews" : [
        {
            "buffer" : 0,
            "byteLength" : 158256,
            "byteOffset" : 0
        },
        {
            "buffer" : 0,
            "byteLength" : 158256,
            "byteOffset" : 158256
        },
        {
            "buffer" : 0,
            "byteLength" : 105504,
            "byteOffset" : 316512
        },
        {
            "buffer" : 0,
            "byteLength" : 144336,
            "byteOffset" : 422016
        },
        {
            "buffer" : 0,
            "byteLength" : 448655,
            "byteOffset" : 566352
        }
    ],
    "samplers" : [
        {
            "magFilter" : 9729,
            "minFilter" : 9987
        }
    ],
    "buffers" : [
        {
            "byteLength" : 1015008,
            "uri" : "data:application/octet-stream;base64,"
        }
    ]
}
