<svg width="42" height="56" viewBox="0 0 42 56" fill="none" xmlns="http://www.w3.org/2000/svg">
<path d="M39.943 3.87488L1 11.1143L1.40219 13.2778L40.3452 6.03839L39.943 3.87488Z" stroke="white" stroke-linecap="round"/>
<path d="M40.4258 18.0791H1.54916L8.33424 55.3054H34.0075L40.4258 18.0791Z" stroke="white" stroke-linecap="round"/>
<path d="M28.3149 49.8496L31.6215 28.1656" stroke="white" stroke-linecap="round"/>
<path d="M10.7723 28.1641L14.0789 49.8481" stroke="white" stroke-linecap="round"/>
<line x1="20.6714" y1="49.3037" x2="20.6714" y2="28.6648" stroke="white" stroke-linecap="round"/>
<path d="M12.8973 8.90406C12.7389 8.05172 12.7499 7.17651 12.9297 6.32841C13.1095 5.48031 13.4545 4.67593 13.9452 3.96119C14.4359 3.24645 15.0625 2.63535 15.7893 2.16279C16.5162 1.69022 17.3289 1.36545 18.1813 1.207C19.0336 1.04855 19.9088 1.05954 20.7569 1.23933C21.605 1.41912 22.4094 1.7642 23.1242 2.25486C23.8389 2.74551 24.45 3.37215 24.9226 4.09898C25.3951 4.82581 25.7199 5.6386 25.8784 6.49094L22.9025 7.04414C22.8167 6.58259 22.6408 6.14245 22.3849 5.74887C22.129 5.35528 21.7981 5.01596 21.4111 4.75026C21.0241 4.48456 20.5885 4.2977 20.1292 4.20034C19.67 4.10298 19.196 4.09703 18.7345 4.18283C18.2729 4.26864 17.8328 4.44451 17.4392 4.7004C17.0456 4.9563 16.7063 5.28722 16.4406 5.67426C16.1749 6.06129 15.988 6.49687 15.8907 6.95613C15.7933 7.41538 15.7874 7.88931 15.8732 8.35087L12.8973 8.90406Z" stroke="white" stroke-linecap="round"/>
</svg>
