<svg width="118" height="126" viewBox="0 0 118 126" fill="none" xmlns="http://www.w3.org/2000/svg">
<g filter="url(#filter0_bdd_1703_994)">
<path d="M57.0605 48.8652C59.8254 48.8652 60.3757 48.7199 61.8338 46.7227C61.8618 46.6845 61.886 46.6435 61.9054 46.6007L67.3002 34.6778C67.3991 34.4596 67.3718 34.211 67.2271 34.0151C67.0827 33.8192 66.8403 33.7015 66.5807 33.7015H37.7648C37.7157 33.7015 37.6679 33.7057 37.6215 33.7135L36.844 30.5527C36.7642 30.2295 36.4486 30 36.0844 30H30.7783C30.3487 30 30 30.3168 30 30.7072C30 31.0976 30.3487 31.4144 30.7783 31.4144H35.4606L39.5996 48.2365V50.2198C39.5996 51.7113 40.9348 52.9241 42.5758 52.9241H42.6474C42.4704 53.2544 42.3684 53.6236 42.3684 54.0146C42.3684 55.3958 43.6052 56.5195 45.1252 56.5195C46.6452 56.5195 47.8819 55.3958 47.8819 54.0146C47.8819 53.6236 47.78 53.2544 47.6029 52.9241H55.6397C55.4626 53.2544 55.3607 53.6236 55.3607 54.0146C55.3607 55.3958 56.5974 56.5195 58.1174 56.5195C59.6374 56.5195 60.8742 55.3958 60.8742 54.0146C60.8742 53.6236 60.7722 53.2544 60.5952 52.9241H62.7985C63.2282 52.9241 63.5768 52.6073 63.5768 52.2169C63.5768 51.8266 63.2282 51.5097 62.7985 51.5097H42.5758C41.7929 51.5097 41.1562 50.9309 41.1562 50.2198V48.8648H57.0605V48.8652ZM46.3253 54.015C46.3253 54.6161 45.7867 55.1055 45.1252 55.1055C44.4636 55.1055 43.925 54.6161 43.925 54.015C43.925 53.4139 44.4636 52.9245 45.1252 52.9245C45.7867 52.9245 46.3253 53.4139 46.3253 54.015ZM59.318 54.015C59.318 54.6161 58.7794 55.1055 58.1178 55.1055C57.4562 55.1055 56.9177 54.6161 56.9177 54.015C56.9177 53.4139 57.4562 52.9245 58.1178 52.9245C58.7794 52.9245 59.318 53.4139 59.318 54.015ZM65.4191 35.1162L60.4944 45.9986C59.4538 47.4229 59.4028 47.4504 57.0605 47.4504H41.0017L37.9667 35.1159H65.4191V35.1162Z" fill="white"/>
</g>
<defs>
<filter id="filter0_bdd_1703_994" x="-9.88889" y="-9.88889" width="127.248" height="135.408" filterUnits="userSpaceOnUse" color-interpolation-filters="sRGB">
<feFlood flood-opacity="0" result="BackgroundImageFix"/>
<feGaussianBlur in="BackgroundImage" stdDeviation="19.9444"/>
<feComposite in2="SourceAlpha" operator="in" result="effect1_backgroundBlur_1703_994"/>
<feColorMatrix in="SourceAlpha" type="matrix" values="0 0 0 0 0 0 0 0 0 0 0 0 0 0 0 0 0 0 127 0" result="hardAlpha"/>
<feOffset dx="-8" dy="-11"/>
<feGaussianBlur stdDeviation="9.5"/>
<feComposite in2="hardAlpha" operator="out"/>
<feColorMatrix type="matrix" values="0 0 0 0 0.380392 0 0 0 0 0.894118 0 0 0 0 0.705882 0 0 0 0.25 0"/>
<feBlend mode="normal" in2="effect1_backgroundBlur_1703_994" result="effect2_dropShadow_1703_994"/>
<feColorMatrix in="SourceAlpha" type="matrix" values="0 0 0 0 0 0 0 0 0 0 0 0 0 0 0 0 0 0 127 0" result="hardAlpha"/>
<feOffset dx="10" dy="29"/>
<feGaussianBlur stdDeviation="20"/>
<feComposite in2="hardAlpha" operator="out"/>
<feColorMatrix type="matrix" values="0 0 0 0 0 0 0 0 0 0 0 0 0 0 0 0 0 0 1 0"/>
<feBlend mode="normal" in2="effect2_dropShadow_1703_994" result="effect3_dropShadow_1703_994"/>
<feBlend mode="normal" in="SourceGraphic" in2="effect3_dropShadow_1703_994" result="shape"/>
</filter>
</defs>
</svg>
