<svg width="38" height="27" viewBox="0 0 38 27" fill="none" xmlns="http://www.w3.org/2000/svg">
<path d="M27.0605 18.8652C29.8254 18.8652 30.3757 18.7199 31.8338 16.7227C31.8618 16.6845 31.886 16.6435 31.9054 16.6007L37.3002 4.67775C37.3991 4.45958 37.3718 4.211 37.2271 4.01511C37.0827 3.81922 36.8403 3.70147 36.5807 3.70147H7.76475C7.71572 3.70147 7.66786 3.70571 7.62155 3.71349L6.84402 0.552674C6.76424 0.229485 6.44864 0 6.0844 0H0.778305C0.34868 0 0 0.316824 0 0.707197C0 1.09757 0.34868 1.41439 0.778305 1.41439H5.46058L9.59961 18.2365V20.2198C9.59961 21.7113 10.9348 22.9241 12.5758 22.9241H12.6474C12.4704 23.2544 12.3684 23.6236 12.3684 24.0146C12.3684 25.3958 13.6052 26.5195 15.1252 26.5195C16.6452 26.5195 17.8819 25.3958 17.8819 24.0146C17.8819 23.6236 17.78 23.2544 17.6029 22.9241H25.6397C25.4626 23.2544 25.3607 23.6236 25.3607 24.0146C25.3607 25.3958 26.5974 26.5195 28.1174 26.5195C29.6374 26.5195 30.8742 25.3958 30.8742 24.0146C30.8742 23.6236 30.7722 23.2544 30.5952 22.9241H32.7985C33.2282 22.9241 33.5768 22.6073 33.5768 22.2169C33.5768 21.8266 33.2282 21.5097 32.7985 21.5097H12.5758C11.7929 21.5097 11.1562 20.9309 11.1562 20.2198V18.8648H27.0605V18.8652ZM16.3253 24.015C16.3253 24.6161 15.7867 25.1055 15.1252 25.1055C14.4636 25.1055 13.925 24.6161 13.925 24.015C13.925 23.4139 14.4636 22.9245 15.1252 22.9245C15.7867 22.9245 16.3253 23.4139 16.3253 24.015ZM29.318 24.015C29.318 24.6161 28.7794 25.1055 28.1178 25.1055C27.4562 25.1055 26.9177 24.6161 26.9177 24.015C26.9177 23.4139 27.4562 22.9245 28.1178 22.9245C28.7794 22.9245 29.318 23.4139 29.318 24.015ZM35.4191 5.11622L30.4944 15.9986C29.4538 17.4229 29.4028 17.4504 27.0605 17.4504H11.0017L7.96672 5.11586H35.4191V5.11622Z" fill="#1D1D1B"/>
</svg>
