<svg width="196" height="466" viewBox="0 0 196 466" fill="none" xmlns="http://www.w3.org/2000/svg">
<path d="M116.572 287.693L90.097 265.577" stroke="white" stroke-width="1.87015"/>
<path d="M137.605 269.873L67.1949 247.863" stroke="white" stroke-width="1.87015"/>
<path d="M149.814 223.377L47.5058 249.456" stroke="white" stroke-width="1.87015"/>
<path d="M161.344 232.059L42.4219 198.675" stroke="white" stroke-width="1.87015"/>
<path d="M169.211 203.508L33.6181 180.472" stroke="white" stroke-width="1.87015"/>
<path d="M167.252 152.828L29.0309 186.267" stroke="white" stroke-width="1.87015"/>
<path d="M159.619 123.516L30.1215 169.76" stroke="white" stroke-width="1.87015"/>
<path d="M165.467 127.937L27.0755 126.066" stroke="white" stroke-width="1.87015"/>
<path d="M161.283 94.6071L33.1314 124.797" stroke="white" stroke-width="1.87015"/>
<path d="M144.393 98.1099L43.477 84.8282" stroke="white" stroke-width="1.87015"/>
<path d="M129.934 83.0536L61.673 61.5469" stroke="white" stroke-width="1.87015"/>
<path d="M98.2422 56.8915L81.3104 41.9102" stroke="white" stroke-width="1.87015"/>
<path d="M126.721 330.482L94.8081 319.059" stroke="white" stroke-width="1.87015"/>
<path d="M130.869 337.395L84.1153 355.161" stroke="white" stroke-width="1.87015"/>
<path d="M134.609 358.9L68.219 374.797" stroke="white" stroke-width="1.87015"/>
<path d="M150.506 377.602L55.1281 392.563" stroke="white" stroke-width="1.87015"/>
<path d="M150.906 375.83L56.5998 437.349" stroke="white" stroke-width="1.87015"/>
<path d="M158.789 460.496L52.4565 397.569" stroke="white" stroke-width="1.87015"/>
<path d="M94.4013 20.4023L100.012 35.3636" stroke="white" stroke-width="1.87015"/>
<path d="M108.427 2.63672L110.297 9.18225" stroke="white" stroke-width="1.87015"/>
<path d="M167.338 452.408L45.778 452.408" stroke="white" stroke-width="1.87015"/>
<circle cx="130.48" cy="62.4806" r="7.48061" transform="rotate(90 130.48 62.4806)" fill="white"/>
<circle cx="90.2538" cy="7.96498" r="7.48061" transform="rotate(90 90.2538 7.96498)" fill="white"/>
<circle cx="61.4803" cy="22.4806" r="7.48061" transform="rotate(90 61.4803 22.4806)" fill="white"/>
<circle cx="62.4803" cy="57.4806" r="7.48061" transform="rotate(90 62.4803 57.4806)" fill="white"/>
<circle cx="31.9667" cy="77.9122" r="7.48061" transform="rotate(90 31.9667 77.9122)" fill="white"/>
<circle cx="7.48033" cy="92.4806" r="7.48061" transform="rotate(90 7.48033 92.4806)" fill="white"/>
<circle cx="23.4803" cy="124.481" r="7.48061" transform="rotate(90 23.4803 124.481)" fill="white"/>
<circle cx="14.4803" cy="147.856" r="7.48061" transform="rotate(90 14.4803 147.856)" fill="white"/>
<circle cx="27.4803" cy="173.481" r="7.48061" transform="rotate(90 27.4803 173.481)" fill="white"/>
<circle cx="16.4803" cy="209.481" r="7.48061" transform="rotate(90 16.4803 209.481)" fill="white"/>
<circle cx="52.4803" cy="223.481" r="7.48061" transform="rotate(90 52.4803 223.481)" fill="white"/>
<circle cx="143.48" cy="145.481" r="7.48061" transform="rotate(90 143.48 145.481)" fill="white"/>
<circle cx="183.514" cy="165.342" r="7.48061" transform="rotate(90 183.514 165.342)" fill="white"/>
<circle cx="183.514" cy="188.656" r="7.48061" transform="rotate(90 183.514 188.656)" fill="white"/>
<circle cx="152.48" cy="211.481" r="7.48061" transform="rotate(90 152.48 211.481)" fill="white"/>
<circle cx="183.48" cy="243.481" r="7.48061" transform="rotate(90 183.48 243.481)" fill="white"/>
<circle cx="154.371" cy="258.602" r="7.48061" transform="rotate(90 154.371 258.602)" fill="white"/>
<circle cx="126.48" cy="273.481" r="7.48061" transform="rotate(90 126.48 273.481)" fill="white"/>
<circle cx="119.398" cy="293.574" r="7.48061" transform="rotate(90 119.398 293.574)" fill="white"/>
<circle cx="101.912" cy="311.061" r="7.48061" transform="rotate(90 101.912 311.061)" fill="white"/>
<circle cx="84.4256" cy="334.375" r="7.48061" transform="rotate(90 84.4256 334.375)" fill="white"/>
<circle cx="82.4803" cy="368.481" r="7.48061" transform="rotate(90 82.4803 368.481)" fill="white"/>
<circle cx="51.3885" cy="371.992" r="7.48061" transform="rotate(90 51.3885 371.992)" fill="white"/>
<circle cx="18.4803" cy="379.481" r="7.48061" transform="rotate(90 18.4803 379.481)" fill="white"/>
<circle cx="30.8163" cy="411.266" r="7.48061" transform="rotate(90 30.8163 411.266)" fill="white"/>
<circle cx="46.4803" cy="429.481" r="7.48061" transform="rotate(90 46.4803 429.481)" fill="white"/>
<circle cx="27.076" cy="450.537" r="7.48061" transform="rotate(90 27.076 450.537)" fill="white"/>
<circle cx="187.908" cy="422.486" r="7.48061" transform="rotate(90 187.908 422.486)" fill="white"/>
<circle cx="142.48" cy="426.481" r="7.48061" transform="rotate(90 142.48 426.481)" fill="white"/>
<circle cx="186.48" cy="396.481" r="7.48061" transform="rotate(90 186.48 396.481)" fill="white"/>
<circle cx="165.467" cy="371.992" r="7.48061" transform="rotate(90 165.467 371.992)" fill="white"/>
<circle cx="143.48" cy="353.481" r="7.48061" transform="rotate(90 143.48 353.481)" fill="white"/>
</svg>
