<svg width="131" height="100" viewBox="0 0 131 100" fill="none" xmlns="http://www.w3.org/2000/svg">
<path d="M64.6858 0.0367553C75.3558 -0.253245 84.4058 1.17678 93.1958 4.18678C99.2358 6.24678 104.886 9.13686 110.136 12.7669C110.986 13.3569 111.686 14.1668 112.466 14.8668C114.196 16.3968 116.006 17.8468 117.656 19.4668C123.086 24.8168 127.556 30.7568 128.716 38.5868C128.766 38.9268 128.786 39.2868 128.916 39.5968C131.736 46.2268 130.826 52.7669 129.106 59.5269C127.616 65.3669 125.166 70.6168 121.436 75.2068C119.106 78.0768 116.266 80.5468 113.556 83.1068C112.136 84.4468 110.566 85.6469 108.966 86.7669C101.196 92.1769 92.5358 95.2868 83.3158 97.4168C75.4158 99.2468 67.5158 99.6568 59.5658 99.2168C50.2758 98.7068 41.1657 96.8868 32.6457 92.9168C28.5857 91.0268 24.6958 88.7668 20.7558 86.6068C20.0658 86.2268 19.5158 85.5668 18.9358 84.9968C16.6958 82.7968 14.4657 80.5768 12.2257 78.3668C7.52574 73.7468 3.90572 68.5069 2.57572 61.8869C2.19572 59.9869 1.45576 58.1568 0.865756 56.2968C-0.464244 52.0868 -0.104225 47.8868 0.885775 43.6868C1.51578 41.0068 2.14575 38.3268 2.85575 35.6668C3.86575 31.9168 6.08574 28.7768 8.28574 25.6968C10.0257 23.2668 12.1358 21.0668 14.3058 18.9868C16.4558 16.9168 18.8558 15.0768 21.1858 13.1968C28.1458 7.58679 33.7558 5.75676 39.5058 3.78676C44.4658 2.08676 49.6557 1.08676 54.9657 0.536755C58.6657 0.156755 62.3458 0.116858 64.6758 0.0168579L64.6858 0.0367553ZM66.5457 67.1868C69.1857 66.8568 73.7458 66.2968 78.3058 65.7368C84.0558 65.0268 89.4957 63.2868 94.7857 60.9668C100.726 58.3568 105.656 54.4268 110.066 49.7368C115.296 44.1768 117.126 37.4268 115.856 30.1768C114.856 24.4568 111.716 19.4068 107.306 15.5368C102.596 11.4068 97.1258 8.38683 91.1758 6.36683C87.6458 5.16683 84.1557 3.60685 80.2657 3.88685C78.2357 2.00685 75.4257 3.29686 73.2257 2.14686C66.3857 2.07686 59.5558 1.95685 52.7558 2.88685C52.3058 2.94685 51.8958 3.21678 51.4458 3.31678C48.9858 3.88678 46.4757 4.26687 44.0857 5.02687C40.9157 6.03687 37.6858 7.06681 34.7558 8.59681C31.3158 10.3868 28.0757 12.6068 24.9157 14.8768C21.8457 17.0768 16.7758 23.1669 15.6758 27.3969C14.8158 30.7069 14.2557 33.9368 14.5957 37.4568C15.0057 41.7068 16.6758 45.3368 19.0558 48.5468C23.7858 54.9268 30.2557 59.2568 37.6057 62.0368C46.2657 65.3168 55.3158 66.9068 66.5558 67.1568L66.5457 67.1868ZM66.0357 74.8068C68.9857 74.5668 72.5458 74.6869 76.1358 74.2569C82.1258 73.5469 87.9457 72.2869 93.5357 70.2569C101.766 67.2669 109.276 62.9769 115.276 56.3869C120.246 50.9269 123.126 44.6567 123.106 37.1567C123.106 35.2467 122.886 33.4668 121.896 31.8268C122.366 27.4968 119.616 24.3768 117.326 21.4268C112.946 15.7968 107.226 11.5968 100.776 8.4568C100.356 8.2568 99.9657 7.94682 99.5257 7.85682C99.1157 7.77682 98.6557 7.93684 98.2257 7.99684C98.4957 8.17684 98.7457 8.39677 99.0357 8.54677C101.616 9.87677 103.896 11.6168 106.226 13.3468C111.046 16.9368 114.186 21.5968 116.346 27.0668C117.616 30.2768 117.936 33.6568 117.396 36.9568C116.316 43.5468 112.986 49.1168 108.086 53.5068C101.746 59.1768 94.4757 63.3468 86.0857 65.3768C81.8457 66.4068 77.6457 67.5568 73.2657 67.8368C70.8557 67.9868 68.4257 67.6068 66.0257 68.4468C65.0957 68.7768 63.9457 68.5368 62.9057 68.4468C61.3057 68.3068 59.7158 67.8869 58.1358 67.8969C54.0558 67.9269 50.1658 66.7969 46.2358 66.0169C42.8758 65.3469 39.6157 64.0968 36.4057 62.8668C30.5957 60.6468 25.5457 57.0968 21.1657 52.8068C17.6157 49.3368 14.9657 45.0768 13.7757 40.1068C12.9257 36.5568 12.7757 32.9068 13.7257 29.4568C14.9857 24.8568 17.3557 20.7469 20.7757 17.2669C23.5557 14.4369 26.6958 12.0868 29.9258 9.8368C30.0958 9.7168 30.1657 9.44683 30.2857 9.23683C30.0657 9.20683 29.8258 9.11676 29.6158 9.16676C29.2858 9.24676 28.9658 9.38678 28.6758 9.56678C24.4258 12.1568 20.3458 14.9068 16.7558 18.4568C13.8258 21.3568 11.4158 24.4368 9.75577 28.1868C7.51577 33.2368 7.01573 38.5568 8.08573 43.8068C9.69573 51.6768 14.8358 57.4067 21.0058 62.1567C26.0658 66.0567 31.8757 68.6068 37.8957 70.6868C46.8257 73.7768 56.0257 74.9568 66.0457 74.8068H66.0357ZM64.1858 83.4368C67.9858 83.1268 71.7757 82.8368 75.5757 82.4968C78.2157 82.2568 80.9157 82.2268 83.4657 81.6068C92.0857 79.4968 100.566 76.9668 108.156 72.1168C113.246 68.8668 118.176 65.5068 121.696 60.4368C126.556 53.4368 129.186 45.9668 127.246 37.3368C126.396 33.5568 124.546 30.2368 122.806 26.8468C122.656 26.5568 122.306 26.3769 122.046 26.1469C122.066 26.5569 121.956 27.0268 122.126 27.3568C123.676 30.3968 124.336 33.6668 124.456 37.0068C124.696 43.7768 122.256 49.7969 118.086 54.8969C111.656 62.7569 103.296 68.0568 93.7257 71.3668C89.9457 72.6768 86.0657 73.8668 82.1457 74.5968C77.6357 75.4368 73.0357 75.9068 68.4557 76.1868C62.4457 76.5568 56.4957 75.7868 50.5257 74.9568C43.7257 74.0068 37.3257 71.9668 31.0457 69.3568C23.9357 66.4068 17.9357 61.8568 13.0757 55.9968C8.86572 50.9268 6.20573 45.0769 6.27573 38.2669C6.30573 35.1169 6.68576 32.0668 8.11576 29.2068C8.23576 28.9668 8.09573 28.5869 8.08573 28.2769C7.90573 28.3869 7.64575 28.4568 7.54575 28.6268C4.02575 34.7668 1.88576 41.1269 3.43576 48.3869C4.88576 55.1869 8.16575 60.8968 13.0457 65.6668C15.2557 67.8268 17.8958 69.5568 20.4458 71.3468C27.4458 76.2468 35.4157 79.0268 43.5957 80.9268C50.2957 82.4868 57.1858 83.5468 64.1758 83.4468L64.1858 83.4368ZM64.1258 90.1768C67.0358 90.1768 69.9558 90.2769 72.8658 90.1369C75.5058 90.0069 78.1758 89.8069 80.7558 89.2669C85.2358 88.3269 89.6657 87.1268 94.1057 85.9968C99.1457 84.7068 103.856 82.4868 108.326 79.9468C113.326 77.0968 117.826 73.5768 121.626 69.0568C127.286 62.3268 130.116 54.8468 129.346 46.0668C129.316 45.7368 129.156 45.4168 129.066 45.0968C128.956 45.3868 128.766 45.6768 128.746 45.9768C128.326 53.3068 124.666 59.1268 119.926 64.3068C114.536 70.1768 107.756 74.1068 100.556 77.4268C90.5758 82.0268 79.9258 83.7068 69.1258 84.5468C65.4758 84.8368 61.7658 84.8168 58.0558 84.0568C54.6858 83.3668 51.0858 83.8168 47.7358 83.0968C39.8558 81.4168 31.9958 79.4169 24.9258 75.3869C18.8358 71.9169 12.8458 68.2669 8.69577 62.2769C5.38577 57.4969 2.10577 52.7668 2.06577 46.6268C2.06577 46.3668 1.84574 46.1068 1.72574 45.8468C1.64574 46.0568 1.52577 46.2668 1.50577 46.4768C0.94577 52.7568 2.12574 58.7368 5.28574 64.1568C8.54574 69.7368 13.1858 74.0568 18.4858 77.7468C22.2258 80.3568 26.2457 82.2668 30.4057 84.0468C38.8557 87.6668 47.6658 89.6269 56.8058 90.1469C59.2458 90.2869 61.6957 90.1668 64.1457 90.1668L64.1258 90.1768ZM66.5357 95.8368C69.3457 95.6368 73.6558 95.6268 77.8658 94.9768C84.3158 93.9668 90.6757 92.5369 96.8557 90.2569C103.656 87.7469 109.826 84.2368 115.516 79.8168C116.796 78.8268 117.906 77.5968 118.956 76.3468C119.316 75.9168 119.566 74.8868 119.306 74.5468C118.676 73.7268 117.876 74.1868 117.236 74.7968C116.986 75.0368 116.736 75.2869 116.486 75.5269C113.296 78.6269 109.466 80.8669 105.546 82.7669C101.116 84.9169 96.5057 86.7368 91.7257 88.0768C85.2857 89.8768 78.7257 91.1668 72.0957 91.4768C65.5257 91.7768 58.8958 92.1468 52.3058 90.9768C46.3158 89.9168 40.3458 88.9668 34.5658 86.9068C25.0558 83.5168 16.3858 78.9068 9.48575 71.3768C8.47575 70.2768 7.60578 69.0468 6.63578 67.9068C6.46578 67.6968 6.12576 67.6369 5.86576 67.5069C5.90576 67.8169 5.87575 68.1568 5.98575 68.4468C6.14575 68.8768 6.35575 69.3068 6.60575 69.6868C11.2957 76.9268 17.4457 82.5968 25.0857 86.6068C30.9257 89.6768 37.0858 91.7268 43.5558 93.1768C50.6858 94.7768 57.8258 95.6568 66.5558 95.8268L66.5357 95.8368ZM65.0257 97.8568L65.0457 98.1768C69.4157 97.8368 73.8257 97.7168 78.1657 97.0868C82.1157 96.5168 85.9957 95.3968 89.8957 94.4968C90.3457 94.3968 90.7558 94.0969 91.1858 93.8969C90.7358 93.8469 90.2657 93.6869 89.8457 93.7669C86.0157 94.4869 82.3157 95.7368 78.3557 95.9368C74.4657 96.1368 70.6057 97.0368 66.7157 97.1168C62.3357 97.2068 57.9458 96.7268 53.5658 96.4668C53.1258 96.4368 52.7058 96.1368 52.2558 96.0668C49.9858 95.7268 47.7158 95.4068 45.4358 95.1168C45.1258 95.0768 44.7758 95.2468 44.4458 95.3168C44.7958 95.4868 45.1258 95.7368 45.4958 95.8168C47.0558 96.1568 48.6257 96.4968 50.2057 96.7368C52.9257 97.1468 55.6458 97.5968 58.3858 97.8168C60.5858 97.9968 62.8057 97.8568 65.0157 97.8568H65.0257Z" fill="#1D1D1B"/>
<path d="M66.1253 61.5374C57.8953 61.9274 50.4052 60.7574 43.2052 58.0674C36.7252 55.6574 30.8552 52.2175 26.2752 46.8975C24.1352 44.4175 22.8152 41.5575 21.9152 38.3675C19.9752 31.4875 21.8252 25.4975 26.2352 20.3975C32.9652 12.6175 41.6952 8.25743 51.7952 6.17743C58.4752 4.80743 65.1352 4.67751 71.8352 5.00751C74.0752 5.11751 76.4353 5.03751 78.6853 6.00751C80.7653 6.89751 83.1452 7.0475 85.3252 7.7475C90.9752 9.5575 96.2152 12.0575 100.655 16.2075C104.165 19.4975 107.285 22.9674 108.575 27.6674C110.025 32.9574 109.465 38.0175 106.625 42.8475C103.265 48.5475 98.2852 52.2975 92.6452 55.4675C86.7052 58.7975 80.2352 60.3475 73.6452 61.4575C71.0352 61.8975 68.2953 61.5275 66.1353 61.5275L66.1253 61.5374ZM66.1452 6.38751C58.2652 5.91751 50.7952 6.98748 43.6052 9.84748C37.7552 12.1775 32.3252 15.1974 28.0852 19.9374C24.4352 24.0174 22.0952 28.7175 22.4552 34.3775C22.7652 39.2075 24.7152 43.3875 27.8652 47.0275C30.5652 50.1575 34.0052 52.1874 37.5852 54.1874C42.3852 56.8674 47.5353 58.2775 52.8053 59.3875C54.7053 59.7875 56.7052 60.2074 58.6052 60.0474C60.5952 59.8674 62.3452 60.3175 64.2152 60.7275C65.6552 61.0475 67.2252 60.8075 68.7352 60.6975C70.1052 60.5975 71.4553 60.3275 72.8153 60.1175C75.1953 59.7475 77.5953 59.4875 79.9353 58.9475C83.1753 58.1975 86.2952 57.0575 89.3652 55.7475C95.5552 53.1075 100.825 49.3875 104.755 43.8475C107.325 40.2275 108.555 36.0774 108.235 31.8074C107.835 26.5174 105.295 21.8374 101.505 18.1874C97.5853 14.4074 92.8052 11.7574 87.6652 9.81745C80.6652 7.16745 73.4752 5.84752 66.1552 6.39752L66.1452 6.38751Z" fill="#1D1D1B"/>
<path d="M37.1456 20.9178C37.6356 20.2978 38.0156 19.4778 38.6456 19.0978C41.2856 17.5278 43.6956 15.6478 46.6956 14.5678C54.0956 11.8878 61.6656 10.7179 69.4556 11.2379C77.9456 11.8079 85.9256 14.2779 92.8656 19.2679C97.5156 22.6079 100.526 27.2878 101.326 33.0778C101.826 36.6678 100.526 39.9678 98.6756 42.9078C95.0956 48.6178 89.7156 52.2078 83.5356 54.5378C79.3556 56.1078 74.9956 56.9779 70.4856 57.5179C60.8056 58.6679 51.7056 57.0979 43.0056 52.9879C38.6756 50.9379 34.9256 48.0778 32.2856 43.9178C27.6756 36.6578 28.8656 30.9879 32.8156 24.8779C33.3756 24.0079 33.9956 23.1679 34.6856 22.3979C35.2756 21.7379 35.7656 20.7978 36.9356 21.0878C35.8556 22.5478 34.7656 24.0178 33.6856 25.4778C30.5856 29.6878 29.7656 34.4778 31.3356 39.3078C33.1256 44.8178 37.1656 48.6378 42.3456 51.2078C43.0756 51.5678 43.7856 51.9678 44.5256 52.2978C44.6756 52.3678 44.9356 52.2178 45.1456 52.1678C45.0556 51.9878 45.0156 51.7479 44.8756 51.6179C43.2256 50.1679 41.4356 48.8479 39.9356 47.2679C35.9256 43.0679 35.0056 36.2178 38.4856 30.9778C41.9656 25.7378 47.0656 22.8079 52.7156 21.1279C58.2656 19.4779 63.9756 18.2078 70.0256 19.4078C73.3956 20.0778 76.8156 20.3679 80.0656 21.6179C84.4856 23.3179 88.3356 25.8178 91.3556 29.4678C93.2356 31.7378 94.4256 34.3979 94.4156 37.3979C94.3956 42.4879 91.9856 46.4379 88.1956 49.6179C87.3156 50.3579 86.2656 50.8779 85.3156 51.5179C85.1356 51.6379 85.0256 51.8778 84.8856 52.0578C85.1856 52.1078 85.5356 52.2978 85.7656 52.1978C91.2356 49.6378 95.9056 46.2178 98.6056 40.5578C101.456 34.5878 99.8956 28.6379 96.0356 23.7379C95.2456 22.7379 94.2956 21.8379 93.3156 21.0279C92.4456 20.3079 91.4956 19.4978 90.4456 19.2178C89.1856 18.8778 88.7156 17.7278 87.6156 17.1978C82.5756 14.7678 77.2356 13.2379 71.7656 12.7579C66.6056 12.3079 61.3456 12.1078 56.1656 13.2978C50.5256 14.5878 44.9756 16.0178 40.1656 19.4578C39.2756 20.0978 38.1656 20.4279 37.1556 20.8979L37.1456 20.9178ZM64.8956 27.2078C69.3656 27.4278 73.4756 27.8879 77.3756 29.3879C80.6256 30.6379 83.8056 32.1278 86.1456 34.7978C88.6756 37.6778 90.8556 40.7679 89.6056 44.9879C89.5256 45.2379 89.7756 45.5879 89.8656 45.8979C90.1456 45.6979 90.4656 45.5378 90.6856 45.2878C93.7856 41.6878 93.9256 34.3878 90.9856 30.6878C88.5356 27.5978 85.3856 25.3078 81.6856 23.7078C78.3756 22.2678 74.9456 21.5878 71.4556 20.8278C67.8756 20.0478 64.3556 20.3278 60.9056 20.5578C57.3156 20.7878 53.6856 21.9479 50.2956 23.2679C45.3956 25.1779 41.0156 27.8978 38.6856 33.0678C36.5156 37.8678 37.4256 42.1478 40.3756 46.2178C40.4956 46.3878 40.7556 46.4678 40.9456 46.5878C41.0256 46.3778 41.1956 46.1678 41.1856 45.9678C41.1156 44.8578 40.8256 43.7378 40.9356 42.6578C41.4556 37.8678 44.6256 34.8178 48.2356 32.1878C53.2756 28.5178 59.2156 27.7878 64.8756 27.2078H64.8956ZM65.7856 43.2878C64.3756 43.4778 62.2256 43.9078 60.0656 44.0478C54.5256 44.4078 49.7356 46.8379 44.9456 49.2779C44.4656 49.5179 44.0156 49.8778 44.9456 50.4278C51.9056 54.5078 59.5056 55.8879 67.4356 55.8679C68.6756 55.8679 69.9056 55.3979 71.1456 55.2479C76.1056 54.6679 80.8356 53.4579 84.9756 50.4879C86.8756 49.1279 86.9156 49.1479 84.7456 48.0179C79.0456 45.0479 72.9656 43.5779 65.7756 43.2779L65.7856 43.2878ZM65.7556 28.4378C63.3656 28.7578 60.9556 29.0078 58.5856 29.4178C52.9556 30.3878 47.9756 32.6479 44.3256 37.2379C42.4556 39.5879 41.5156 42.2678 42.2756 45.3078C42.3856 45.7378 42.7056 46.1179 42.9256 46.5179C43.1656 46.1879 43.4756 45.8879 43.6456 45.5279C44.7156 43.1579 46.2356 41.2378 48.4256 39.7078C50.5056 38.2478 52.7756 37.2978 55.0656 36.3178C59.0556 34.6178 63.2456 35.1179 67.3856 34.8979C71.5656 34.6879 75.3856 35.8179 79.0756 37.4879C82.1956 38.8979 84.6556 41.1878 86.6856 43.9378C87.1356 44.5478 87.6856 45.8179 87.8756 45.7679C88.9956 45.4179 88.8356 44.2978 88.7356 43.4078C88.5956 42.1678 88.4056 40.9078 88.0056 39.7278C86.4156 35.0078 82.4656 32.6878 78.2756 30.9378C74.3356 29.2878 70.1356 28.4078 65.7456 28.4478L65.7556 28.4378ZM86.6156 46.8879C86.5456 46.6679 86.4856 46.4479 86.3956 46.2379C85.0656 43.1479 82.9156 40.8479 79.9256 39.2479C76.0856 37.1979 71.9056 36.2778 67.7056 35.8178C61.9756 35.1978 56.4556 36.6278 51.3356 39.1878C48.0856 40.8078 45.4856 43.2878 44.1956 46.8378C44.0956 47.1178 44.2456 47.4978 44.2856 47.8278C44.5556 47.7178 44.9156 47.6879 45.0956 47.4979C46.8456 45.5979 48.8456 43.9778 51.2056 42.9778C56.0056 40.9378 61.0056 39.5779 66.2856 39.8679C68.4656 39.9879 70.6656 40.1578 72.7956 40.5778C76.5356 41.3178 80.2156 42.3179 83.2856 44.7579C84.1956 45.4779 85.0356 46.2679 85.9356 47.0079C86.0756 47.1179 86.3056 47.1278 86.4956 47.1578C86.5256 47.1578 86.5856 46.9779 86.6256 46.8779L86.6156 46.8879ZM78.7056 43.7878C78.5556 43.6478 78.4256 43.4679 78.2556 43.3979C77.7356 43.1579 77.2056 42.9279 76.6656 42.7479C71.6356 41.0579 66.4156 40.9878 61.2356 41.4078C58.5456 41.6278 55.9156 42.6879 53.2656 43.3779C53.0756 43.4279 52.9156 43.6379 52.7456 43.7679C52.9456 43.8579 53.1656 44.0279 53.3556 44.0079C53.8056 43.9379 54.2356 43.7879 54.6756 43.6479C58.3356 42.5579 62.1456 42.0278 65.8756 42.0978C69.6056 42.1778 73.4456 42.4579 77.0556 43.7679C77.3756 43.8879 77.7156 43.9679 78.0556 43.9879C78.2556 43.9979 78.4756 43.8579 78.6956 43.7779L78.7056 43.7878Z" fill="#1D1D1B"/>
</svg>
