<svg width="131" height="101" viewBox="0 0 131 101" fill="none" xmlns="http://www.w3.org/2000/svg">
<path d="M64.3846 0.716485C74.8146 0.436485 83.7146 2.07649 92.4546 4.84649C99.0146 6.92649 105.115 9.91645 110.575 14.0565C117.075 18.9765 122.695 24.7565 126.315 32.2165C128.125 35.9465 129.585 39.8065 130.125 43.9565C130.365 45.7765 130.615 47.5964 130.825 49.4264C131.155 52.2364 130.335 54.9264 129.975 57.6664C129.355 62.3064 127.505 66.5165 125.265 70.5665C124.655 71.6765 123.925 72.7165 123.215 73.7665C118.955 80.1165 113.175 84.9165 106.955 89.1165C101.985 92.4765 96.4246 94.8565 90.6246 96.4865C86.8746 97.5465 83.0846 98.4864 79.2546 99.1764C76.3146 99.7064 73.2946 99.8565 70.3046 100.007C67.6346 100.137 64.9446 100.006 62.2646 100.056C57.5046 100.146 52.8046 99.4265 48.2046 98.4865C41.6746 97.1465 35.3446 95.0765 29.3246 92.0265C24.7446 89.6965 20.6645 86.7165 16.7245 83.4965C12.0345 79.6565 8.04457 75.1165 5.31457 69.7665C3.51457 66.2465 1.41458 62.7065 1.32458 58.4365C1.27458 56.1765 0.494555 53.9465 0.114555 51.6865C-0.0154449 50.8965 -0.0554547 50.0365 0.104545 49.2465C1.16455 43.9765 1.81455 38.6565 4.04455 33.6065C5.61455 30.0365 7.72453 26.9365 10.0845 23.9865C17.4445 14.7765 27.1246 8.80644 38.1146 5.04644C43.3946 3.23644 48.8645 1.89654 54.5345 1.27654C58.2445 0.866544 61.9246 0.926514 64.3846 0.746514V0.716485ZM93.1846 35.5965C94.4046 33.2065 96.5845 31.9065 98.8445 30.8165C103.375 28.6365 108.125 27.4965 113.235 27.8965C116.035 28.1165 118.695 28.5064 121.215 29.7864C121.935 30.1464 122.825 31.2765 123.565 30.2765C123.835 29.9065 123.145 28.5164 122.555 27.9064C121.455 26.7564 120.215 25.6365 118.845 24.8565C114.915 22.6065 110.735 22.6964 106.445 23.7964C99.4646 25.5964 93.7545 29.2865 89.8345 35.3465C88.4845 37.4365 87.7546 39.9464 86.8746 42.3064C86.6546 42.8864 86.9446 43.6465 86.9946 44.3265C87.1646 43.7765 87.2745 43.1964 87.5245 42.6764C88.2045 41.2064 88.6646 39.4965 89.7346 38.3965C90.6646 37.4365 91.0246 35.4865 92.9946 35.7565C92.3946 36.7165 91.7846 37.6865 91.1846 38.6465C90.6946 39.4265 90.1846 40.1965 89.7346 40.9965C89.6546 41.1365 89.7946 41.4165 89.8246 41.6265C90.0146 41.5765 90.2646 41.5765 90.3846 41.4565C92.2146 39.5065 94.2545 37.9064 96.5945 36.5364C101.965 33.3864 107.775 32.8865 113.635 33.8265C118.675 34.6265 123.305 36.7864 126.985 40.5564C127.175 40.7564 127.535 40.7964 127.825 40.9064C127.885 40.5764 128.065 40.2264 128.005 39.9164C127.145 35.5364 124.725 32.3465 120.495 30.8365C116.635 29.4565 112.855 28.4565 108.465 29.2265C103.295 30.1265 98.7346 31.7164 94.7346 35.0564C94.3446 35.3864 93.7246 35.4365 93.2046 35.6065L93.1846 35.5965ZM65.8445 79.4164C65.8445 83.3664 65.8245 87.3165 65.8445 91.2665C65.8645 93.5765 65.9846 95.8765 66.0546 98.1865C68.4446 98.3065 70.8446 98.5164 73.2346 98.5364C76.6346 98.5664 77.1945 98.0265 77.5945 94.6865C77.6745 93.9965 77.6546 93.2965 77.6146 92.5965C77.4046 89.0365 77.2046 85.4764 76.9346 81.9164C76.8346 80.5564 76.5646 79.2065 76.3646 77.8465C75.8646 74.4465 75.4145 71.0364 74.8345 67.6564C74.3145 64.6164 73.9746 61.4965 72.3846 58.7565C72.0746 58.2165 71.4946 57.5165 70.9946 57.4765C69.7546 57.3665 68.4745 57.5365 67.2245 57.7265C66.3545 57.8565 66.1445 58.4765 66.1445 59.3765C66.1245 62.1065 65.8945 64.8365 65.8545 67.5765C65.7945 71.5265 65.8445 75.4764 65.8445 79.4264V79.4164ZM65.0445 78.3665C65.0445 72.2065 65.0745 66.0465 65.0345 59.8865C65.0245 57.7565 64.7146 57.5164 62.6146 57.4064C62.2646 57.3864 61.9146 57.4064 61.5646 57.4064C58.9846 57.4064 58.9545 57.3864 58.1545 59.7864C56.2945 65.3564 55.4045 71.1264 54.6645 76.9164C54.2445 80.2264 54.6245 83.6965 53.7745 86.8665C52.8445 90.3165 53.7746 93.4765 53.9946 96.7665C54.0246 97.1665 54.5646 97.6865 54.9946 97.8865C57.5246 99.0465 60.2346 98.5165 62.8746 98.5865C64.9646 98.6365 65.0245 98.5565 65.0345 96.5065C65.0645 90.4665 65.0345 84.4165 65.0345 78.3765L65.0445 78.3665ZM41.0646 88.7964L41.3646 88.8465C41.3646 89.5465 41.3446 90.2465 41.3646 90.9365C41.5046 94.6565 42.0846 95.4864 45.6746 96.5464C47.5346 97.0964 49.4445 97.4865 51.3545 97.8265C52.2445 97.9865 52.7845 98.1265 52.6545 96.4965C52.2945 91.9865 52.2545 87.4164 52.5945 82.9064C52.9545 78.1164 53.7846 73.3565 54.6346 68.6265C55.1846 65.5965 56.1246 62.6364 56.9346 59.6664C57.1746 58.7964 57.5745 57.9765 57.9045 57.1265C57.0245 56.9565 56.0045 57.0165 55.2745 56.5765C53.3745 55.4465 52.2445 56.4565 51.1045 57.7365C49.3145 59.7365 47.9345 61.9865 46.9645 64.4865C45.3445 68.6565 43.7246 72.8365 42.9246 77.2665C42.2246 81.0965 41.6746 84.9564 41.0546 88.8064L41.0646 88.7964ZM89.5546 88.5865L89.9145 88.5265C89.3245 84.9065 88.7545 81.2864 88.1445 77.6764C87.1045 71.4864 84.7846 65.7265 81.8046 60.2565C80.9546 58.6865 79.5146 57.2465 78.0046 56.3165C77.1846 55.8165 75.6245 56.5365 74.4045 56.7065C74.2945 56.7265 74.1746 56.7165 74.0546 56.7065C72.8346 56.6365 73.1446 57.2165 73.4346 57.9665C75.4146 63.1365 76.5945 68.4865 77.0845 74.0065C77.2645 76.0565 77.6645 78.0865 77.9045 80.1365C78.3245 83.7865 78.7745 87.4265 79.0345 91.0865C79.1245 92.3065 78.5446 93.5564 78.4546 94.7964C78.2146 98.0464 78.3045 98.0665 81.5945 97.3365C82.2645 97.1865 82.9845 97.2565 83.6645 97.1165C88.8145 96.0865 89.6546 94.9365 89.5646 89.9565C89.5646 89.4865 89.5646 89.0264 89.5646 88.5564L89.5546 88.5865ZM47.5146 53.9465C45.7646 54.9865 43.4245 55.7965 41.9145 57.3865C39.2345 60.2165 36.8046 63.3565 35.1346 66.9465C33.0446 71.4365 31.2745 75.9965 30.4745 80.9665C29.9545 84.1765 30.2846 87.1665 31.2046 90.1465C31.6446 91.5865 32.5946 92.6865 34.3246 93.0865C36.2146 93.5165 38.0046 94.4065 39.8646 94.9965C40.5746 95.2265 41.0646 95.2265 40.8146 94.0165C40.3346 91.6665 39.8045 89.1865 40.0845 86.8565C40.3645 84.5565 40.6945 82.2164 41.1545 79.9064C42.3745 73.7664 44.1146 67.8565 46.8746 62.2465C47.9546 60.0465 49.1145 57.9265 51.0345 56.3165C51.5745 55.8565 51.7045 55.4564 50.8345 55.1764C49.8545 54.8664 48.9045 54.4665 47.5245 53.9465H47.5146ZM100.975 84.5765L100.675 84.5364C100.675 83.4864 100.835 82.4165 100.645 81.3965C99.3745 74.5265 97.0246 68.0664 93.0146 62.2964C91.7046 60.4064 90.2745 58.5465 88.6445 56.9465C86.5545 54.8965 83.9145 54.0765 80.9645 54.7265C80.4245 54.8465 79.9446 55.2465 79.4346 55.5165C79.7446 55.9565 80.0246 56.4265 80.3846 56.8165C81.1446 57.6565 82.1346 58.3464 82.6946 59.2964C85.5846 64.1864 87.6145 69.4465 88.8545 74.9765C89.5345 77.9865 89.7246 81.1165 90.4346 84.1165C91.1146 86.9965 91.2046 89.7865 90.4846 92.6465C90.3246 93.2865 90.4546 93.9964 90.4546 94.6764C91.0746 94.6064 91.7246 94.6165 92.3146 94.4465C94.0746 93.9365 95.8945 93.5365 97.5345 92.7565C98.7445 92.1765 99.8446 91.2065 100.075 89.6365C100.325 87.9365 100.665 86.2565 100.965 84.5665L100.975 84.5765ZM66.0546 44.0765C59.8746 44.1865 53.8346 45.2964 48.1846 48.0564C47.0046 48.6264 45.4345 48.7865 44.9645 50.3865C46.0545 51.1765 47.0746 52.1265 48.2646 52.7365C53.2646 55.3065 58.7246 56.1764 64.2446 56.5564C66.5046 56.7164 68.8145 56.1265 71.1045 55.9665C75.9145 55.6365 80.3246 54.0465 84.5146 51.7765C85.0746 51.4765 85.4845 50.8865 85.9645 50.4365C85.4145 49.9065 84.9546 49.2465 84.3146 48.8865C78.6846 45.6865 72.5946 44.2465 66.0646 44.0865L66.0546 44.0765ZM20.3345 79.6465C20.0045 84.0065 21.9346 86.9665 25.8146 88.7565C26.5446 89.0965 27.2546 89.4965 27.9946 89.8265C29.0646 90.3065 29.5945 89.9665 29.3345 88.8265C28.2145 83.7465 29.3345 78.8965 30.9045 74.1365C31.6945 71.7465 32.9045 69.4964 33.9145 67.1764C36.2045 61.9064 39.5746 57.4965 44.2646 54.1265C44.8146 53.7365 45.3545 53.3365 45.9045 52.9365C45.1245 52.5565 44.3846 51.9965 43.5646 51.8565C42.5546 51.6865 41.3946 51.6064 40.4546 51.9264C37.4146 52.9764 34.4046 54.1065 32.0146 56.4865C29.4646 59.0265 27.0846 61.6565 25.1946 64.7465C22.3946 69.3465 20.7146 74.2765 20.3146 79.6365L20.3345 79.6465ZM110.485 79.2565L110.715 79.2265C110.475 77.8765 110.165 76.5364 110.005 75.1764C109.605 71.8764 107.955 69.0965 106.535 66.1965C103.915 60.8265 99.7746 56.8264 94.9446 53.5464C92.4046 51.8164 89.3946 51.3165 86.3146 52.0665C85.8246 52.1865 85.4145 52.6465 84.9645 52.9465C85.3045 53.2465 85.6046 53.6065 85.9846 53.8265C88.3446 55.1365 90.4046 56.8164 92.0646 58.9264C96.6046 64.7164 99.6945 71.2265 101.405 78.3865C102.165 81.5565 102.505 84.7465 101.875 87.9765C101.695 88.9265 101.485 89.8765 101.285 90.8365C102.225 90.4065 103.185 90.0264 104.095 89.5364C105.005 89.0464 105.825 88.3864 106.755 87.9264C109.185 86.7064 110.035 84.4964 110.455 82.0564C110.615 81.1564 110.485 80.1965 110.485 79.2665V79.2565ZM94.9745 48.7165C93.2945 49.0465 91.6146 49.3665 89.9346 49.7265C89.6946 49.7765 89.4945 50.0065 89.2745 50.1465C89.4845 50.2165 89.6845 50.3165 89.9045 50.3665C94.8145 51.5565 98.5946 54.4965 101.955 58.1365C108.025 64.6965 112.105 72.0865 111.945 81.3265C111.945 81.6765 111.925 82.0265 111.995 82.3665C112.145 83.1665 112.625 83.1965 113.255 82.8665C117.255 80.7565 119.145 77.2665 118.795 72.9365C118.505 69.3065 117.535 65.7565 115.435 62.5665C112.995 58.8565 110.185 55.5865 106.535 52.9965C103.065 50.5265 99.4246 48.7265 94.9846 48.7265L94.9745 48.7165ZM12.6846 73.2065C12.4546 75.6465 12.5745 78.1965 14.6645 80.1165C16.0045 81.3465 17.4946 82.3965 18.9546 83.4865C18.9746 83.5065 19.5846 83.0065 19.5646 82.7765C19.4146 81.1865 18.8545 79.5665 19.0245 78.0165C19.4945 73.8765 21.0246 69.9965 22.9546 66.3465C25.1346 62.2365 28.0545 58.6464 31.5445 55.5464C33.9745 53.3864 36.5145 51.4065 39.9045 50.9565C40.3445 50.8965 40.7545 50.6064 41.1645 50.4064C41.3645 50.3064 41.5345 50.1465 41.7145 50.0165C41.5245 49.9165 41.3446 49.7865 41.1346 49.7165C38.0946 48.7265 35.0146 48.5165 31.9546 49.4865C25.5746 51.5065 20.5345 55.2565 16.7945 60.8865C14.3145 64.6165 12.2846 68.3765 12.6746 73.1965L12.6846 73.2065ZM99.9745 44.8064C99.0445 44.8064 98.1146 44.7564 97.1846 44.8064C95.0746 44.9364 93.1245 45.6065 91.4145 46.8565C91.0545 47.1165 90.8146 47.5465 90.5146 47.8965C90.9246 47.8965 91.3346 47.8665 91.7346 47.8665C93.7846 47.8665 95.8846 47.6165 97.8846 47.9365C101.965 48.5765 105.535 50.5865 108.605 53.2465C114.965 58.7565 120.185 64.9764 119.675 74.1664C119.655 74.5164 119.655 74.8665 119.685 75.2165C119.705 75.4365 119.795 75.6565 119.855 75.8765C120.135 75.7365 120.485 75.6565 120.675 75.4365C124.775 70.6865 125.785 66.4064 123.345 60.0464C122.075 56.7364 119.745 54.1265 117.145 51.7765C112.265 47.3665 106.665 44.6964 99.9546 44.8064H99.9745ZM31.6045 44.7465C24.0745 44.6365 18.8146 47.6965 13.8046 51.6265C11.1846 53.6865 9.89453 56.6465 8.08453 59.1865C5.11453 63.3465 5.90456 69.5965 9.11456 73.7165C9.54456 74.2665 10.0146 74.7764 10.4846 75.2864C10.6546 75.4664 10.8746 75.5965 11.0746 75.7465C11.1146 75.5265 11.2046 75.3065 11.2046 75.0865C11.1846 72.4265 11.2145 69.8365 12.1645 67.2465C13.3745 63.9365 15.1446 61.0565 17.3646 58.3465C21.4046 53.4065 26.2346 49.7764 32.4946 48.0464C34.5946 47.4664 36.6246 47.7365 38.6746 47.5665C39.0046 47.5365 39.3245 47.3864 39.6445 47.2964C39.4445 47.0264 39.3045 46.6465 39.0345 46.4865C36.4545 44.9765 33.6345 44.5365 31.5945 44.7465H31.6045ZM26.3246 39.8565C24.9346 39.9265 23.5045 39.7865 22.1645 40.0865C17.6545 41.0965 13.3045 42.5965 9.66454 45.5765C3.78454 50.4065 0.674567 57.2465 4.31457 64.8465C4.41457 65.0465 4.51455 65.2465 4.60455 65.4465C4.71455 65.2565 4.86455 65.0765 4.92455 64.8765C5.38455 63.3465 5.72456 61.7665 6.30456 60.2765C7.93456 56.0665 10.7146 52.5864 14.2346 49.9064C19.4346 45.9464 25.1345 43.0065 32.0245 43.3165C34.0445 43.4065 35.8546 43.9565 37.6946 44.6365C38.0346 44.7665 38.5146 44.5064 38.9246 44.4264C38.7246 44.1464 38.5746 43.7865 38.3146 43.6065C34.7046 41.1165 30.7646 39.6865 26.3146 39.8565H26.3246ZM128.235 58.2265C127.985 56.6265 127.955 55.0865 127.495 53.6965C126.225 49.9265 123.635 47.0465 120.435 44.8865C113.865 40.4565 106.765 38.6865 98.7945 40.7265C96.1245 41.4065 94.0646 42.7765 91.9346 44.2465C91.6546 44.4365 91.5845 44.9264 91.4145 45.2864C91.7345 45.2164 92.0845 45.2165 92.3545 45.0765C95.8845 43.2165 99.7346 42.8465 103.495 43.4965C111.525 44.8965 117.525 49.6865 122.415 55.9565C123.895 57.8565 125.195 59.9265 125.425 62.4765C125.455 62.8565 126.175 63.2465 126.655 63.4465C126.775 63.4965 127.365 62.8965 127.445 62.5265C127.775 61.0865 127.995 59.6165 128.235 58.2165V58.2265ZM65.8646 24.1764H65.8345C65.8345 29.5164 65.8245 34.8665 65.8345 40.2065C65.8345 42.6665 66.5245 43.3364 68.8445 43.3064C69.4845 43.2964 69.9746 43.0865 69.7546 42.2565C68.6746 38.1465 69.2745 33.9565 69.3545 29.8165C69.4145 26.8665 70.3546 23.9565 70.5746 20.9965C70.9046 16.5065 72.0245 12.1865 73.0445 7.84649C73.4745 6.01649 73.9846 4.20653 74.4546 2.38653C72.4946 2.29653 70.5346 2.15654 68.5746 2.14654C66.7246 2.13654 65.8645 2.99646 65.8545 4.81646C65.8345 11.2665 65.8545 17.7264 65.8545 24.1764H65.8646ZM65.0345 22.5265C65.0345 16.3565 65.0245 10.1865 65.0445 4.02654C65.0445 2.81654 64.8545 2.0265 63.3445 2.1065C61.2545 2.2165 59.1546 2.15645 57.0646 2.17645C56.5546 2.17645 56.1846 2.28648 56.4346 2.95648C58.0646 7.26648 58.9745 11.7264 59.7145 16.2864C60.6645 22.1964 61.7546 28.0765 61.6246 34.0865C61.5646 36.9765 61.3745 39.8665 61.2845 42.7565C61.2845 42.9365 61.6545 43.2865 61.8545 43.2765C64.2145 43.2165 65.0345 42.3665 65.0345 39.9865C65.0445 34.1665 65.0345 28.3465 65.0345 22.5265V22.5265ZM60.7245 37.2565C60.4845 32.8365 60.4546 29.3665 60.0546 25.9465C59.5446 21.5165 58.8846 17.0865 57.9846 12.7165C57.3746 9.70649 56.2646 6.78647 55.3646 3.82647C55.0046 2.62647 54.4146 2.3465 53.0646 2.7365C51.2146 3.2765 49.2145 3.35647 47.2745 3.57647C46.3645 3.67647 46.4246 3.94649 46.8846 4.59649C48.0846 6.28649 49.3646 7.93651 50.3646 9.74651C54.0046 16.3665 56.0545 23.5865 57.2245 30.9565C57.8345 34.7765 57.2245 38.7965 56.9645 42.7165C56.8945 43.7665 56.8545 43.9765 57.8345 43.4965C58.5845 43.1265 59.8745 43.8465 60.0845 42.4465C60.3845 40.4065 60.5845 38.3465 60.7145 37.2665L60.7245 37.2565ZM70.6946 34.2565C70.6946 36.5065 70.6946 38.3665 70.6946 40.2265C70.6946 40.8065 70.6645 41.4065 70.7845 41.9665C71.0145 43.0465 71.8745 43.5565 73.2245 43.3165C74.7145 43.0565 73.6246 42.1865 73.6146 41.5065C73.5746 38.2665 73.3645 34.9964 73.7245 31.7864C74.3645 26.0964 76.1746 20.6764 78.0546 15.2864C79.3546 11.5364 81.1146 8.06643 83.6946 5.03643C83.9646 4.71643 84.2046 4.37644 84.4546 4.04644C84.0646 3.88644 83.6745 3.65648 83.2745 3.58648C81.6945 3.31648 80.1046 3.09649 78.5146 2.84649C76.9046 2.59649 75.7946 3.16643 75.3246 4.78643C74.7146 6.87643 74.0045 8.94645 73.5245 11.0565C72.7845 14.3065 72.3845 17.6064 71.9145 20.9064C71.2645 25.4764 70.5246 30.0065 70.6946 34.2565V34.2565ZM56.8445 37.3765C56.5645 35.9165 56.1445 34.4765 56.0245 33.0065C55.4645 25.9565 53.3145 19.3164 50.7745 12.7964C49.8945 10.5464 48.7145 8.4265 47.0245 6.6065C45.4045 4.8665 44.1046 4.35653 41.9846 5.01653C40.5646 5.45653 39.1445 5.9165 37.7245 6.3565C37.4045 6.4565 37.0646 6.5265 36.7346 6.6065C36.9946 6.7965 37.2445 7.01645 37.5245 7.17645C44.2345 11.1364 47.9146 17.6065 50.8646 24.3465C52.6146 28.3565 53.0545 32.9665 53.8345 37.3465C54.0845 38.7365 53.5446 40.2765 53.3246 41.7465C53.2046 42.5365 52.9645 43.3165 52.9145 44.1165C52.9045 44.2865 53.5945 44.7265 53.7245 44.6465C54.2845 44.3065 54.9345 43.9165 55.2245 43.3765C56.2045 41.5265 56.8545 39.5665 56.8345 37.3765H56.8445ZM86.9546 4.52654C86.5746 4.71654 85.8146 4.8865 85.3846 5.3565C84.2146 6.6165 82.9545 7.88652 82.1445 9.37652C79.4445 14.3565 77.7046 19.6864 76.2446 25.1664C74.8846 30.2764 74.8146 35.4265 74.8846 40.6165C74.9046 42.2065 75.2846 43.6265 76.6746 44.5265C76.9746 44.7265 77.5545 44.6065 77.9645 44.4865C78.0945 44.4465 78.1646 43.8965 78.1146 43.6065C77.7846 41.5865 76.8945 39.4965 77.1645 37.5765C77.8845 32.4865 78.8946 27.4265 81.1146 22.6965C83.0346 18.6065 85.0946 14.5965 88.3246 11.3765C89.8646 9.83652 91.6846 8.56643 93.3646 7.15643C93.5746 6.97643 93.6746 6.65643 93.8246 6.40643C91.6146 5.79643 89.4046 5.19653 86.9446 4.51653L86.9546 4.52654ZM129.395 50.9565C130.095 47.0065 128.175 43.3965 125.265 40.4865C120.685 35.9065 114.525 34.6665 108.425 34.5065C104.245 34.3965 100.075 35.8764 96.2446 37.9064C94.2246 38.9764 92.7845 40.5965 91.2745 42.1965C91.1345 42.3465 91.1346 42.6165 91.0646 42.8365C91.3346 42.8365 91.6645 42.9164 91.8545 42.7964C94.7745 40.8964 97.8145 39.4464 101.335 38.8064C103.825 38.3564 106.095 38.8065 108.485 39.0965C116.695 40.1265 122.965 44.1465 127.525 50.9565C128.035 51.7065 128.345 52.6065 128.705 53.4465C128.895 53.9065 129.005 54.3965 129.145 54.8765C129.225 54.3165 129.345 53.7565 129.385 53.1865C129.425 52.6065 129.385 52.0265 129.385 50.9665L129.395 50.9565ZM22.2945 34.4365C19.5645 34.9365 16.3145 35.1964 13.2945 36.1664C7.74455 37.9364 3.48453 41.3965 2.02453 47.3265C1.48453 49.5265 1.65453 51.8965 1.52453 54.1965C1.51453 54.4065 1.63457 54.6365 1.69457 54.8565C1.84457 54.6365 2.03457 54.4264 2.13457 54.1764C6.35457 43.6364 15.0946 39.5665 25.5046 38.6065C30.7046 38.1265 35.8446 39.4365 39.7646 43.4965C39.8946 43.6365 40.1346 43.6565 40.3246 43.7365C40.3046 43.4265 40.4046 43.0365 40.2446 42.8365C35.8046 37.1165 29.5045 35.2065 22.2745 34.4465L22.2945 34.4365ZM52.5445 38.1265C52.4645 36.9765 52.5445 35.7864 52.2845 34.6664C51.4345 30.8664 50.5446 27.0965 49.0146 23.4765C46.8646 18.3865 43.9846 13.8664 39.8746 10.1764C36.7146 7.33645 34.9645 7.14645 31.0945 9.05645C30.6845 9.25645 30.2545 9.44643 29.8445 9.65643C29.1345 10.0264 28.4245 10.4164 27.7245 10.7964C28.4245 10.9464 29.1846 10.9765 29.8246 11.2565C31.6146 12.0465 33.4945 12.7365 35.1045 13.8165C41.0345 17.7865 45.3845 23.2065 48.0245 29.7365C49.8445 34.2565 51.5146 39.0465 49.8146 44.1365C49.7146 44.4365 50.0745 44.8964 50.2245 45.2864C50.5445 45.0164 50.9645 44.8165 51.1545 44.4765C52.2245 42.5065 52.6745 40.3865 52.5345 38.1265H52.5445ZM78.4246 37.8064C78.4246 39.0064 78.3046 39.5164 78.4446 39.9264C79.0046 41.6264 78.7645 43.6465 80.3345 44.9565C80.7245 45.2765 81.2145 45.4865 81.6545 45.7365C81.5545 45.3165 81.4345 44.9065 81.3545 44.4765C81.0545 42.9065 80.3945 41.2965 80.5445 39.7765C80.9645 35.5565 82.1646 31.5065 83.9246 27.6165C85.2646 24.6465 87.2645 22.1164 89.2845 19.6764C92.5445 15.7264 96.5045 12.5365 101.655 11.2165C102.175 11.0865 102.685 10.9565 103.205 10.8365C102.715 10.5365 102.255 10.1765 101.735 9.94647C100.265 9.29647 98.7845 8.65649 97.2745 8.09649C96.7645 7.90649 96.0746 7.70654 95.6246 7.89654C93.9446 8.58654 92.1946 9.00651 90.7446 10.3665C86.2446 14.5965 83.5346 19.9065 81.2346 25.4865C79.5246 29.6565 78.9046 34.0864 78.4246 37.7964V37.8064ZM81.6246 40.0865C82.0446 41.7165 82.5445 43.6964 83.0845 45.6764C83.1745 45.9864 83.4446 46.2464 83.6246 46.5364C83.7246 46.1264 83.9946 45.6565 83.8846 45.3165C82.5946 41.4065 83.9045 37.8365 85.3445 34.3365C87.8445 28.2765 92.0745 23.7065 97.5445 20.0965C101.225 17.6665 105.135 16.3165 109.485 16.1065C109.935 16.0865 110.375 15.9764 110.825 15.9064C110.425 15.5664 110.025 15.2365 109.645 14.8865C105.965 11.5265 101.965 11.7765 97.9645 14.0865C95.8845 15.2865 93.7645 16.6065 92.0845 18.3065C87.4745 22.9665 84.2346 28.4965 82.6146 34.8965C82.2246 36.4465 82.0046 38.0365 81.6246 40.1065V40.0865ZM2.75457 40.2165C2.91457 40.8165 3.02452 41.2465 3.14452 41.6865C3.48452 41.3965 3.83453 41.1164 4.15453 40.8064C5.87453 39.1264 7.59454 37.4865 9.78454 36.3565C14.3345 33.9965 19.1446 33.2564 24.1846 33.5364C29.2846 33.8164 33.7845 35.6465 37.7945 38.7565C38.9445 39.6465 39.9945 40.6665 41.0945 41.6165C41.8545 39.5565 39.4945 39.0464 39.0445 37.5464C38.8345 36.8464 38.0746 36.2465 37.4446 35.7465C30.9646 30.6665 23.8545 27.8565 15.3945 29.3465C11.9745 29.9465 8.96452 31.2864 6.39452 33.4164C4.33452 35.1264 3.43457 37.7265 2.75457 40.2165V40.2165ZM49.2546 39.8064C49.1846 34.9664 47.4645 30.7064 45.1645 26.6764C41.9745 21.0864 38.0945 16.0565 31.8945 13.5265C26.8545 11.4665 24.5546 12.0765 21.1846 14.9765C20.9346 15.1865 20.8046 15.5365 20.6246 15.8265C20.9446 15.9165 21.2645 16.0665 21.5845 16.0965C30.4045 16.7065 36.9046 21.2865 42.0646 28.0965C44.0146 30.6765 45.7845 33.3664 46.6645 36.5464C47.3745 39.1164 47.8446 41.7065 47.6346 44.3865C47.6146 44.5965 47.7345 44.8164 47.7945 45.0364C47.9945 44.8564 48.3145 44.7065 48.3545 44.5065C48.6845 42.9465 48.9546 41.3764 49.2446 39.8064H49.2546ZM46.2046 42.6564C46.4946 39.8464 45.3846 36.3664 44.7646 34.9264C42.0846 28.6664 37.8345 23.7564 31.9045 20.4164C28.6945 18.6064 25.3146 17.1765 21.4446 17.5065C18.0646 17.7965 15.0946 18.6765 13.4346 21.9765C13.2946 22.2565 13.1346 22.5365 12.9846 22.8065C13.3046 22.8065 13.6646 22.9064 13.9246 22.7864C18.7446 20.6164 23.4946 21.9564 27.9946 23.5364C32.9346 25.2764 37.2545 28.3265 40.5445 32.5065C42.9745 35.5965 44.9145 39.0065 45.5245 42.9965C45.6645 43.9065 45.8146 44.8265 45.9546 45.7365C46.0346 44.8265 46.1246 43.9165 46.2046 43.0065C46.2146 42.8865 46.2046 42.7764 46.2046 42.6564V42.6564ZM109.265 17.5165C106.515 17.5165 103.635 18.2865 101.335 19.3165C96.2345 21.5865 92.2145 25.1065 89.0845 29.6965C86.1545 33.9965 84.4246 38.6565 84.7346 43.9365C84.7546 44.3365 84.9546 44.7265 85.0746 45.1265C85.1746 44.8065 85.3145 44.4964 85.3545 44.1664C86.1045 38.1564 89.1246 33.3365 93.4946 29.3765C96.5746 26.5865 100.135 24.3365 104.155 23.2065C107.625 22.2265 111.165 20.7964 114.915 22.2964C115.415 22.4964 116.065 22.3965 116.645 22.3365C117.445 22.2565 117.635 21.7064 117.175 21.1564C115.055 18.5964 112.405 17.1865 109.275 17.5265L109.265 17.5165ZM19.9546 23.0065C13.7046 23.1665 9.18453 25.2965 6.71453 30.8065C6.58453 31.0865 6.60456 31.4365 6.55456 31.7465C6.82456 31.6465 7.17455 31.6164 7.36455 31.4264C9.62455 29.1864 12.6345 28.3365 15.5245 28.0765C20.4445 27.6365 25.3146 27.7965 30.1246 29.8765C36.0446 32.4365 40.4545 36.2465 43.1545 42.0665C43.3945 42.5865 43.6746 43.0765 43.9346 43.5865C43.9846 43.0165 44.1145 42.4465 44.0445 41.8865C43.9845 41.3265 43.7546 40.7865 43.5546 40.2565C42.6546 37.8865 41.5945 35.6665 39.9745 33.6265C34.6945 26.9865 27.7646 23.7765 19.9546 22.9965V23.0065Z" fill="#1D1D1B"/>
</svg>
