<svg width="131" height="101" viewBox="0 0 131 101" fill="none" xmlns="http://www.w3.org/2000/svg">
<path d="M64.2341 0C76.5041 0.65 87.5241 2.26999 98.0441 6.73999C107.424 10.73 115.024 16.7499 121.544 24.5299C124.754 28.3699 126.814 32.6499 128.604 37.1399C129.404 39.1299 129.704 41.35 130.024 43.49C130.404 45.99 130.874 48.5399 130.754 51.0399C130.334 59.6099 127.784 67.47 122.604 74.47C118.404 80.14 113.054 84.59 107.404 88.59C103.874 91.09 99.7041 92.74 95.6741 94.45C91.0241 96.42 86.0641 97.54 81.1341 98.59C78.3341 99.18 75.4141 99.18 72.5441 99.45C70.3741 99.66 68.1741 100.2 66.0341 100.03C61.8041 99.6999 57.5641 99.34 53.3441 98.86C48.6241 98.32 44.0841 97.1999 39.5641 95.8999C33.1941 94.0599 27.3441 90.9799 21.7941 87.4399C18.7141 85.4799 15.6041 83.2099 13.3641 80.3999C9.74411 75.8599 5.7341 71.56 3.5041 65.96C1.7041 61.44 1.0441 56.6999 0.164099 52.0299C-0.305901 49.5299 0.334102 46.7499 0.824102 44.1599C1.7341 39.4199 3.1241 34.82 5.4141 30.49C7.1141 27.27 9.41411 24.5499 11.7741 21.8899C18.0741 14.7799 25.7141 9.65001 34.6041 6.13C39.5641 4.16 44.6941 3.00989 49.7741 1.63989C52.1841 0.989893 54.7941 1.06993 57.3141 0.799927C59.9441 0.509927 62.5641 0.2 64.2341 0ZM31.6341 55.97C32.2041 55.15 33.4141 54.03 33.2041 53.59C32.7641 52.66 31.5641 52.1 30.6941 51.37C30.3441 51.07 30.0641 50.6499 29.6741 50.4399C29.3441 50.2699 28.7841 50.1499 28.5141 50.3099C27.1441 51.1399 25.8141 52.04 24.5141 52.97C24.3041 53.12 24.1041 53.7199 24.1741 53.7799C25.5641 54.9799 26.9241 56.22 28.4641 57.2C28.7841 57.4 29.7541 56.53 30.4541 56.22C30.7441 56.09 31.1241 56.15 31.4541 56.13C31.1341 56.59 30.7341 57.0299 30.5341 57.5399C30.4041 57.8699 30.4341 58.5699 30.6341 58.6799C32.1241 59.5199 33.7341 60.1499 35.1841 61.0399C36.3641 61.7599 37.2741 61.6299 37.6741 60.3999C38.0941 59.1199 40.3541 58.49 39.4741 57.1C38.7541 55.97 37.0841 55.3499 35.7141 54.7999C35.1141 54.5599 34.2041 55 33.4541 55.22C32.8341 55.4 32.2441 55.71 31.6441 55.96L31.6341 55.97ZM65.7741 56.33C68.6241 56 71.4941 55.7799 74.3241 55.2999C78.3341 54.6199 82.0241 52.9999 85.5641 51.0499C86.6441 50.4499 86.7341 49.83 85.7841 49.33C82.1141 47.41 78.4041 45.6799 74.2641 44.8099C70.5741 44.0399 66.9041 44.2399 63.2241 44.1899C57.7041 44.1099 52.5741 45.6999 47.6441 48.0199C46.8241 48.4099 46.0741 48.99 45.3941 49.59C45.2241 49.74 45.2741 50.5399 45.4541 50.6499C46.9141 51.5499 48.3741 52.4999 49.9441 53.1799C54.9841 55.3399 60.2441 56.3799 65.7741 56.3199V56.33ZM65.0241 80.2699C65.0241 79.7999 65.0241 79.34 65.0241 78.87C64.9841 76.42 64.9841 76.44 62.5641 76.36C60.1341 76.28 57.7141 76.1299 55.2841 76.0499C55.0741 76.0499 54.7041 76.3199 54.6741 76.5099C54.3941 78.2099 54.1641 79.91 53.9441 81.62C53.8041 82.77 54.2641 83.3099 55.5141 83.2799C57.7241 83.2399 59.9341 83.29 62.1441 83.36C63.0141 83.39 63.8741 83.5599 64.7341 83.6699C64.8341 82.7699 64.9341 81.86 65.0241 80.96C65.0441 80.73 65.0241 80.4899 65.0241 80.2599V80.2699ZM66.1841 81.0599L66.4341 81.08C66.4141 81.42 66.4041 81.77 66.3841 82.11C66.3141 83.77 66.6641 84.09 68.1141 83.88C69.8041 83.64 71.5141 83.3999 73.2141 83.3199C77.4541 83.1299 76.9141 83.95 76.8941 79.25C76.8941 78.91 76.9141 78.53 76.7941 78.22C76.3741 77.12 75.9141 76.2799 74.3741 76.2799C72.1041 76.2799 69.8541 76.81 67.5641 76.45C67.2541 76.3999 66.5941 77.0299 66.5141 77.4299C66.2841 78.6199 66.2741 79.8399 66.1741 81.0599H66.1841ZM53.1341 78.3199L53.4041 75.84C52.4941 75.77 51.5541 75.79 50.6641 75.6C49.3241 75.31 48.0241 74.8699 46.7041 74.5099C44.1941 73.8199 43.4741 74.2499 42.8441 76.7899C42.7641 77.1199 42.7641 77.4799 42.7141 77.8199C42.4341 79.6866 43.1708 80.8433 44.9241 81.2899C46.4741 81.6899 47.9941 82.16 49.5541 82.49C52.2741 83.07 53.0241 82.4099 53.1241 79.5099C53.1341 79.1599 53.1241 78.81 53.1241 78.33L53.1341 78.3199ZM79.5141 82.63C81.3741 82.35 82.9441 82.07 84.5241 81.88C89.0441 81.34 89.1341 81.24 88.1041 76.97C87.9741 76.42 87.7641 75.89 87.6141 75.34C87.3441 74.32 86.6741 74.18 85.7541 74.37C83.5241 74.83 81.3041 75.31 79.0541 75.63C78.0541 75.77 77.5441 76.11 77.6941 77.13C77.9241 78.71 78.1141 80.3 78.4841 81.84C78.5741 82.22 79.2641 82.45 79.5141 82.63ZM60.4941 90.95C65.4641 90.99 65.4841 90.9499 65.0241 86.0599C64.9441 85.2599 64.7341 84.79 63.8241 84.75C60.8641 84.59 57.8441 85.17 54.9241 84.12C54.7141 84.04 54.0241 84.5299 53.9841 84.8199C53.7341 86.5099 53.6241 88.2299 53.4541 89.9299C55.1041 90.2699 56.7541 90.6399 58.4141 90.9299C59.0841 91.0399 59.7941 90.95 60.4841 90.95H60.4941ZM39.8741 80.35C41.0341 80.42 41.0241 80.3999 41.2441 79.3099C41.6041 77.5299 42.0041 75.75 42.3841 73.97C40.5941 73.34 38.7941 72.7099 37.0141 72.0699C36.6941 71.9499 36.4041 71.75 36.0841 71.61C33.7141 70.61 33.4241 70.6899 32.5341 72.9099C32.1141 73.9599 31.7941 75.0699 31.5541 76.1799C31.3941 76.8899 31.6041 77.43 32.4941 77.72C34.9741 78.53 37.4141 79.47 39.8741 80.36V80.35ZM90.6841 80.49C91.1641 80.3 91.4841 80.1699 91.8041 80.0499C93.3141 79.5199 94.8341 78.99 96.3541 78.47C99.9241 77.25 99.9441 77.25 98.6741 73.62C98.3441 72.68 97.8341 71.79 97.4041 70.88C96.7141 71.26 96.0641 71.74 95.3341 71.99C94.2541 72.35 93.1141 72.5399 92.0041 72.8099C88.7341 73.6099 88.7541 73.6099 89.4441 76.7999C89.6141 77.5899 89.4741 78.44 89.6941 79.21C89.8241 79.69 90.3541 80.06 90.7041 80.48L90.6841 80.49ZM69.9041 90.97L69.9441 91.1599C71.6241 90.8699 73.2941 90.5299 74.9741 90.3099C77.5841 89.9699 77.5941 89.9999 77.5941 87.2899C77.5941 86.4799 77.6441 85.66 77.5141 84.88C77.4641 84.61 76.9141 84.22 76.6141 84.23C74.5741 84.35 72.5341 84.65 70.4841 84.73C65.8541 84.91 66.5541 83.88 66.4441 89.13C66.4241 90.38 66.7341 91.14 68.1741 90.98C68.7441 90.92 69.3241 90.97 69.9041 90.97ZM52.4341 87.4299H52.4541C52.4541 86.9599 52.4041 86.4899 52.4541 86.0299C52.6441 84.5599 52.0241 84.0799 50.5441 83.9099C48.3941 83.6599 46.2841 83.04 44.1541 82.58C42.2341 82.16 42.1841 82.1399 41.7241 83.8899C41.4941 84.7699 41.4441 85.7 41.3341 86.61C41.2241 87.57 41.5841 88.0699 42.6241 88.2599C45.1041 88.6999 47.5641 89.2499 50.0241 89.7699C52.3441 90.2599 52.3441 90.28 52.4141 88.13C52.4141 87.9 52.4141 87.6599 52.4141 87.4299H52.4341ZM65.0241 72.38C65.0241 71.92 65.0241 71.45 65.0241 70.99C64.9741 68.72 64.9741 68.7699 62.7641 68.6399C60.8241 68.5199 58.9041 68.26 56.9641 68.11C56.6841 68.09 56.1541 68.29 56.1141 68.48C55.6641 70.48 55.2841 72.49 54.9241 74.5C54.9041 74.59 55.2241 74.82 55.4041 74.84C57.5641 75.1 59.7141 75.4799 61.8841 75.5399C65.3841 75.6299 65.0041 75.8699 65.0341 72.3899L65.0241 72.38ZM89.5241 85.1399H89.4441C89.4441 84.3299 89.5241 83.51 89.3941 82.72C89.3541 82.47 88.7441 82.0999 88.4541 82.1499C86.2141 82.5199 83.9741 82.9299 81.7541 83.4299C80.6641 83.6699 79.3141 83.8399 78.6641 84.5699C78.2241 85.0499 78.8541 86.45 78.9241 87.45C78.9641 87.9799 78.7141 88.5499 78.8341 89.0399C78.9441 89.4599 78.9941 90.09 79.9341 89.87C82.6941 89.21 85.4941 88.6899 88.2941 88.1899C89.1241 88.0399 89.5341 87.72 89.5141 86.87C89.5041 86.29 89.5141 85.7099 89.5141 85.1399H89.5241ZM32.1241 70.71C31.9441 70.51 31.7741 70.2299 31.5241 70.0699C30.6541 69.5199 29.7541 69.03 28.8841 68.48C24.7241 65.83 23.6241 66.2299 21.9541 71.0099C21.6341 71.9199 21.7941 72.4699 22.7241 72.9399C24.8641 74.0199 26.9341 75.25 29.0641 76.36C29.3241 76.5 30.0141 76.4199 30.0741 76.2699C30.7941 74.4799 31.4241 72.65 32.1341 70.71H32.1241ZM66.5041 71.6499C66.4341 72.1099 66.3641 72.68 66.2641 73.24C65.9141 75.16 66.1341 75.5499 67.9941 75.5299C69.2341 75.5099 70.4641 75.1199 71.7141 74.95C73.1741 74.75 74.6341 74.6099 76.0941 74.4399C75.9041 72.9699 75.7141 71.5099 75.5141 70.0399C75.4741 69.6999 75.5141 69.2899 75.3441 69.0299C75.1141 68.6899 74.6941 68.24 74.3741 68.25C72.0741 68.34 69.7741 68.5 67.4741 68.7C66.3841 68.7899 65.6741 69.2299 66.3441 70.5099C66.4941 70.7999 66.4441 71.1899 66.4941 71.6499H66.5041ZM80.3141 74.4099C81.5341 74.1299 82.7641 73.8799 83.9641 73.5499C84.8141 73.3099 85.8641 73.19 86.4041 72.61C87.2141 71.74 86.5341 70.9599 85.6641 70.3999C85.5841 70.3499 85.9941 69.74 85.9041 69.48C85.5941 68.52 85.3441 67.44 84.7141 66.74C84.4541 66.45 83.2641 67.0599 82.4941 67.1699C81.8041 67.2699 81.0841 67.1499 80.4141 67.2999C79.0941 67.5899 77.7941 68 76.4941 68.36C76.6641 69.47 76.8241 70.5699 76.9941 71.6799C77.2674 73.4733 78.3774 74.3832 80.3241 74.4099H80.3141ZM109.334 71.2899C108.464 69.5899 107.584 67.86 106.704 66.13C105.614 66.75 104.524 67.37 103.434 67.99C103.334 68.05 103.214 68.0699 103.124 68.1399C101.824 69.1099 99.3741 69.0399 99.2241 70.7999C99.0841 72.3499 100.214 74.03 100.884 75.62C100.994 75.88 101.664 76.1699 101.904 76.0599C104.184 74.9799 106.434 73.8499 108.654 72.6499C108.964 72.4799 109.054 71.8999 109.364 71.2999L109.334 71.2899ZM93.8241 63.7899C93.4441 63.7899 93.3141 63.7599 93.2141 63.7899C91.0341 64.4999 88.8441 65.2 86.6941 65.98C86.4741 66.06 86.3141 66.7299 86.3941 67.0699C86.5241 67.6199 86.9141 68.0999 87.1141 68.6399C87.5941 69.9199 87.6941 71.8599 88.5841 72.3199C89.4641 72.7799 91.1441 71.83 92.4241 71.36C94.0041 70.78 95.5241 70.0699 97.0741 69.4099C96.2941 67.7499 95.5341 66.08 94.6941 64.46C94.5141 64.1 94.0141 63.9099 93.8241 63.7799V63.7899ZM40.5741 83.25C40.7641 82.13 40.5341 81.3699 38.8741 81.1399C37.0841 80.8899 35.3741 80.05 33.6241 79.48C32.7941 79.21 31.4141 78.5699 31.2141 78.8199C30.6241 79.5799 30.4241 80.6799 30.2241 81.6799C30.1241 82.1899 30.5541 82.8299 30.4041 83.2999C30.1041 84.2399 30.4041 84.47 31.2641 84.71C32.9241 85.17 34.5641 85.72 36.1741 86.34C40.4341 87.98 40.4241 88.01 40.5641 83.25H40.5741ZM54.4741 70.0499C54.6741 68.5299 54.3541 68.0099 53.2741 67.9099C52.1441 67.7999 51.0441 67.4299 49.9141 67.2599C48.7141 67.0799 47.0641 66.46 46.3841 67C45.4641 67.74 45.2241 69.3699 44.7941 70.6599C44.1841 72.4699 44.5341 73.0799 46.2941 73.4399C48.4241 73.8599 50.5441 74.28 52.6841 74.63C53.0241 74.68 53.6941 74.45 53.7341 74.24C54.0741 72.68 54.2941 71.0899 54.4641 70.0599L54.4741 70.0499ZM41.4641 72.2899C42.5941 72.2399 43.3841 72.03 43.3841 70.72C43.3841 70.38 43.4741 70.03 43.5641 69.7C43.8841 68.52 44.8041 67.02 44.3841 66.24C43.9141 65.38 42.2441 65.1299 41.0741 64.6899C39.8141 64.2099 38.5141 63.8299 37.2341 63.3999C36.4941 64.6899 35.7441 65.9799 35.0341 67.2899C34.7641 67.7899 34.5141 68.33 34.3941 68.88C34.3341 69.15 34.5241 69.6799 34.7341 69.7599C36.9641 70.6399 39.2241 71.4599 41.4641 72.2999V72.2899ZM100.684 82.0099C100.684 81.4299 100.744 80.8399 100.674 80.2599C100.494 78.6699 99.8941 78.35 98.3641 78.96C97.1841 79.43 96.0241 79.94 94.8241 80.34C93.4141 80.81 91.9841 81.18 90.5541 81.59C90.6941 83.16 90.8441 84.7199 90.9641 86.2899C91.0341 87.1599 91.3241 87.5299 92.2841 87.1899C94.3441 86.4499 96.4441 85.82 98.5041 85.11C100.744 84.33 100.734 84.3099 100.684 82.0099ZM98.4141 69.0499C99.5541 68.4899 100.524 68.0899 101.414 67.5599C102.964 66.6399 104.474 65.6499 106.004 64.6899C104.924 63.1899 103.824 61.7199 102.784 60.1899C102.274 59.4399 101.654 59.4299 100.994 59.7899C99.2741 60.7299 97.5741 61.7 95.8941 62.7C95.2341 63.09 95.4741 63.6099 95.7741 64.1699C96.5441 65.5699 97.2541 67.0099 98.0041 68.4199C98.1241 68.6399 98.2841 68.8499 98.4141 69.0399V69.0499ZM32.0241 68.7699C32.5041 68.3799 33.0341 68.1199 33.3241 67.6799C33.6241 67.2199 33.6241 66.5699 33.8641 66.0599C34.3941 64.9499 34.9941 63.8599 35.5641 62.7699C34.3441 62.1199 33.1241 61.48 31.9141 60.83C31.7141 60.72 31.5241 60.58 31.3141 60.48C29.0741 59.37 28.9441 59.4 27.3341 61.35C24.6841 64.55 24.7041 64.8099 28.1941 66.8999C29.3641 67.5999 30.6541 68.1099 32.0241 68.7699ZM27.9741 58.73C27.7241 58.41 27.5641 58.0899 27.3041 57.8899C26.4941 57.2499 25.6041 56.6999 24.8241 56.0299C22.6541 54.1599 22.6641 54.14 20.6141 56.12C20.4441 56.28 20.2841 56.45 20.1241 56.61C17.3141 59.42 17.3241 59.5899 20.3941 61.9299C20.5741 62.0699 20.7841 62.1699 20.9941 62.2799C22.0741 62.8799 23.1941 63.9599 24.2341 63.8999C24.9141 63.8599 25.4641 62.1299 26.1241 61.1899C26.5241 60.6299 27.0541 60.15 27.4841 59.61C27.6841 59.36 27.8041 59.03 27.9741 58.72V58.73ZM113.684 60.46C113.454 60.63 113.264 60.7599 113.084 60.8999C111.764 61.9899 110.364 63.01 109.174 64.22C108.704 64.7 108.394 65.71 108.554 66.35C108.894 67.78 109.514 69.14 110.114 70.49C110.354 71.03 110.764 71.38 111.454 70.83C113.234 69.41 115.094 68.0799 116.884 66.6699C117.074 66.5199 117.214 66.02 117.114 65.83C116.274 64.21 115.374 62.6199 114.454 61.0399C114.304 60.7799 113.934 60.64 113.684 60.46ZM23.1141 65.7599C22.9041 65.4599 22.7141 65.0299 22.3841 64.7599C21.6741 64.1799 20.8641 63.7199 20.1441 63.1499C19.0841 62.3099 18.0641 61.4099 17.0341 60.5399C16.2941 61.6899 15.5641 62.85 14.8241 64C14.7641 64.1 14.6741 64.1799 14.5941 64.2699C13.7341 65.2699 13.9441 66.19 14.8641 66.99C16.2641 68.19 17.6841 69.3599 19.1141 70.5199C20.4041 71.5699 20.3841 71.54 21.0741 69.98C21.6841 68.61 22.3641 67.28 23.1041 65.75L23.1141 65.7599ZM113.064 59.12C112.484 58.26 111.964 57.3499 111.304 56.5599C109.564 54.5099 108.074 54.3899 106.034 56.0699C105.054 56.8699 103.424 57.5999 103.304 58.5199C103.184 59.4499 104.554 60.58 105.274 61.62C105.724 62.29 106.114 63.01 106.644 63.6C106.864 63.85 107.554 64.0699 107.734 63.9299C109.454 62.5699 111.114 61.13 112.774 59.7C112.924 59.57 112.974 59.31 113.064 59.12ZM20.3941 78.2C20.5841 78.4699 20.9141 79.45 21.5941 79.86C23.6741 81.1 25.8641 82.1499 28.0541 83.2C28.2941 83.32 29.0341 83.0199 29.0741 82.8199C29.3941 81.2699 30.0341 79.5999 29.6841 78.1799C29.4841 77.3499 27.6541 76.9099 26.5441 76.3199C25.6241 75.8299 24.6841 75.3799 23.7541 74.9099C21.1241 73.5999 20.6841 73.86 20.3941 76.85C20.3741 77.08 20.3941 77.31 20.3941 78.2ZM110.614 77.4299C110.494 76.6399 110.434 75.8399 110.234 75.0699C109.974 74.0499 109.534 73.51 108.334 74.24C106.864 75.13 105.264 75.8 103.734 76.58C101.524 77.71 101.544 77.72 102.074 80.47C102.184 81.03 102.134 81.6199 102.164 82.1899C102.224 83.1399 102.694 83.3699 103.534 82.95C105.284 82.07 107.004 81.15 108.784 80.36C110.104 79.77 110.874 78.9799 110.604 77.4299H110.614ZM16.9541 58.1699C17.3841 57.7899 17.8241 57.4499 18.2041 57.0499C19.3141 55.8899 20.4041 54.7199 21.4941 53.5499C20.5341 52.2799 19.2641 51.14 18.6841 49.71C17.9141 47.81 17.0641 49.98 16.2641 49.47C16.0841 49.36 15.1441 50.47 14.5441 51C12.3441 52.95 12.2641 53.45 14.0441 55.58C14.6341 56.29 15.3141 56.9199 15.9741 57.5499C16.2041 57.7699 16.5341 57.8999 16.9541 58.1599V58.1699ZM118.724 52.86C118.154 52.26 117.594 51.54 116.894 50.99C115.834 50.15 114.684 49.4199 113.574 48.6399C112.784 49.6099 111.974 50.5699 111.194 51.5499C110.227 52.7499 110.271 53.9233 111.324 55.0699C111.554 55.3299 111.824 55.5499 112.054 55.8199C114.204 58.3899 114.214 58.41 116.434 56.09C117.064 55.43 117.634 54.7 118.194 53.97C118.404 53.7 118.504 53.35 118.734 52.87L118.724 52.86ZM119.954 54.23C119.754 54.34 119.534 54.42 119.374 54.58C118.484 55.47 117.544 56.3399 116.734 57.3099C115.194 59.1599 115.224 59.5399 116.544 61.7799C117.004 62.5699 117.354 63.42 117.794 64.22C118.274 65.1 118.824 64.9599 119.364 64.2699C120.144 63.2899 120.864 62.2599 121.684 61.3099C123.444 59.2699 123.484 58.81 121.854 56.61C121.374 55.97 120.844 55.37 120.344 54.74C120.204 54.57 120.084 54.4 119.954 54.22V54.23ZM16.0441 59.49C15.9641 59.29 15.9441 59.17 15.8741 59.09C14.5141 57.52 13.1541 55.9499 11.7541 54.4099C11.6641 54.3199 11.1441 54.4699 10.9641 54.6599C10.5641 55.0699 10.2341 55.5499 9.90412 56.0199C7.61412 59.3799 7.58409 59.41 10.2841 62.35C11.1141 63.26 12.1341 63.9999 13.0741 64.8199C13.6141 63.7999 14.1341 62.7699 14.7041 61.7599C14.9841 61.2599 15.3541 60.8099 15.6541 60.3199C15.8241 60.0399 15.9441 59.72 16.0641 59.49H16.0441ZM111.314 74.25C111.314 74.49 111.254 74.9599 111.314 75.4099C111.744 78.1499 112.244 78.3799 114.414 76.7799C115.704 75.8299 116.964 74.8399 118.154 73.7799C118.534 73.4399 118.874 72.7699 118.824 72.2999C118.644 70.7299 118.284 69.18 117.994 67.63C116.894 68.35 115.784 69.0499 114.704 69.7999C113.954 70.3199 113.314 71.01 112.524 71.46C111.474 72.06 111.094 72.88 111.314 74.25ZM73.8741 91.72C71.8241 91.92 69.3241 92.1799 66.8141 92.4099C66.2241 92.4599 66.1341 92.65 66.1941 93.25C66.2641 93.88 65.8641 94.5599 65.9741 95.1699C66.0441 95.5899 66.6341 96.26 66.9741 96.25C69.7241 96.19 72.4741 96 75.2241 95.84C77.3341 95.71 77.6341 95.39 77.6241 93.35C77.6141 91.82 77.5141 91.75 75.3741 91.72C75.0241 91.72 74.6841 91.72 73.8741 91.72ZM19.5941 74.6599C20.6141 73.0699 19.6841 72.17 18.1641 71.37C17.3741 70.96 16.7641 70.2 16.0541 69.62C15.2241 68.95 14.3641 68.3199 13.5141 67.6699C13.2341 68.7599 13.0441 69.8799 12.6341 70.9199C12.0941 72.2999 12.4741 73.24 13.6141 74.09C14.9841 75.11 16.2541 76.2799 17.6241 77.3099C18.6941 78.1099 19.4441 77.68 19.5841 76.24C19.6241 75.78 19.5841 75.3199 19.5841 74.6599H19.5941ZM89.5541 90.8199C89.5841 89.1399 89.5941 89.22 87.9141 89.59C85.4741 90.13 83.0141 90.62 80.5341 91C79.5841 91.15 79.0541 91.3799 79.0441 92.4299C79.0441 92.9799 78.7641 93.5199 78.6041 94.0699C78.3741 94.8499 78.8241 95.23 79.4741 95.13C81.9441 94.74 84.4141 94.3299 86.8541 93.7999C89.5341 93.2199 89.5141 93.1499 89.5541 90.8199ZM96.3941 54.25C96.3041 54.25 96.1741 54.21 96.0941 54.25C94.4841 55.16 92.8741 56.0699 91.3041 57.0399C91.1641 57.1299 91.1441 57.7399 91.3041 57.9299C92.3241 59.1599 93.2141 60.83 94.5441 61.37C95.4641 61.75 97.0341 60.5699 98.3041 60.0499C98.8341 59.8299 99.3641 59.56 99.8441 59.24C100.604 58.73 101.054 58.1099 100.184 57.2799C99.3441 56.4799 98.5341 55.64 97.6541 54.87C97.3141 54.58 96.8341 54.45 96.4041 54.24L96.3941 54.25ZM119.264 51.61C119.494 51.44 119.824 51.2999 119.984 51.0599C120.304 50.5899 120.524 50.0499 120.784 49.5399C122.434 46.2499 122.284 45.5599 119.264 43.6699C118.394 43.1299 117.404 42.78 116.474 42.35C116.134 43.19 115.814 44.03 115.454 44.86C115.274 45.28 115.064 45.69 114.814 46.08C114.274 46.95 114.114 47.6799 115.134 48.4099C116.434 49.3299 117.634 50.4099 118.874 51.4099C118.964 51.4799 119.074 51.52 119.254 51.62L119.264 51.61ZM78.5541 66.5C80.0741 66.25 81.7741 66.0399 83.4341 65.6799C84.0941 65.5399 84.7041 65.1199 84.1541 64.1799C83.5741 63.1899 83.1541 62.11 82.5741 61.13C82.3841 60.81 81.8841 60.3899 81.6041 60.4399C79.7141 60.7799 77.8441 61.2699 75.9641 61.6399C75.0041 61.8299 74.8741 62.26 75.2541 63.08C75.4441 63.49 75.5141 63.9499 75.6141 64.3899C76.1041 66.4399 76.2541 66.5599 78.5641 66.5199L78.5541 66.5ZM59.5441 95.84V95.86C61.0541 95.86 62.5741 95.92 64.0741 95.84C65.3241 95.78 64.9941 94.73 65.0341 93.98C65.0641 93.29 65.0941 92.5299 64.1041 92.4399C61.4741 92.1999 58.8441 91.8899 56.2041 91.7699C53.5241 91.6499 53.5841 91.7299 53.8841 94.4099C54.0041 95.4199 54.3341 95.87 55.3541 95.85C56.7541 95.82 58.1441 95.85 59.5441 95.85V95.84ZM92.8241 62.13C92.8241 60.69 90.0241 57.91 88.8041 58.22C86.9741 58.69 85.2341 59.47 83.4541 60.13C84.0841 61.32 84.7141 62.52 85.3241 63.72C85.4241 63.92 85.3341 64.27 85.4741 64.38C85.7741 64.62 86.2241 64.97 86.4841 64.88C88.3241 64.28 90.1341 63.6099 91.9341 62.8999C92.3141 62.7499 92.5941 62.3499 92.8141 62.1399L92.8241 62.13ZM11.6841 51.61C12.1341 51.27 12.5641 50.8899 13.0441 50.5699C17.1941 47.7799 17.3341 47.2399 14.8441 43.0399C14.7841 42.9399 14.7841 42.75 14.7141 42.73C14.4641 42.65 14.1241 42.5 13.9441 42.61C12.6641 43.37 11.3641 44.1099 10.1841 45.0099C9.70412 45.3799 9.12411 46.2699 9.27411 46.6899C9.83412 48.3099 10.6741 49.83 11.4141 51.38C11.4541 51.47 11.5641 51.52 11.6841 51.62V51.61ZM52.1341 66.45C54.7541 66.6 54.8341 66.56 55.3141 65.34C56.5541 62.18 56.3541 61.8099 52.9141 61.0099C52.4641 60.9099 51.9941 60.9299 51.5441 60.8199C49.1341 60.2299 49.1341 60.2199 48.0941 62.1699C47.8241 62.6799 47.5941 63.21 47.3041 63.71C46.8241 64.53 47.0841 65 47.9441 65.25C49.5841 65.72 51.2241 66.19 52.1441 66.46L52.1341 66.45ZM60.2141 67.22C61.3641 67.22 62.5241 67.2 63.6741 67.24C64.7341 67.27 65.0941 66.7399 65.0541 65.7599C65.0241 65.0699 65.0241 64.3799 65.0541 63.6899C65.1041 62.5899 64.4541 62.42 63.5341 62.34C61.9541 62.21 60.3941 61.9199 58.8141 61.7799C58.4141 61.7399 57.7041 61.9199 57.6241 62.1599C57.1241 63.6699 56.7641 65.2199 56.3541 66.7599C57.5241 66.9199 58.7041 67.08 59.8741 67.23C59.9841 67.24 60.1041 67.23 60.2241 67.23L60.2141 67.22ZM52.4641 93.4199C52.4241 91.6799 52.1041 91.3199 50.6141 91.0499C48.2541 90.6299 45.9041 90.12 43.5341 89.75C42.9141 89.65 41.7941 89.7499 41.6741 90.0599C41.4141 90.7199 41.3741 91.7699 41.7541 92.3099C42.2241 92.9799 43.1441 93.51 43.9641 93.73C46.0541 94.3 48.2041 94.67 50.3241 95.1C51.9941 95.44 52.4941 95.0499 52.4641 93.4299V93.4199ZM41.8441 57.74C41.6141 57.82 41.3441 57.83 41.2241 57.97C40.1641 59.31 39.1341 60.6699 38.0941 62.0199C39.2141 62.5699 40.3241 63.1499 41.4641 63.6799C41.9741 63.9199 42.5241 64.0799 43.0741 64.2599C45.0641 64.8999 45.7341 64.63 46.6541 62.74C46.8541 62.34 46.7741 61.7799 47.0241 61.4399C47.9241 60.1799 47.3841 60.04 46.1341 59.72C44.6341 59.33 43.2541 58.42 41.8441 57.75V57.74ZM107.494 53.62C107.364 53.43 107.284 53.1899 107.114 53.0699C106.374 52.5299 105.654 51.9699 104.854 51.5199C103.864 50.9599 102.824 50.1899 101.774 50.1399C101.114 50.1099 100.434 51.27 99.7141 51.84C99.1841 52.26 98.5541 52.57 98.0041 52.98C97.6341 53.26 97.3741 53.52 97.9741 53.97C99.4341 55.04 100.814 56.21 102.234 57.34C103.764 56.36 105.294 55.3799 106.814 54.3899C107.004 54.2699 107.154 54.0899 107.314 53.9199C107.394 53.8399 107.434 53.72 107.494 53.63V53.62ZM70.5541 67.23C73.7075 67.2166 74.8941 65.8833 74.1141 63.23C74.0841 63.12 74.1141 62.9899 74.0741 62.8899C73.7241 62.0499 73.1241 61.62 72.1841 61.73C70.3741 61.95 68.5741 62.1399 66.7641 62.3899C66.5441 62.4199 66.1741 62.7699 66.1941 62.9199C66.3641 64.2599 66.2641 65.83 66.9641 66.83C67.3741 67.42 69.0841 67.12 70.2141 67.22C70.3241 67.22 70.4441 67.22 70.5641 67.22L70.5541 67.23ZM22.8641 52.3099C23.0541 52.2199 23.1641 52.18 23.2641 52.12C24.7341 51.25 26.2241 50.39 27.6641 49.48C27.8241 49.38 27.8841 48.83 27.7641 48.61C27.4441 48.01 26.9841 47.4899 26.5941 46.9199C25.2341 44.9499 25.1041 44.81 23.0541 45.72C21.6441 46.35 20.3941 47.36 19.0741 48.2C20.0741 49.42 21.0641 50.65 22.0941 51.85C22.2941 52.08 22.6241 52.19 22.8541 52.33L22.8641 52.3099ZM106.094 45.1399C105.934 45.3599 105.764 45.61 105.574 45.83C105.124 46.36 104.674 46.8899 104.214 47.4099C102.964 48.8199 102.964 48.8199 104.424 49.7799C105.764 50.6599 107.114 51.5199 108.464 52.3899C109.614 51.1499 110.774 49.8999 111.924 48.6599C112.224 48.3299 112.634 47.9699 111.924 47.6599C110.234 46.9199 108.544 46.2 106.854 45.47C106.644 45.38 106.434 45.28 106.104 45.13L106.094 45.1399ZM90.9641 91.37C90.7741 92.93 90.7841 92.9499 92.0441 92.5299C94.1041 91.8499 96.1741 91.18 98.2141 90.46C99.9141 89.86 100.874 88.7399 100.744 86.8099C100.684 85.9799 100.684 85.53 99.6041 86C97.7141 86.82 95.7741 87.52 93.8041 88.13C91.2741 88.91 91.2541 88.85 90.9541 91.37H90.9641ZM40.5641 91.8199C40.4941 91.6199 40.3341 91.3 40.2641 90.97C39.8641 89.04 39.8741 89.0399 38.5441 88.5699C36.0641 87.6899 33.5741 86.8299 31.1041 85.9299C30.6041 85.7499 30.2541 85.58 30.1941 86.33C30.0641 88.21 30.9441 89.6699 32.7141 90.2799C34.9841 91.0699 37.2841 91.7399 39.5441 92.5699C40.3041 92.8499 40.5841 92.77 40.5541 91.83L40.5641 91.8199ZM4.4141 51.7699C4.4541 51.9599 4.4441 52.1099 4.5141 52.1599C5.8241 53.1199 5.27411 54.81 6.02411 55.98C6.44411 56.64 6.93411 57.25 7.39411 57.88C7.73411 57.29 7.9641 56.56 8.4441 56.13C11.0741 53.81 10.4841 51.4299 8.7641 48.9399C8.52411 48.5899 8.5641 48.0499 8.3541 47.6499C8.2841 47.4999 7.74411 47.4 7.64411 47.49C6.75411 48.39 5.8741 49.2999 5.0741 50.2799C4.7341 50.6999 4.60412 51.2999 4.40412 51.7599L4.4141 51.7699ZM124.114 57.3199C124.294 57.1699 124.554 57.06 124.634 56.87C125.314 55.3 125.994 53.74 126.574 52.13C126.714 51.75 126.594 51.1599 126.374 50.8099C125.704 49.7499 124.954 48.73 124.154 47.75C124.004 47.56 123.244 47.5299 123.184 47.6399C122.274 49.3699 121.434 51.1399 120.574 52.8999C121.414 54.1299 122.264 55.36 123.104 56.59C123.234 56.78 123.304 57.0299 123.474 57.1599C123.634 57.2799 123.894 57.2699 124.114 57.3199ZM115.484 42.1C115.104 41.82 114.884 41.55 114.614 41.46C112.974 40.97 111.324 40.4899 109.664 40.0699C109.384 39.9999 108.844 40.13 108.744 40.33C108.174 41.44 107.544 42.5699 107.304 43.7699C107.254 44.0299 108.744 44.5799 109.504 45.0199C110.394 45.5499 111.244 46.17 112.164 46.62C112.474 46.77 113.224 46.67 113.344 46.45C114.114 45.06 114.764 43.61 115.494 42.1H115.484ZM24.2641 43.7599C24.1741 43.5299 24.1441 43.4099 24.0841 43.3199C23.4341 42.2699 22.9441 41.0099 22.0341 40.2599C21.5941 39.8999 20.3641 40.4999 19.4941 40.6499C19.1541 40.7099 18.7941 40.6699 18.4641 40.7599C16.0441 41.3999 15.7041 42.1299 16.7141 44.4399C16.9941 45.0699 17.2541 45.7299 17.6541 46.2699C17.8441 46.5299 18.4541 46.7799 18.7041 46.6699C20.3541 45.9199 21.9641 45.0799 23.5841 44.2599C23.8441 44.1299 24.0541 43.9299 24.2641 43.7699V43.7599ZM61.9241 11.96C62.3941 11.96 62.8641 11.91 63.3241 11.96C64.7441 12.13 65.0541 11.41 65.0841 10.12C65.1741 6.31999 65.1741 6.26995 61.3441 6.44995C59.0508 6.56328 58.1841 7.6533 58.7441 9.71997C58.8341 10.05 58.8641 10.4099 58.8641 10.7599C58.8641 11.6699 59.3641 11.97 60.1841 11.95C60.7641 11.94 61.3441 11.95 61.9241 11.95V11.96ZM7.8241 40.5499C7.8241 41.1899 7.73409 41.68 7.84409 42.11C8.03409 42.88 8.34409 43.61 8.59409 44.36C9.24409 44.05 9.92411 43.7799 10.5541 43.4199C11.0541 43.1399 11.4441 42.61 11.9641 42.46C14.2141 41.8 13.9741 40.17 13.6341 38.47C13.5941 38.25 13.4441 38.05 13.4041 37.83C13.2941 37.28 13.2041 36.7199 13.1141 36.1699C12.4641 36.3099 11.6441 36.24 11.2041 36.62C9.85411 37.79 7.1441 37.8999 7.8241 40.5499ZM118.214 36.0399C117.944 36.2299 117.674 36.32 117.654 36.45C117.414 37.91 116.854 39.4499 117.134 40.8099C117.304 41.6099 118.834 42.1099 119.734 42.7799C120.374 43.2599 120.994 43.7899 121.614 44.2999C122.134 44.7299 122.414 44.51 122.524 43.95C122.844 42.3899 123.154 40.8399 123.444 39.2799C123.474 39.0999 123.424 38.79 123.314 38.72C121.614 37.8 119.894 36.9199 118.214 36.0499V36.0399ZM65.0641 16.1799C65.0641 15.4899 65.0441 14.8 65.0641 14.11C65.1141 13.05 64.5641 12.69 63.5841 12.75C63.0141 12.79 62.4241 12.7099 61.8641 12.7899C59.8241 13.0999 59.2841 13.8799 59.7141 15.8199C59.8841 16.5899 60.2141 17.36 60.2241 18.13C60.2341 19.35 60.7641 19.67 61.9041 19.7C65.0541 19.78 65.0541 19.8299 65.0641 16.5199C65.0641 16.3999 65.0641 16.2899 65.0641 16.1699V16.1799ZM124.534 64.83C124.534 64.36 124.584 64.1099 124.534 63.8999C124.314 63.0399 124.294 61.6699 123.774 61.4399C122.554 60.8899 122.644 62.4799 122.074 63.0699C121.034 64.1499 119.574 65.15 119.174 66.46C118.784 67.74 119.494 69.3499 119.714 70.8199C119.734 70.9299 119.714 71.0499 119.724 71.1699C119.754 71.8399 120.074 72.0299 120.524 71.5199C121.354 70.5699 122.054 69.49 122.924 68.58C124.014 67.45 124.964 66.32 124.544 64.84L124.534 64.83ZM69.9841 6.5V6.44995C69.4041 6.44995 68.8241 6.49994 68.2541 6.43994C66.8641 6.28994 66.4041 6.96 66.5041 8.25C66.5641 9.05 66.5241 9.85992 66.5241 10.6699C66.5241 11.4899 66.8541 11.97 67.7341 11.96C68.4241 11.96 69.1141 11.97 69.8041 11.96C71.9741 11.93 72.2541 11.7099 72.7441 9.52991C72.8441 9.08991 72.7741 8.57994 72.9641 8.18994C73.4941 7.12994 72.9641 6.6699 72.0541 6.5199C71.3841 6.4099 70.6741 6.5 69.9841 6.5ZM55.6341 7.1499C54.0041 7.4399 52.7741 7.68999 51.5241 7.85999C50.3341 8.01999 50.2641 8.72997 50.6441 9.58997C51.1941 10.83 51.5541 12.3699 52.5141 13.1399C53.0941 13.6099 54.6441 12.8499 55.7641 12.6699C56.1041 12.6099 56.4941 12.72 56.8041 12.6C57.4541 12.35 58.0641 12.07 57.6641 11.1C57.2841 10.16 57.2041 9.07991 56.7841 8.15991C56.5541 7.65991 55.8741 7.35991 55.6341 7.15991V7.1499ZM115.694 40.2999C115.524 40.4199 115.974 40.2699 116.014 40.0499C116.264 38.7199 116.824 37.2699 116.504 36.0699C116.104 34.5299 114.314 35.32 113.154 34.98C112.934 34.92 112.744 34.7399 112.534 34.6799C110.324 34.1499 108.734 35.66 109.274 37.84C109.394 38.32 109.874 38.9299 110.314 39.0599C111.934 39.5399 113.614 39.8399 115.684 40.2899L115.694 40.2999ZM21.7341 36.6799C21.4441 34.4899 21.0141 34.12 19.0441 34.48C17.9241 34.68 16.8141 34.9099 15.7141 35.1799C15.4141 35.2499 14.9441 35.4699 14.9141 35.6799C14.6641 37.1699 14.5041 38.78 15.5641 39.95C15.8941 40.31 17.1441 39.89 17.9641 39.75C18.7441 39.62 19.5141 39.3899 20.2841 39.1899C21.7841 38.7999 21.9741 38.4599 21.7441 36.6799H21.7341ZM44.7041 15.62C44.6641 15.37 44.6641 15.2599 44.6341 15.1499C43.3641 11.5999 41.1341 10.81 37.8341 12.75C36.1941 13.71 36.1441 14.2699 37.5941 15.5199C37.8541 15.7399 38.1341 15.94 38.4241 16.13C39.3341 16.75 40.2441 17.84 41.1541 17.83C42.1341 17.83 43.1141 16.7899 44.0741 16.1799C44.3341 16.0199 44.5341 15.77 44.7141 15.62H44.7041ZM84.9241 15.0699C84.9241 15.0699 85.1941 14.9599 85.3641 14.7699C85.7441 14.3399 86.0641 13.8599 86.4241 13.4099C87.1041 12.5499 87.7941 11.69 88.4741 10.83C87.4141 10.4 86.3741 9.90992 85.2941 9.53992C82.5741 8.59992 82.5441 8.61 81.1041 11.13C80.7141 11.81 80.4741 12.59 80.2441 13.35C80.1941 13.53 80.4341 13.9599 80.6141 14.0099C81.9341 14.3799 83.2841 14.6799 84.9241 15.0699ZM90.3641 11.38C90.0641 11.52 89.7141 11.61 89.4741 11.83C88.7941 12.46 88.1141 13.0999 87.5141 13.8099C85.9841 15.6299 86.0341 15.7999 88.2041 16.8999C89.8508 17.7332 91.3608 17.4799 92.7341 16.1399C93.3141 15.5699 93.9241 15.0299 94.4741 14.4299C94.6441 14.2399 94.7641 13.6699 94.7041 13.6399C93.2841 12.8699 91.8441 12.1499 90.3541 11.3899L90.3641 11.38ZM12.5041 66.5099C12.3941 66.3699 12.2041 66.11 11.9941 65.88C10.8341 64.6 9.68412 63.3099 8.49412 62.0499C8.18412 61.7199 7.76412 61.5 7.40412 61.23C7.29412 61.66 7.15409 62.0899 7.09409 62.5299C6.91409 63.7599 6.2641 65.2399 6.7241 66.1599C7.5841 67.8799 9.0841 69.2699 10.3541 70.7699C10.4941 70.9299 11.1041 70.9599 11.1141 70.9299C11.5941 69.5199 12.0241 68.0999 12.5141 66.5099H12.5041ZM56.9141 20.34L56.9741 20.5199C57.7441 20.3499 58.8541 20.4099 59.1841 19.9299C59.4941 19.4799 58.9341 18.4699 58.8241 17.6899C58.7441 17.1199 58.8341 16.52 58.7541 15.95C58.4341 13.71 57.8841 13.38 55.6141 13.96C55.1741 14.07 54.7041 14.0999 54.2441 14.1499C53.2841 14.2399 53.1341 14.88 53.3341 15.63C53.7541 17.17 54.2141 18.71 54.7441 20.22C54.8541 20.52 55.3541 20.87 55.6641 20.86C56.0841 20.86 56.4941 20.52 56.9141 20.33V20.34ZM73.8141 13.3999C73.5541 13.6699 73.0441 13.96 72.9041 14.38C72.6241 15.23 72.5941 16.1599 72.3841 17.0399C71.7341 19.8199 71.8941 19.92 74.6941 20.48C75.7841 20.69 76.3841 20.76 76.6841 19.59C77.0841 18.05 77.5241 16.53 77.9041 14.99C77.9641 14.75 77.8441 14.25 77.7141 14.22C76.5041 13.92 75.2841 13.6899 73.8041 13.3899L73.8141 13.3999ZM46.3541 15.1699C48.0041 14.6499 49.4241 14.22 50.8141 13.73C50.9141 13.69 50.9141 13.0899 50.8041 12.8199C50.4941 12.0799 50.0941 11.3699 49.7241 10.6499C48.6441 8.5399 48.6241 8.49991 46.4941 9.27991C45.3141 9.70991 44.2041 10.33 43.0641 10.86C43.8141 11.97 44.5441 13.1099 45.3341 14.1899C45.6641 14.6299 46.1441 14.9699 46.3541 15.1599V15.1699ZM81.1541 8.47998C80.8441 8.25998 80.6141 7.97993 80.3441 7.92993C78.8941 7.64993 77.4441 7.41994 75.9841 7.18994C74.9141 7.01994 74.1641 7.28996 74.1941 8.57996C74.1941 8.90996 74.0941 9.25996 74.0141 9.57996C73.4641 11.64 73.7641 12.22 75.7241 12.63C76.5041 12.79 77.3041 12.8299 78.1041 12.8999C78.3941 12.9299 78.8841 12.98 78.9541 12.85C79.7041 11.45 80.3941 10.01 81.1441 8.47998H81.1541ZM36.1241 21.62C36.6741 21.13 37.2141 20.57 37.8341 20.1C39.9941 18.44 40.0041 18.45 37.9541 16.97C37.4841 16.63 37.0041 16.32 36.5541 15.96C35.2474 14.9333 34.0008 14.9633 32.8141 16.0499C32.4741 16.3599 32.1641 16.7199 31.8041 17.0099C30.9841 17.6799 30.8841 18.24 31.9041 18.84C33.0941 19.54 34.2441 20.3199 35.4041 21.0699C35.5941 21.1999 35.7741 21.35 36.1341 21.62H36.1241ZM14.6941 32.61C14.8741 32.99 15.1841 33.9699 15.3641 33.9399C17.1641 33.7099 18.9641 33.3799 20.7241 32.9299C21.1241 32.8299 21.5841 32.2399 21.6741 31.7999C22.3241 28.8199 22.2941 28.8099 19.4641 28.8099C18.6541 28.8099 17.8341 28.9099 17.0341 28.8099C15.8041 28.6599 15.3941 29.48 15.0841 30.36C14.8541 31 14.8441 31.7 14.6941 32.61ZM68.1141 19.6399V19.72C68.8141 19.67 69.7641 19.8799 70.1341 19.5099C70.6141 19.0199 70.6141 18.0599 70.8541 17.3199C70.9641 16.9899 71.2241 16.7 71.2941 16.37C71.4841 15.49 72.0041 14.0399 71.6841 13.7999C70.8141 13.1799 69.5941 12.9399 68.4841 12.7899C66.9241 12.5799 66.2041 13.29 66.1541 14.98C66.1141 16.32 66.1741 17.6699 66.2441 19.0099C66.2541 19.2299 66.5341 19.56 66.7341 19.61C67.1841 19.7 67.6641 19.6399 68.1241 19.6399H68.1141ZM100.494 18.0199C100.394 17.8299 100.334 17.59 100.174 17.46C99.1841 16.68 98.2041 15.8699 97.1541 15.1799C96.8541 14.9799 96.1941 14.9699 95.9141 15.1799C94.6241 16.1299 93.4041 17.17 92.1741 18.2C92.0341 18.31 91.9441 18.5999 91.9841 18.7799C92.2341 20.0699 95.0241 21.48 96.2241 20.84C97.5441 20.15 98.7841 19.3199 100.054 18.5299C100.234 18.4199 100.344 18.18 100.494 18V18.0199ZM84.2741 16.63C84.2441 16.57 84.1841 16.3099 84.0541 16.2699C82.6541 15.7999 81.2441 15.3599 79.8341 14.9199C79.3641 15.9099 78.8641 16.8899 78.4341 17.8999C78.1641 18.5299 77.8941 19.18 77.7841 19.85C77.5841 21 78.3441 21.5499 79.3041 21.8199C79.9041 21.9899 80.9641 22.2799 81.1141 22.0599C82.2541 20.3399 83.2141 18.5 84.2741 16.63ZM112.334 28.83V28.7999C111.864 28.7999 111.404 28.7799 110.934 28.7999C109.344 28.8799 108.894 29.48 109.254 30.97C109.764 33.08 111.574 33.26 113.224 33.6C114.304 33.83 115.414 33.8999 116.504 34.0399C116.374 32.9199 116.204 31.7899 116.114 30.6699C116.014 29.3799 115.324 28.82 114.074 28.83C113.494 28.83 112.914 28.83 112.334 28.83ZM50.3341 22.3099C51.5241 22.0199 52.5141 21.7999 53.4941 21.5299C53.6241 21.4899 53.8041 21.12 53.7441 20.97C53.1041 19.13 52.4641 17.28 51.7341 15.47C51.6341 15.22 50.9541 14.98 50.6641 15.09C49.4841 15.5 48.3541 16.0399 47.2041 16.5399C47.6341 17.4799 48.0441 18.42 48.5041 19.35C48.9041 20.18 49.3341 20.9999 49.7941 21.7999C49.9441 22.0599 50.2341 22.2299 50.3341 22.3199V22.3099ZM89.3541 19.3099C89.2741 19.1499 89.2541 19.01 89.1641 18.96C88.1141 18.31 87.0941 17.5399 85.9541 17.1399C85.6941 17.0499 84.9441 18.1699 84.4941 18.7799C84.0141 19.4199 83.5541 20.0799 83.1941 20.7899C82.3141 22.5199 82.4741 22.91 83.9341 23.87C85.1641 24.67 85.8741 24.4299 86.5741 23.1399C87.1641 22.0499 88.0541 21.12 88.8141 20.11C89.0141 19.85 89.1941 19.5699 89.3641 19.3199L89.3541 19.3099ZM34.9241 22.35C34.8141 22.16 34.7441 21.8799 34.5741 21.7899C32.9841 20.8899 31.3741 20.0099 29.7641 19.1599C29.6041 19.0699 29.2141 19.1 29.1241 19.22C28.3341 20.3 27.5741 21.4099 26.8141 22.5199C27.4741 22.8699 28.1341 23.2199 28.7941 23.5599C29.7141 24.0299 30.6241 24.5199 31.5741 24.9199C32.5941 25.3599 35.0741 23.42 34.9141 22.35H34.9241ZM100.994 19.1599C99.6441 19.9699 98.0541 20.91 96.4941 21.87C96.3541 21.95 96.2041 22.29 96.2641 22.38C96.8341 23.24 97.3441 24.19 98.0941 24.84C98.4041 25.11 99.3241 24.81 99.9041 24.6C101.094 24.17 102.264 23.66 103.394 23.1C103.744 22.93 104.164 22.5199 104.194 22.1899C104.284 21.2099 102.134 19.0399 100.984 19.1599H100.994ZM29.5441 88.2999C29.3041 86.5899 29.1641 85.2499 27.6641 84.5299C26.1041 83.7799 24.5941 82.9499 23.0641 82.1399C22.2641 81.7099 21.4841 81.2499 20.6841 80.8099C20.8241 81.7799 20.8041 82.81 21.1441 83.71C21.3941 84.38 22.0141 85.0399 22.6341 85.3999C24.5441 86.4699 26.5241 87.41 28.4941 88.36C28.7341 88.47 29.0941 88.3399 29.5341 88.2999H29.5441ZM110.564 82.1699L110.424 81.0299C110.064 81.1499 109.684 81.2299 109.344 81.3999C107.384 82.3899 105.424 83.3799 103.494 84.4299C103.024 84.6799 102.434 85.0699 102.294 85.5099C101.994 86.4699 101.454 88.0099 101.884 88.4299C102.864 89.3999 103.454 87.6899 104.374 87.3899C105.674 86.9699 106.814 86.0399 108.104 85.5699C109.814 84.9399 110.114 83.4999 110.564 82.1699ZM27.9841 18.73C27.5941 18.37 27.3341 17.92 26.9841 17.83C25.6641 17.5 24.1841 16.8399 23.0041 17.1799C22.0041 17.4599 21.3441 18.94 20.5241 19.88C20.2241 20.23 19.8941 20.5599 19.5841 20.8999C19.1441 21.3899 19.2141 21.69 19.9141 21.73C21.0641 21.79 22.3541 21.53 23.3441 21.96C24.5841 22.5 25.2941 22.2799 26.0141 21.3199C26.6341 20.4999 27.2641 19.68 27.9941 18.72L27.9841 18.73ZM13.3341 29.2799C12.1441 29.8399 11.2341 30.3 10.2941 30.71C9.4341 31.09 8.6341 31.47 8.5041 32.58C8.3441 33.92 8.10411 35.25 7.89411 36.58C9.09411 36.15 10.2941 35.7099 11.4941 35.2899C11.8141 35.1799 12.1941 35.16 12.4641 34.97C12.7941 34.74 13.1841 34.4199 13.2841 34.0599C13.5841 32.9699 13.8241 31.86 13.9341 30.73C13.9741 30.32 13.5841 29.8599 13.3241 29.2699L13.3341 29.2799ZM48.7041 22.6699C48.6041 22.4599 48.5041 22.2499 48.4041 22.0399C47.8941 20.9999 47.4141 19.9399 46.8841 18.9099C45.7641 16.7199 45.7541 16.72 43.6041 17.86C43.2941 18.02 42.9941 18.19 42.6841 18.36C41.8741 18.81 41.9041 19.49 42.3241 20.12C42.8941 20.99 43.5941 21.76 44.2041 22.61C45.5241 24.47 46.5941 24.6199 48.3541 23.1499C48.5041 23.0299 48.5941 22.8299 48.7141 22.6699H48.7041ZM21.0741 23.2599C20.4541 23.1599 19.7841 23.02 19.1141 22.95C18.8541 22.93 18.4241 22.9999 18.3341 23.1699C17.6641 24.4399 17.0641 25.7399 16.4341 27.0199C17.5541 27.1299 18.6741 27.26 19.7941 27.35C20.3641 27.39 20.9441 27.34 21.5241 27.37C22.4441 27.42 23.0041 27.17 23.2041 26.12C23.3241 25.5 23.9141 24.97 24.2441 24.38C24.6341 23.67 24.2741 23.2999 23.5741 23.2599C22.7741 23.2099 21.9641 23.25 21.0941 23.25L21.0741 23.2599ZM117.634 31.61C117.064 33.88 118.264 35.04 120.244 35.71C121.164 36.02 122.074 36.3499 122.984 36.6699C122.964 35.5399 123.134 34.3599 122.874 33.2899C122.254 30.7999 119.954 30.31 117.924 29.58C117.804 29.54 117.324 30.0199 117.304 30.2799C117.284 30.7099 117.504 31.15 117.634 31.62V31.61ZM90.8541 19.6899C90.3041 20.1699 89.8841 20.4199 89.6341 20.7799C88.8441 21.9099 88.1341 23.1 87.3441 24.23C86.7741 25.03 86.6841 25.7599 87.5741 26.2899C88.3841 26.7699 89.1941 27.6599 90.2141 26.3899C91.1341 25.2399 92.2841 24.2699 93.2941 23.1899C93.5041 22.9599 93.7241 22.3899 93.6241 22.2899C92.7541 21.3999 91.8141 20.58 90.8441 19.7L90.8541 19.6899ZM111.684 21.4299C111.534 21.0999 111.484 20.8599 111.334 20.6799C110.464 19.6099 109.584 18.5499 108.664 17.5299C108.484 17.3299 108.044 17.2099 107.784 17.2699C106.244 17.6599 104.724 18.1099 103.204 18.5399C104.034 19.6099 104.834 20.7 105.704 21.73C105.944 22.01 106.424 22.25 106.774 22.22C108.134 22.12 109.494 21.91 110.854 21.71C111.134 21.67 111.394 21.5199 111.674 21.4199L111.684 21.4299ZM31.5441 26.7699C31.2641 26.4399 30.9341 25.78 30.4041 25.49C29.4041 24.94 28.2741 24.6399 27.2341 24.1799C26.1641 23.6999 25.4741 23.9499 25.0541 25.0499C24.8441 25.5899 24.5541 26.09 24.2741 26.6C23.8441 27.37 23.9141 27.8399 24.9041 28.0499C26.1341 28.3099 27.3441 28.6599 28.5541 29.0199C30.2441 29.5199 31.4541 28.7499 31.5541 26.7799L31.5441 26.7699ZM65.0641 24.7C65.0641 23.89 65.1341 23.0699 65.0341 22.2599C64.9841 21.8799 64.7141 21.33 64.3941 21.2C62.2841 20.33 60.8641 21.33 60.9941 23.63C61.0441 24.64 61.3041 25.6599 61.5941 26.6399C61.9741 27.9299 62.7241 28.25 64.1441 28C65.3841 27.78 64.9941 26.83 65.0641 26.09C65.1141 25.63 65.0641 25.16 65.0641 24.7ZM107.394 27.61C106.774 24.5 105.254 23.6899 102.484 24.7899C102.054 24.9599 101.644 25.1799 101.234 25.3899C99.3241 26.3399 99.1041 27.1099 100.434 28.6899C100.734 29.0399 101.444 29.31 101.884 29.22C103.564 28.9 105.224 28.44 106.874 28C107.094 27.94 107.274 27.7 107.394 27.62V27.61ZM111.594 27.6499L111.674 27.37C112.134 27.37 112.594 27.39 113.054 27.37C114.804 27.28 114.924 26.89 114.384 25.24C113.664 23.04 111.994 23.07 110.234 23.2C109.234 23.27 108.234 23.46 107.234 23.6C107.654 24.64 107.834 25.9399 108.584 26.6499C109.274 27.3099 110.564 27.3499 111.594 27.6599V27.6499ZM40.2741 19.96C39.5041 20.45 38.8241 20.8699 38.1441 21.3099C37.4741 21.7499 37.1641 22.1599 37.8841 22.9199C38.9941 24.0899 39.9541 25.39 41.0341 26.59C41.3141 26.9 41.8141 27.2399 42.1741 27.1899C43.4541 27.0399 44.4641 25.05 43.7641 23.99C42.9341 22.74 41.9541 21.5999 41.0041 20.4399C40.8141 20.1999 40.4641 20.09 40.2641 19.96H40.2741ZM2.96412 44.5199C3.24412 46.3399 3.42411 47.6799 3.67411 49.0099C3.69411 49.1399 4.27409 49.3299 4.31409 49.2699C5.39409 47.9599 6.94411 46.74 7.33411 45.23C7.68411 43.9 6.7641 42.22 6.3541 40.71C6.3141 40.56 5.7441 40.38 5.6641 40.45C4.4141 41.76 3.2541 43.1399 2.9441 44.5199H2.96412ZM108.404 32.0199C108.414 29.7699 107.804 29.18 105.894 29.5C104.674 29.71 103.464 30.08 102.284 30.49C101.834 30.65 101.194 31.12 101.174 31.47C101.134 32.24 101.414 33.0299 101.614 33.7999C101.634 33.8899 101.974 33.9799 102.144 33.95C103.934 33.6199 105.744 33.3199 107.514 32.8899C107.924 32.7899 108.214 32.1999 108.404 32.0099V32.0199ZM106.754 15.8099C106.624 15.6199 106.534 15.3899 106.354 15.2599C105.624 14.7099 104.864 14.2099 104.144 13.6499C102.264 12.1899 100.724 12.14 98.6141 13.45C97.9341 13.87 97.9541 14.3599 98.4741 14.7999C99.0741 15.3199 99.8141 15.6799 100.414 16.1899C101.264 16.9099 101.864 17.9599 103.324 17.0399C104.244 16.4599 105.474 16.3599 106.554 16.0299C106.634 16.0099 106.684 15.8799 106.754 15.8099ZM57.8041 21.7599C57.1741 21.7999 56.6641 21.7299 56.2641 21.8999C55.9441 22.0399 55.4741 22.5199 55.5241 22.7599C55.8441 24.3099 56.4041 25.8199 56.6441 27.3899C56.8441 28.6799 57.5541 28.83 58.5741 28.7C59.6741 28.57 60.2641 27.91 60.1441 26.83C60.0141 25.59 59.5241 24.3599 59.5641 23.1399C59.6141 21.4599 58.9641 21.2599 57.7941 21.7699L57.8041 21.7599ZM127.984 45.8899C128.424 43.5999 126.994 41.97 125.324 40.47C125.214 40.38 124.654 40.5399 124.634 40.6399C124.234 43.1299 122.744 45.7799 125.664 47.8099C126.234 48.2099 126.654 48.82 127.144 49.34C127.424 48.6 127.744 47.88 127.974 47.12C128.074 46.8 127.994 46.43 127.994 45.88L127.984 45.8899ZM69.9741 24.12C70.0041 23.76 69.9541 22.9199 70.1941 22.1699C70.4241 21.4199 70.3541 21.11 69.5541 21.1C68.6241 21.1 67.6941 21.09 66.7641 21.1C66.0841 21.1 66.2141 21.46 66.2441 22C66.3241 23.79 66.2241 25.59 66.2441 27.38C66.2441 27.59 66.5241 27.94 66.7241 27.98C69.3841 28.48 69.9141 28.0299 69.9841 25.2799C69.9841 25.0499 69.9841 24.81 69.9841 24.13L69.9741 24.12ZM29.2041 17.21C29.2041 17.21 29.4041 17.21 29.5641 17.08C30.7441 16.16 31.9141 15.2399 33.0441 14.2799C33.1841 14.1599 33.1541 13.5399 33.0841 13.5099C31.7041 13.0699 30.1241 12.0699 28.9741 12.4299C27.3141 12.9399 25.9641 14.4499 24.5041 15.5599C24.4441 15.5999 24.5741 16.08 24.6741 16.1C26.1041 16.48 27.5541 16.81 29.2041 17.21ZM103.894 38.5C104.474 38.5 105.044 38.51 105.624 38.5C107.664 38.45 108.494 37.6099 108.364 35.5599C108.334 35.1599 107.734 34.46 107.444 34.48C105.634 34.63 103.844 34.93 102.044 35.22C101.874 35.25 101.654 35.51 101.614 35.7C101.444 36.56 101.324 37.4399 101.184 38.3099C101.854 38.3699 102.524 38.44 103.204 38.5C103.434 38.52 103.664 38.5 103.894 38.5ZM29.6141 31.21C29.6141 31.21 29.3641 30.5 28.9241 30.34C27.4441 29.8 25.8841 29.4799 24.3641 29.0299C23.6341 28.8099 23.3741 29.0799 23.1941 29.7599C22.4041 32.6299 22.3841 32.64 25.4041 33.36C26.5041 33.62 27.6241 33.7899 28.7541 33.9299C28.9541 33.9599 29.3441 33.6999 29.3941 33.5199C29.5241 32.9699 29.5241 32.4 29.6241 31.21H29.6141ZM99.8241 11.0099C99.5741 10.8399 99.3541 10.6399 99.0941 10.5099C97.7541 9.81989 96.4141 9.11998 95.0541 8.47998C93.8841 7.93998 91.6641 8.75989 91.3741 10.0099C91.0741 11.2999 92.6141 11.0499 93.2041 11.6499C93.3541 11.7999 93.6141 11.85 93.8241 11.96C95.8241 12.9733 97.6508 12.8666 99.3041 11.6399C99.4841 11.5099 99.5941 11.2899 99.8241 11.0099ZM26.8341 38.5C27.6341 38.5 28.4441 38.54 29.2441 38.47C29.4341 38.45 29.7441 38.1099 29.7541 37.8999C29.8241 36.2199 29.0641 35.3499 27.4041 35.0499C26.8541 34.9499 26.3141 34.75 25.7641 34.62C22.7741 33.91 22.4641 34.2899 23.1341 37.2599C23.3741 38.3099 23.8441 38.5499 24.7641 38.5099C25.4541 38.4699 26.1441 38.5099 26.8341 38.5099V38.5ZM35.8741 23.2999C35.2641 24.2099 34.6241 25.13 34.0241 26.09C33.9741 26.18 34.1341 26.49 34.2641 26.59C35.7341 27.7 37.1741 28.83 38.7141 29.83C39.0041 30.02 39.7741 29.75 40.1541 29.46C40.5341 29.17 41.0041 28.2599 40.9141 28.1799C39.4041 26.7899 38.8941 24.46 36.7241 23.7C36.5041 23.62 36.3041 23.5099 35.8641 23.2999H35.8741ZM80.5541 23.87C79.8641 23.54 79.1341 23.19 78.3941 22.83C77.8241 22.55 77.2441 22.4199 77.0241 23.1899C76.5241 24.9199 75.9541 26.6499 75.6941 28.4199C75.5241 29.5899 76.8241 29.73 77.6241 29.95C77.9441 30.04 78.7041 29.4799 78.8641 29.0599C79.4741 27.4799 79.9241 25.84 80.5541 23.86V23.87ZM53.8441 22.3999C52.6741 22.8099 51.6241 23.03 50.8141 23.58C50.6041 23.73 51.1041 24.9699 51.3341 25.6799C51.6141 26.5499 51.9741 27.3999 52.2841 28.2599C52.9541 30.0999 52.9441 30.07 54.7741 29.47C55.3141 29.29 55.8341 29.42 55.5541 28.45C55.0741 26.81 54.8941 25.0899 54.5241 23.4099C54.4441 23.0499 54.0941 22.74 53.8441 22.38V22.3999ZM73.8641 21.7799C71.6441 21.6699 71.5741 21.7499 71.4141 23.9299C71.3441 24.8299 71.3841 25.81 71.0341 26.61C70.3941 28.09 71.6441 28.12 72.3341 28.48C73.0841 28.87 73.9441 28.94 74.2541 27.84C74.6141 26.54 74.9041 25.2199 75.2341 23.8999C75.7141 21.9599 75.6541 21.8599 73.8741 21.7799H73.8641ZM94.9941 23.34C94.6741 23.53 94.4441 23.6099 94.2841 23.7599C93.1341 24.8999 91.9541 26.02 90.8941 27.24C90.6141 27.56 90.4941 28.33 90.6841 28.72C91.6441 30.71 92.0141 30.7299 93.6641 29.1599C94.5041 28.3599 95.3341 27.5499 96.2241 26.8199C96.6441 26.4699 97.4741 26.3 97.0341 25.61C96.4841 24.76 95.6741 24.07 94.9941 23.34ZM102.894 43.3899C103.174 43.3999 103.714 43.28 104.094 43.48C105.214 44.07 105.754 43.66 106.104 42.6C106.254 42.16 106.484 41.76 106.714 41.35C107.174 40.52 106.754 40.2299 106.044 39.7899C104.084 38.5599 102.504 40.14 100.804 40.47C100.264 40.57 99.9641 41.9699 99.5541 42.7799C100.264 42.9899 100.954 43.22 101.674 43.38C102.004 43.46 102.364 43.3899 102.904 43.3899H102.894ZM36.9741 7.92993C35.8041 8.48993 34.8541 8.8899 33.9441 9.3999C32.9941 9.9299 32.1041 10.55 31.1941 11.13C32.2541 11.75 33.2841 12.42 34.3741 12.95C34.6741 13.09 35.2341 12.89 35.5941 12.7C36.7941 12.04 37.9741 11.34 39.1341 10.61C39.3341 10.48 39.5641 9.97996 39.5241 9.95996C38.6641 9.23996 37.7641 8.55995 36.9641 7.94995L36.9741 7.92993ZM85.1641 5.03992C84.7341 5.60992 84.0841 6.24 83.7541 7C83.3141 8.03 84.4841 7.97993 84.9341 8.17993C86.0741 8.68993 87.3441 8.90998 88.5241 9.34998C89.1841 9.59998 89.7541 10.04 90.3941 9.34998C90.9441 8.75998 91.5041 8.17998 92.0641 7.59998C91.3141 7.19998 90.5941 6.70992 89.8041 6.41992C88.4041 5.92992 86.9641 5.55992 85.1741 5.03992H85.1641ZM51.5141 30.4199C50.8741 28.3799 50.3041 26.5299 49.7341 24.6899C49.5241 24.0199 49.1441 24.1799 48.7041 24.4399C48.3041 24.6699 47.8941 24.8799 47.4641 25.0399C46.3441 25.4699 46.1841 26.04 46.8241 27.13C47.5141 28.3 47.8541 29.6699 48.4441 30.8999C48.6441 31.3199 49.3441 31.94 49.5141 31.86C50.2641 31.49 50.9041 30.8899 51.5141 30.4299V30.4199ZM48.0641 7.3999C47.8141 7.0699 47.6541 6.89996 47.5341 6.70996C46.5641 5.23996 45.3641 4.89995 43.7141 5.69995C42.4841 6.29995 41.1141 6.62996 39.8141 7.07996C39.4941 7.18996 39.1641 7.2999 38.8441 7.3999C39.1341 7.7299 39.3841 8.11 39.7241 8.38C41.0541 9.47001 42.4641 9.6599 44.0741 8.8999C45.1041 8.4099 46.2441 8.1399 47.3241 7.7699C47.5741 7.6799 47.8041 7.53991 48.0741 7.40991L48.0641 7.3999ZM30.6241 44.25V44.2C30.3941 44.2 30.1441 44.15 29.9341 44.2C28.9541 44.4799 27.9941 44.79 27.0241 45.09C27.6041 46.03 28.1041 47.04 28.8241 47.87C29.1041 48.2 29.8741 48.2399 30.4041 48.1899C31.0741 48.1199 31.7341 47.86 32.3641 47.6C32.9641 47.35 33.5241 46.9899 34.0941 46.6899C33.5241 45.8799 33.0441 44.9599 32.3241 44.3099C32.0041 44.0199 31.2041 44.2599 30.6241 44.2599V44.25ZM58.5841 5.6499C60.8841 5.3599 62.5941 5.21 64.2741 4.88C64.6041 4.81 64.9341 4.06998 65.0241 3.59998C65.1541 2.83998 64.8541 2.1799 63.9241 2.2699C61.9941 2.4499 60.0641 2.67992 58.1441 2.91992C56.6941 3.09992 56.4941 3.46 57.3241 4.62C57.7241 5.17 58.4141 5.5199 58.5941 5.6499H58.5841ZM76.1341 3.16992C76.0041 3.45992 75.7641 3.99991 75.5041 4.52991C75.2241 5.06991 74.9841 5.56992 75.8541 5.78992C77.2741 6.14992 78.6841 6.54 80.1041 6.88C81.7741 7.29 82.9341 6.65989 83.5441 5.00989C83.6041 4.85989 83.3341 4.41989 83.1641 4.38989C80.9441 3.97989 78.7241 3.60992 76.1441 3.16992H76.1341ZM49.9541 7.04993C51.9241 6.72993 53.4141 6.58993 54.8341 6.17993C55.2841 6.04993 55.9041 5.01994 55.7641 4.68994C55.4841 4.01994 55.5041 2.70994 53.9741 3.18994C52.3441 3.69994 50.6341 3.93996 48.9641 4.32996C48.5641 4.42996 48.1941 4.66998 47.8041 4.84998C47.9941 5.24998 48.0841 5.7599 48.3841 6.0199C48.9641 6.5099 49.6541 6.85993 49.9441 7.04993H49.9541ZM19.5841 82.2999C19.6941 80.7599 19.5341 79.8099 18.2841 79.0599C16.6241 78.0699 15.1741 76.7199 13.6241 75.5399C13.4441 75.3999 13.2341 75.32 13.0341 75.2C12.9341 75.49 12.6841 75.83 12.7541 76.08C12.9641 76.82 13.1141 77.71 13.6241 78.21C15.1841 79.73 16.8941 81.0999 18.5541 82.5099C18.7941 82.7099 19.1241 82.81 19.4041 82.95L19.5841 82.2899V82.2999ZM94.8841 53.48C94.7441 53.3 94.6341 53.06 94.4441 52.95C92.0841 51.54 89.2041 51.6899 87.3741 53.3199C87.2541 53.4299 87.1441 53.69 87.1841 53.84C87.4241 54.68 89.6941 56.28 90.4941 55.95C91.9641 55.35 93.3241 54.49 94.7341 53.73C94.8041 53.69 94.8341 53.56 94.8841 53.47V53.48ZM100.334 44.1599C98.6141 43.9499 97.9041 45.32 97.0141 46.34C96.9041 46.46 97.0941 47.1099 97.2341 47.1499C98.7641 47.5299 100.414 48.31 101.814 48C102.924 47.75 103.734 46.14 104.674 45.13C103.684 44.86 102.704 44.5599 101.714 44.3199C101.264 44.2099 100.794 44.2199 100.334 44.1699V44.1599ZM37.0841 33.58C37.2941 33.41 37.6041 33.2599 37.7741 33.0199C38.3941 32.0999 38.7741 31.18 37.6141 30.33C36.5941 29.59 35.5541 28.8499 34.6141 28.0099C33.8241 27.3099 33.2141 27.3099 32.5941 28.1499C31.6841 29.3699 31.6841 30.05 32.6541 30.71C33.8841 31.55 35.1441 32.3599 36.3941 33.1799C36.5841 33.2999 36.7841 33.41 37.0941 33.58H37.0841ZM35.0741 48.34C34.4641 48.37 34.2141 48.3199 34.0041 48.3999C32.9941 48.8199 32.0041 49.27 31.0141 49.71C31.6741 50.31 32.3741 50.8699 32.9941 51.5099C33.9141 52.4599 34.8341 52.82 36.0641 51.99C36.7241 51.55 37.5241 51.29 38.2941 51.09C38.9341 50.93 39.0941 50.73 38.6341 50.24C37.5741 49.09 36.3241 48.31 35.0741 48.33V48.34ZM96.8241 48.2C94.9741 47.9 94.0041 49.12 92.9941 50.23C92.8441 50.39 92.7941 50.87 92.9241 51C94.0841 52.2 96.5641 52.5799 97.7841 51.6599C98.7141 50.9599 99.5241 50.0799 100.384 49.2799C99.2041 48.9199 98.0141 48.57 96.8341 48.21L96.8241 48.2ZM71.7841 5.63989C73.2041 5.85989 73.9341 5.13 74.3741 3.88C74.5441 3.39 74.7441 3.01994 74.0141 2.93994C71.9641 2.70994 69.9141 2.40993 67.8641 2.29993C67.2941 2.26993 66.7041 2.83 66.1241 3.12C66.5441 3.73 66.8541 4.7 67.4141 4.87C68.8141 5.31999 70.3241 5.39989 71.7941 5.63989H71.7841ZM121.504 29.0599C121.134 28.3399 120.654 27.6499 120.434 26.8899C119.804 24.7099 117.974 24.0099 116.154 23.2899C115.884 23.1799 115.414 23.2499 115.194 23.4299C115.014 23.5699 114.944 24.0299 115.014 24.2999C115.794 27.3599 118.074 28.6799 120.924 29.3199C121.084 29.3599 121.294 29.1699 121.514 29.0699L121.504 29.0599ZM99.5741 29.5199C98.9641 28.7899 98.5241 27.78 97.8441 27.58C96.8541 27.28 93.2641 30.5399 93.1641 31.6899C93.1241 32.1799 93.4341 32.7799 93.7741 33.1799C93.9141 33.3399 94.5941 33.18 94.9341 32.99C96.2341 32.28 97.5141 31.54 98.7541 30.73C99.0741 30.52 99.2241 30.0499 99.5641 29.5099L99.5741 29.5199ZM84.6441 25.8099C84.2841 25.5799 83.8841 25.1699 83.4141 25.0399C82.8141 24.8699 81.6741 24.7199 81.6041 24.8999C80.9241 26.5699 80.3341 28.2999 79.9541 30.0599C79.8741 30.4199 80.6841 31.0999 81.2141 31.4299C81.4641 31.5799 82.2641 31.36 82.3841 31.11C83.1741 29.47 83.8341 27.7699 84.6541 25.8099H84.6441ZM112.064 83.5C113.874 81.03 116.994 80.36 117.994 77.47C118.064 77.25 118.194 77.0299 118.174 76.8099C118.144 76.4899 118.104 76.0599 117.894 75.8899C117.724 75.7499 117.224 75.8 116.994 75.96C115.954 76.68 114.994 77.51 113.954 78.21C112.374 79.27 111.834 80.84 111.654 82.6C111.634 82.8 111.844 83.02 112.064 83.49V83.5ZM27.1941 39.96C26.3841 39.96 25.5641 39.95 24.7541 39.98C24.5541 39.98 24.2541 40.1099 24.1841 40.2699C23.9141 40.8599 25.7141 43.4599 26.4341 43.3999C27.9141 43.2599 29.3741 42.9599 30.8341 42.6899C30.9941 42.6599 31.1841 42.4399 31.2341 42.2699C31.4041 41.6699 30.2741 40.02 29.6341 39.98C28.8241 39.93 28.0041 39.97 27.1941 39.97V39.96ZM128.554 57.36C128.384 56.67 128.194 55.9099 128.004 55.1399C127.924 54.8199 127.814 54.51 127.714 54.2C127.444 54.4 127.074 54.5499 126.934 54.8099C126.284 56.0199 125.684 57.25 125.114 58.49C124.724 59.33 125.434 62.73 126.074 63.23C126.704 62.17 127.434 61.1599 127.934 60.0399C128.294 59.2399 128.354 58.29 128.554 57.35V57.36ZM2.90412 56.2999C2.86412 58.7499 3.7441 61.7199 4.7641 63.0499C4.8941 63.2199 5.14411 63.2999 5.33411 63.4199C5.43411 63.2299 5.56412 63.05 5.62412 62.86C6.67412 59.29 6.68411 59.2799 4.80411 55.6899C4.53411 55.1699 4.03411 54.7699 3.64411 54.3099C3.40411 54.9199 3.13411 55.5299 2.92411 56.1599C2.85411 56.3699 2.9141 56.6199 2.9141 56.2999H2.90412ZM10.2741 29.1799C12.3341 28.2899 14.8841 28.49 15.5241 25.75C15.6541 25.21 16.0441 24.73 16.2641 24.2C16.3741 23.94 16.3441 23.62 16.3841 23.33C16.0541 23.31 15.7041 23.2299 15.3841 23.2699C12.3541 23.7099 11.0741 25.98 10.0441 28.47C9.9741 28.64 10.1941 28.9399 10.2741 29.1699V29.1799ZM40.3041 51.6899C39.5541 51.8899 39.0741 51.9299 38.6841 52.1399C37.8041 52.5999 36.9641 53.1399 36.1141 53.6499C36.9241 54.0899 37.7241 54.55 38.5541 54.96C41.0841 56.23 42.0741 56.12 43.7341 54.37C43.8941 54.21 43.9041 53.5899 43.7841 53.5299C42.5941 52.8499 41.3641 52.2399 40.3041 51.6899ZM65.0641 31.7899H65.0341C65.0341 31.0999 65.0841 30.4 65.0141 29.71C64.9841 29.44 64.6041 28.96 64.5141 28.99C63.5741 29.3 61.9641 29.57 61.8741 30.08C61.6041 31.6 61.9441 33.2299 62.0641 34.8099C62.0641 34.8699 62.2441 34.92 62.3441 34.96C63.8341 35.57 65.0141 34.7999 65.0741 33.1799C65.0941 32.7199 65.0741 32.2499 65.0741 31.7899H65.0641ZM57.4741 32.95C57.4741 33.2 57.4941 33.78 57.4741 34.35C57.4341 35.38 57.9141 35.75 58.9341 35.73C60.6641 35.71 60.9341 35.5499 60.8441 33.7599C60.7941 32.7599 60.3941 31.7799 60.2841 30.7699C60.1641 29.7199 59.6141 29.25 58.6941 29.59C57.8941 29.89 56.4941 30.04 57.3841 31.59C57.5341 31.86 57.4441 32.2699 57.4841 32.9399L57.4741 32.95ZM75.6541 60.3899C77.5041 60.0199 78.9441 59.7399 80.3941 59.4299C81.2341 59.2499 81.1841 58.7199 80.7841 58.1799C79.8841 56.9499 78.7541 56.39 77.1941 56.97C76.4641 57.24 75.6541 57.32 74.8741 57.46C73.4841 57.7 73.2841 58.04 74.1441 59.2C74.5541 59.75 75.2441 60.0799 75.6641 60.3999L75.6541 60.3899ZM47.7041 32.2599C47.1541 30.7599 46.6841 29.36 46.1241 28C45.8241 27.26 45.4341 26.44 44.3641 26.95C43.2141 27.5 42.9041 28.35 43.4341 29.36C44.1041 30.67 44.7641 31.9699 45.4341 33.2799C45.7941 33.9799 46.7741 34.0899 47.2241 33.4299C47.4641 33.0699 47.5641 32.62 47.7141 32.25L47.7041 32.2599ZM84.9841 54.62C83.7841 55.07 82.4941 55.5399 81.2241 56.0499C80.5341 56.3299 80.9341 56.6699 81.1941 57.0599C82.4141 58.8999 82.4041 58.8999 84.7341 58.1599C85.7141 57.8499 86.7341 57.61 87.6741 57.22C87.8441 57.15 87.9441 56.2399 87.7941 56.1399C86.9441 55.5899 86.0041 55.16 84.9841 54.63V54.62ZM85.1441 34.08C85.3541 33.85 85.8141 33.58 85.8841 33.22C86.2141 31.57 86.9941 30.1799 88.1941 29.0299C88.9541 28.3099 88.2441 28.21 87.7941 27.88C85.7741 26.42 85.6441 26.44 84.7641 28.71C84.3941 29.68 83.9841 30.63 83.6241 31.6C83.3241 32.41 84.1241 33.88 85.1441 34.08ZM61.3541 60.86C62.2741 60.86 63.2141 60.9699 64.1041 60.8099C64.4741 60.7399 64.9441 60.0999 64.9841 59.6799C65.0341 59.2199 64.6541 58.3199 64.4241 58.2999C62.7141 58.1799 60.9741 58.1399 59.2741 58.3199C58.8541 58.3699 58.3041 59.29 58.2141 59.87C58.0641 60.83 58.9241 60.85 59.6241 60.86C60.2041 60.86 60.7741 60.86 61.3541 60.86ZM45.7541 54.58C45.0841 54.94 44.1641 55.3799 43.3341 55.9399C43.1941 56.0299 43.2941 56.91 43.4641 56.97C44.8341 57.53 46.2441 58.01 47.6641 58.45C48.7441 58.78 49.9241 57.9599 49.9741 56.7C49.9841 56.32 49.2141 55.7899 48.6941 55.5399C47.8741 55.1599 46.9641 54.9599 45.7541 54.5699V54.58ZM69.5941 60.8899V60.85C70.5241 60.85 71.4441 60.85 72.3741 60.85C73.2241 60.85 73.1041 60.4999 72.9741 59.7999C72.7441 58.5399 72.2141 58 70.9141 58.11C69.8841 58.2 68.8341 58.1099 67.7941 58.1699C66.9841 58.2099 65.9241 59.55 66.2441 60.34C66.3841 60.69 67.2941 60.7999 67.8641 60.8899C68.4241 60.9799 69.0141 60.9099 69.5941 60.9099V60.8899ZM55.0641 60.1499C55.4441 60.1499 55.6841 60.1899 55.9141 60.1499C56.8241 59.9799 57.3441 59.4 57.3641 58.48C57.3941 57.48 56.6241 57.4999 55.9241 57.4399C55.3541 57.3899 54.7841 57.34 54.2241 57.21C52.3241 56.78 51.1341 57.21 50.2341 58.73C50.1541 58.87 50.3541 59.3799 50.4841 59.4099C52.0541 59.6999 53.6341 59.9299 55.0641 60.1499ZM31.9641 31.58C31.5041 31.78 31.2341 31.81 31.1241 31.96C30.4741 32.82 31.0241 34.5199 32.0441 35.0299C33.0741 35.5499 34.0341 36.1799 35.0741 36.6699C35.4041 36.8299 36.1741 36.84 36.2241 36.71C36.4541 36.14 36.8041 35.1399 36.5641 34.9399C35.0741 33.6899 33.4341 32.6199 31.9741 31.5699L31.9641 31.58ZM53.2641 33.49C53.4041 34.07 53.6541 35.3 54.0441 36.49C54.1141 36.71 54.8041 36.93 55.1141 36.83C56.1841 36.5 56.9241 35.8499 56.6441 34.5499C56.4041 33.4399 56.2441 32.2999 55.9541 31.2C55.8841 30.95 55.4041 30.5999 55.1641 30.6399C53.4041 30.9099 53.2341 31.15 53.2641 33.49ZM71.3541 29.59C71.2241 29.76 70.8241 30.06 70.8041 30.37C70.7341 31.85 70.7041 33.34 70.7741 34.83C70.8241 35.8 71.7041 35.7899 72.3241 35.6699C72.7441 35.5899 73.3041 35.11 73.4041 34.71C73.7141 33.52 73.8741 32.2799 74.0041 31.0599C74.0341 30.8099 73.7941 30.3699 73.5641 30.2699C72.9441 29.9999 72.2741 29.87 71.3441 29.6L71.3541 29.59ZM100.014 32.83C99.9341 32.44 100.084 31.2899 99.0441 31.8099C97.5241 32.5699 96.1141 33.62 94.8241 34.73C94.4741 35.03 94.6841 35.9999 94.6441 36.6599C95.1341 36.6399 95.6841 36.75 96.1141 36.58C97.0741 36.2 97.9441 35.61 98.9141 35.25C100.014 34.83 100.164 34.04 100.024 32.83H100.014ZM69.2841 32.33H69.3341C69.3341 31.87 69.1841 31.33 69.3641 30.95C69.9441 29.7 69.5441 29.4599 68.2741 29.3899C66.5441 29.2899 66.5541 29.1399 66.5141 30.9199C66.4941 31.8499 66.7341 32.8699 66.4141 33.6799C65.9341 34.8999 66.3441 34.9499 67.3741 35.0699C69.2441 35.2799 69.2441 35.36 69.2841 33.72C69.2941 33.26 69.2841 32.79 69.2841 32.33ZM87.3741 36.2899C87.5741 36.2099 87.8541 36.1799 87.9641 36.0299C88.8941 34.7099 89.9741 33.45 90.6241 32C90.8741 31.44 90.1141 30.43 89.8241 29.62C89.3041 29.99 88.6041 30.25 88.2941 30.75C87.5641 31.93 86.9841 33.2 86.4041 34.46C86.0841 35.17 86.7441 36.3199 87.3741 36.2799V36.2899ZM77.7241 33.9099L77.6041 33.88C77.7441 33.34 78.0241 32.78 77.9741 32.25C77.9341 31.81 77.5441 31.0799 77.2441 31.0499C76.5341 30.9799 75.1841 31.18 75.1641 31.38C75.0041 32.94 74.9941 34.55 75.1841 36.1C75.2341 36.48 76.2041 36.9699 76.7941 37.0199C78.0541 37.1299 76.9741 36.0199 77.3941 35.5299C77.7141 35.1599 77.6341 34.4599 77.7341 33.8999L77.7241 33.9099ZM44.9341 34.98C44.2141 33.1 43.5841 31.2799 42.1041 29.9299C41.9441 29.7899 41.4341 29.81 41.2541 29.96C40.5541 30.54 39.8541 31.15 40.6341 32.2C41.4541 33.29 42.1741 34.4499 43.0041 35.5199C43.2241 35.7999 43.7741 36.1099 44.0241 36.0199C44.3841 35.8899 44.5941 35.39 44.9241 34.98H44.9341ZM20.5441 18.33C20.0341 17.96 19.8141 17.69 19.5341 17.63C17.6841 17.2 16.8241 18.65 15.8041 19.7C15.0541 20.47 14.4641 21.3999 13.8041 22.2599C14.9141 22.0799 16.2041 22.1999 17.0741 21.6499C18.3441 20.8399 19.3141 19.55 20.5341 18.33H20.5441ZM117.454 22.0399C116.344 20.7299 115.524 19.4499 114.404 18.5399C113.684 17.9499 112.544 17.83 111.564 17.6C111.024 17.48 110.744 17.75 111.064 18.36C112.394 20.87 113.594 21.7499 116.564 22.2799C116.774 22.3199 117.034 22.1599 117.454 22.0299V22.0399ZM81.4641 33.99C81.7341 33.61 79.7541 31.75 79.4141 31.88C79.3341 31.91 79.2541 32.04 79.2441 32.13C79.0141 33.9 78.7341 35.67 78.6441 37.45C78.6241 37.75 79.4541 38.35 79.8641 38.33C80.2741 38.31 80.9041 37.7399 81.0141 37.3099C81.2941 36.2399 81.3341 35.1 81.4641 33.99ZM52.5041 36.3099C52.4341 35.2699 52.4041 34.2599 52.2541 33.2799C52.2141 32.9999 51.8141 32.5299 51.6141 32.5499C50.9741 32.5999 50.3141 32.7599 49.7341 33.0399C49.5641 33.1199 49.5741 33.76 49.6541 34.11C49.8741 35.23 50.1241 36.3499 50.4541 37.4399C50.5641 37.7999 50.9341 38.0799 51.1841 38.3899C51.6041 38.0299 52.0841 37.7299 52.4041 37.2999C52.5841 37.0699 52.4841 36.6299 52.5141 36.3199L52.5041 36.3099ZM65.0541 38.62C65.0541 38.39 65.0341 38.1599 65.0541 37.9399C65.1641 36.6699 64.4341 36.44 63.3641 36.45C62.3141 36.4599 61.5541 36.6499 61.6541 37.9399C61.6941 38.3899 61.6641 38.8499 61.6541 39.3099C61.6441 40.1099 61.9441 40.54 62.8341 40.61C64.7241 40.76 65.0341 40.52 65.0441 38.63L65.0541 38.62ZM124.804 33.83C124.704 34.23 124.614 34.53 124.544 34.85C124.044 37.41 125.504 39.11 127.144 40.72C127.304 40.87 127.524 40.9599 127.724 41.0699C127.804 40.8599 127.994 40.6199 127.944 40.45C127.304 38.42 127.414 36.1 125.694 34.49C125.454 34.26 125.154 34.09 124.804 33.84V33.83ZM3.53409 39.3199L3.81409 40.2999C4.10409 40.1599 4.4041 40.05 4.6641 39.87C6.9741 38.37 6.14409 35.6899 7.0041 33.6399C6.7641 33.5799 6.3841 33.39 6.2941 33.48C4.7141 35.1 3.70409 36.9999 3.53409 39.3199ZM53.8841 97.22C54.2841 97.52 54.5041 97.83 54.7641 97.86C56.0241 98 57.2841 98.0699 58.5441 98.1699C60.3741 98.3099 62.1941 98.4899 64.0241 98.5599C64.3041 98.5699 64.6041 98.08 64.8941 97.83C64.6241 97.67 64.3741 97.38 64.0941 97.36C61.0041 97.13 57.8641 97.6799 54.8241 96.6799C54.6341 96.6199 54.3241 96.96 53.8941 97.21L53.8841 97.22ZM36.6941 39.7999C36.2941 39.1299 36.1541 38.5799 35.8241 38.3899C34.4241 37.5799 32.9741 36.8699 31.5141 36.1699C31.4141 36.1199 30.9141 36.56 30.9441 36.6C31.3841 37.47 31.6841 38.57 32.4041 39.08C33.2941 39.71 34.5341 39.8899 35.6441 40.1799C35.8941 40.2499 36.2341 39.9799 36.7041 39.7999H36.6941ZM100.034 36.5499C99.7641 36.4899 99.3041 36.22 99.0541 36.35C97.6541 37.08 96.2641 37.86 94.9441 38.73C94.6641 38.91 94.6741 39.5199 94.5441 39.9399C94.8941 39.9799 95.2641 40.1199 95.5841 40.0399C96.5641 39.7999 97.5241 39.42 98.5141 39.2C99.7941 38.91 100.074 38.0299 100.034 36.5499ZM84.5941 35.63C84.2741 35.29 83.6741 34.6599 83.0741 34.0299C82.9141 34.5999 82.7441 35.18 82.5841 35.75C82.3741 36.52 82.0041 37.2799 82.0041 38.0499C82.0041 38.7799 82.3641 39.53 82.6941 40.22C82.7541 40.34 83.7241 40.24 83.7541 40.12C84.0641 38.8 84.2741 37.46 84.5941 35.62V35.63ZM68.9041 98.7599C71.2841 98.4799 73.5541 98.2099 75.8141 97.9399C76.0341 97.9099 76.2941 97.8999 76.4741 97.7799C76.6341 97.6699 76.7741 97.44 76.8141 97.25C76.8341 97.16 76.5641 96.9199 76.4341 96.9299C74.0241 97.0499 71.6241 97.15 69.2141 97.34C68.1441 97.42 66.8341 96.81 66.1341 98.23C67.0841 98.41 68.0241 98.5999 68.9041 98.7699V98.7599ZM57.2141 39.24C57.5241 40.01 57.6841 41.0199 58.0041 41.0699C58.5741 41.1599 59.2641 40.7299 59.8441 40.3999C60.0941 40.2599 60.2941 39.8599 60.3541 39.5399C60.5141 38.6799 60.5941 37.7999 60.7041 36.9299C59.8441 37.0399 58.8641 36.93 58.1741 37.33C57.6541 37.63 57.5241 38.58 57.2241 39.24H57.2141ZM92.7241 34.3999C92.5041 34.0199 92.3441 33.5299 92.0041 33.2699C91.8641 33.1599 91.2141 33.46 91.0141 33.73C90.1141 34.93 89.2341 36.1599 88.4641 37.4399C88.3041 37.6999 88.5441 38.2899 88.7441 38.6499C88.8341 38.8099 89.4441 38.8999 89.5541 38.7799C90.6241 37.5699 91.6441 36.3099 92.6441 35.0499C92.7541 34.9099 92.7041 34.6399 92.7341 34.3999H92.7241ZM39.3841 33.2599C38.6441 33.4199 38.3241 34.8599 38.9241 35.6499C39.6941 36.6599 40.5341 37.6199 41.3841 38.5599C41.5241 38.7199 41.9941 38.81 42.1141 38.7C42.3441 38.49 42.6541 38.01 42.5641 37.85C41.7541 36.34 40.8641 34.8699 39.9741 33.3999C39.8941 33.2799 39.5841 33.3 39.3841 33.25V33.2599ZM98.8541 40.25C98.0041 40.56 97.0941 40.7599 96.3241 41.1899C95.3341 41.7499 93.6641 41.67 93.8241 43.49C94.8841 43.45 95.9541 43.47 97.0041 43.34C97.9641 43.22 99.2741 41.5599 99.2241 40.6599C99.2241 40.5199 98.9941 40.39 98.8641 40.25H98.8541ZM49.1641 37.5499C48.9341 36.6499 48.7741 35.7499 48.4241 34.9299C48.3141 34.6799 47.6441 34.55 47.2541 34.6C46.9941 34.63 46.5341 35.0899 46.5641 35.2899C46.8541 36.8499 47.2341 38.3899 47.6241 39.9299C47.6641 40.0999 47.9341 40.3299 48.0641 40.3199C48.2641 40.2899 48.5441 40.0999 48.5941 39.9199C48.8141 39.1599 48.9641 38.3799 49.1541 37.5599L49.1641 37.5499ZM69.2741 38.6399C69.2741 36.5699 69.1941 36.38 67.2041 36.49C64.6441 36.64 67.4441 37.77 66.9341 38.37C66.7241 38.61 66.5941 38.9799 66.5541 39.3099C66.4341 40.1599 66.8341 40.56 67.7041 40.59C69.0341 40.64 69.2741 40.3699 69.2741 38.6399ZM70.6941 37.83C70.6941 38.41 70.6841 38.64 70.6941 38.87C70.7741 40.39 71.7941 41.5199 73.2841 41.1799C74.5741 40.8899 73.1141 39.75 73.4341 39C73.5541 38.72 73.5441 38.1399 73.3741 38.0199C72.6841 37.5399 71.9141 37.1799 71.1641 36.7799L70.6941 37.83ZM20.8541 16.1599C21.2541 16.0699 21.8941 16.0899 22.3341 15.8099C23.3841 15.1299 24.3741 14.3399 25.3341 13.5299C25.7341 13.1899 25.9941 12.68 26.3141 12.24C25.6741 12.31 24.9141 12.18 24.4141 12.48C22.9541 13.36 21.5841 14.3899 20.2041 15.3899C20.0841 15.4799 20.0041 15.8699 20.0641 15.9099C20.2341 16.0299 20.4841 16.0499 20.8641 16.1599H20.8541ZM50.7841 97.4399L50.8241 97.23C51.5641 97.28 52.3141 97.3399 53.0541 97.3899C52.7341 96.0299 51.5241 96.64 50.7441 96.45C48.4141 95.85 46.0441 95.44 43.6841 94.98C43.4041 94.93 43.0941 94.9999 42.8041 95.0199C43.0041 95.2699 43.1641 95.67 43.4141 95.73C45.8641 96.33 48.3241 96.8699 50.7741 97.4299L50.7841 97.4399Z" fill="#1D1D1B"/>
</svg>
