<svg width="43" height="30" viewBox="0 0 43 30" fill="none" xmlns="http://www.w3.org/2000/svg">
<path d="M-4.53418 28.5819C-0.701574 29.4394 5.97001 29.1536 8.95091 28.5819C10.0751 28.3663 13.7772 26.2953 14.9127 25.8666C15.8212 25.5236 15.9537 24.8662 15.9064 24.5804C15.9064 24.2469 15.8496 23.4657 15.6225 23.0084C15.3954 22.5511 14.203 19.5309 13.6352 18.2923C13.5406 18.4352 13.2662 19.1498 12.9255 19.1498C12.4996 19.1498 11.7644 18.4645 11.6479 17.2919C11.506 15.8628 11.0802 14.0049 11.7899 13.7191C12.3577 13.4905 12.8308 13.9097 12.9255 14.1479C12.8308 12.2424 12.8687 7.83117 13.2094 6.57355C13.6352 5.00152 15.1967 1 21.3004 1C27.4042 1 29.3915 5.00152 29.8173 6.43064C30.158 7.57393 30.0539 12.0995 29.9593 14.1479C30.0066 13.9573 30.4987 13.6048 30.9529 13.7191C31.5207 13.862 31.5207 14.5766 31.5207 16.0057C31.5207 17.4348 30.9529 18.8639 30.3851 19.1498C29.9309 19.3784 29.5334 18.9592 29.3915 18.721C29.2495 20.293 27.4042 23.1513 26.9784 23.58C26.5525 24.0088 26.4106 25.4379 27.2623 25.8666C28.114 26.2953 31.0949 27.4386 32.6563 28.2961C34.2177 29.1536 40.6054 29.2965 44.0122 29.1536" stroke="white" stroke-width="2" stroke-linejoin="round"/>
</svg>
