<svg width="60" height="56" viewBox="0 0 60 56" fill="none" xmlns="http://www.w3.org/2000/svg">
<mask id="path-1-outside-1_1417_24745" maskUnits="userSpaceOnUse" x="0.000976562" y="0" width="60" height="56" fill="black">
<rect fill="white" x="0.000976562" width="60" height="56"/>
<path d="M18.3923 1.35339C20.507 1.35339 22.3334 1.72622 23.7819 2.18916C26.7755 3.14155 28.7091 4.59929 29.2611 5.04987H29.2646C30.2121 4.4226 34.9494 1.51949 41.4271 1.51949C43.0179 1.51949 44.7125 1.69441 46.4826 2.12025C51.3431 3.29174 54.9888 7.23206 57.0262 13.5154C58.5555 18.2314 58.6504 22.6611 58.6504 22.7053C58.6522 22.852 58.5362 22.9721 58.392 22.9757H58.3867C58.2426 22.9757 58.1266 22.8608 58.1231 22.7159C58.1231 22.6717 58.0281 18.3091 56.5217 13.6673C55.1418 9.41955 52.0269 4.18052 46.1276 2.75989C44.5525 2.37999 43.0425 2.22097 41.6205 2.22097C34.4203 2.22097 29.4615 6.29381 29.4017 6.33798C29.356 6.37155 29.3015 6.38745 29.247 6.38745C29.1837 6.38745 29.1222 6.36448 29.073 6.32031C29.0519 6.30264 27.0022 3.76352 23.6026 2.68568C22.2033 2.24217 20.4402 1.88348 18.3976 1.88348C15.8698 1.88348 12.9149 2.433 9.69278 4.05154C4.43331 6.69491 2.67547 12.8969 2.12527 17.6341C1.90554 19.5372 1.85632 21.3624 1.88269 22.912C1.92487 25.3116 3.87256 27.2323 6.25971 27.2323H13.9977C14.7905 27.2323 15.5165 26.7905 15.8839 26.0855L24.042 10.4091C24.0877 10.3207 24.1791 10.2677 24.2758 10.2677C24.2846 10.2677 24.2934 10.2677 24.3022 10.2677C24.4094 10.2783 24.4991 10.3543 24.529 10.4585L30.9029 32.7664C30.9714 33.0067 31.1789 33.1304 31.3845 33.1304C31.5779 33.1304 31.7695 33.0226 31.8521 32.8052L36.2309 21.1398C36.2678 21.0408 36.3592 20.9755 36.4629 20.9684C36.4682 20.9684 36.4717 20.9684 36.477 20.9684C36.579 20.9684 36.6669 21.0232 36.7126 21.1133L39.1683 25.9335C39.5743 26.7287 40.3882 27.2287 41.2759 27.2287C41.2847 27.2287 41.2917 27.2287 41.3005 27.2287L58.1389 27.0503C58.2268 27.0503 58.3112 27.0944 58.3604 27.1686C58.4096 27.2429 58.4184 27.3365 58.3832 27.4196C58.3621 27.4708 56.1279 32.6992 51.4819 38.6309C47.191 44.1102 39.9013 51.3336 29.5423 54.636C29.516 54.6448 29.4896 54.6484 29.4632 54.6484C29.4298 54.6484 29.3964 54.6413 29.3648 54.6289C29.2013 54.5636 12.9483 47.9304 4.1714 34.1976C4.09054 34.0722 4.11514 33.8849 4.24171 33.8071C4.28214 33.7806 4.32784 33.77 4.37179 33.77C4.45792 33.77 4.54406 33.8142 4.60207 33.8902C8.71014 39.0815 11.2608 41.8662 15.346 45.0096C20.6828 49.116 25.9827 51.9432 28.129 52.6128C28.6177 52.7648 29.0906 52.8337 29.5511 52.8337C30.0521 52.8337 30.5408 52.7524 31.0172 52.6128C40.8751 49.7221 46.952 43.5519 51.0565 38.3146C53.1554 35.6359 54.7586 33.1039 55.8818 31.1355C56.7748 29.5717 55.6463 27.6263 53.8585 27.6263C53.8498 27.6263 53.841 27.6263 53.8322 27.6263L39.6745 27.7765H39.6692C39.5778 27.7765 39.4812 27.7199 39.4372 27.6316L37.5739 23.9775C37.3805 23.5976 37.0167 23.4121 36.6545 23.4121C36.252 23.4121 35.8512 23.64 35.6842 24.0853L31.5252 35.1624C31.4865 35.2648 31.3916 35.3338 31.2791 35.3338C31.2756 35.3338 31.272 35.3338 31.2685 35.3338C31.1543 35.3285 31.0576 35.2525 31.0259 35.1429L25.1969 14.7469C25.0001 14.0561 24.3989 13.6903 23.7959 13.6903C23.295 13.6903 22.7905 13.943 22.5145 14.4731L15.673 27.6192C15.6272 27.7076 15.5358 27.7641 15.4356 27.7641H1.94421C1.81413 27.7641 1.70339 27.6687 1.68405 27.5379C1.67702 27.492 0.996734 22.8272 1.60143 17.5847C2.40828 10.5981 5.12415 5.75488 9.45547 3.57799C12.7585 1.91882 15.7942 1.35339 18.3923 1.35339ZM18.3923 1C15.3442 1 12.2838 1.76156 9.29726 3.26347C4.8552 5.49514 2.07253 10.4338 1.25162 17.5423C0.645166 22.7972 1.32897 27.5397 1.336 27.5874C1.3817 27.8931 1.63835 28.114 1.94421 28.114H15.4444C15.6765 28.114 15.8857 27.985 15.9946 27.78L22.8362 14.6338C23.0295 14.2628 23.3916 14.0401 23.8065 14.0401C24.1915 14.0401 24.6995 14.2504 24.87 14.8406L30.699 35.2366C30.7728 35.4928 30.9996 35.673 31.265 35.6836C31.2738 35.6836 31.2826 35.6836 31.2896 35.6836C31.548 35.6836 31.773 35.5264 31.8644 35.2843L36.0235 24.2072C36.1465 23.8786 36.4348 23.762 36.6651 23.762C36.9253 23.762 37.152 23.9015 37.2716 24.1365L39.1349 27.7906C39.2386 27.9956 39.453 28.1263 39.6798 28.1263H39.6939L53.848 27.9761H53.8708C54.5863 27.9761 55.2261 28.3472 55.5847 28.9709C55.9416 29.5911 55.9433 30.335 55.5883 30.957C54.1697 33.4431 52.556 35.8444 50.7911 38.0937C47.1418 42.7497 41.1124 49.2857 30.9293 52.2718C30.4564 52.4114 30.0082 52.4786 29.5617 52.4786C29.1152 52.4786 28.6775 52.4096 28.2433 52.2736C26.2411 51.6481 20.9851 48.8934 15.571 44.7269C11.375 41.4987 8.78397 38.5885 4.8886 33.6675C4.76203 33.5067 4.57746 33.4148 4.38234 33.4148C4.27159 33.4148 4.16261 33.4467 4.06768 33.505C3.93233 33.5898 3.83741 33.7241 3.80225 33.8866C3.76358 34.058 3.79522 34.24 3.88838 34.3867C12.7303 48.2202 29.0835 54.8887 29.247 54.9541C29.3191 54.9823 29.3964 54.9982 29.4755 54.9982C29.5388 54.9982 29.6021 54.9876 29.6619 54.97C40.1052 51.6392 47.4495 44.3629 51.772 38.8465C56.4549 32.8689 58.6979 27.6069 58.7207 27.5556C58.8016 27.363 58.7805 27.1439 58.6645 26.969C58.5502 26.7976 58.3586 26.6951 58.153 26.6951L41.3093 26.8736H41.2882C40.5271 26.8736 39.8398 26.4513 39.4935 25.771L37.0378 20.9507C36.9323 20.7422 36.7213 20.615 36.4893 20.615C36.4788 20.615 36.4682 20.615 36.4577 20.615C36.2133 20.6291 36.0006 20.7864 35.9145 21.0143L31.5357 32.6798C31.5041 32.7646 31.4355 32.777 31.3968 32.777C31.3634 32.777 31.2808 32.7664 31.2527 32.6674L24.8788 10.3596C24.8085 10.1157 24.601 9.94081 24.3497 9.9143C24.3303 9.91254 24.3092 9.91077 24.2881 9.91077C24.0579 9.91077 23.8487 10.038 23.7432 10.243L15.5851 25.9194C15.2774 26.5096 14.6745 26.8771 14.0118 26.8771H6.25971C4.07823 26.8771 2.27293 25.0942 2.23425 22.9032C2.20261 21.0797 2.28347 19.3198 2.47332 17.673C3.01298 13.0224 4.72863 6.93875 9.84571 4.36782C12.66 2.95426 15.5358 2.23687 18.3923 2.23687C20.1308 2.23687 21.8465 2.50191 23.4918 3.02317C26.4977 3.97556 28.4296 6.11534 28.7882 6.53411C28.8163 6.56768 28.8339 6.58359 28.8374 6.58535C28.9499 6.6843 29.0941 6.73908 29.2435 6.73908C29.3736 6.73908 29.4984 6.69844 29.6038 6.62246C29.6074 6.62069 29.6162 6.61363 29.6302 6.60302C30.1523 6.19132 34.9178 2.57259 41.6169 2.57436C43.097 2.57436 44.5859 2.75282 46.0414 3.10268C48.6395 3.72818 50.8948 5.16825 52.7458 7.38049C54.5828 9.57505 55.6287 12.07 56.1824 13.7769C57.6713 18.3657 57.7662 22.6788 57.768 22.7212C57.7733 23.0569 58.0492 23.329 58.3832 23.329H58.3973C58.7348 23.322 59.0037 23.0393 58.9985 22.7C58.9985 22.6541 58.893 18.1448 57.3566 13.4058C55.2789 6.99882 51.547 2.97723 46.5617 1.77569C44.8795 1.36929 43.1515 1.16433 41.4253 1.16433C35.2307 1.16433 30.5794 3.79533 29.2822 4.6152C28.5386 4.04093 26.6472 2.72985 23.8873 1.84991C22.1137 1.28625 20.2644 1 18.3923 1Z"/>
</mask>
<path d="M18.3923 1.35339C20.507 1.35339 22.3334 1.72622 23.7819 2.18916C26.7755 3.14155 28.7091 4.59929 29.2611 5.04987H29.2646C30.2121 4.4226 34.9494 1.51949 41.4271 1.51949C43.0179 1.51949 44.7125 1.69441 46.4826 2.12025C51.3431 3.29174 54.9888 7.23206 57.0262 13.5154C58.5555 18.2314 58.6504 22.6611 58.6504 22.7053C58.6522 22.852 58.5362 22.9721 58.392 22.9757H58.3867C58.2426 22.9757 58.1266 22.8608 58.1231 22.7159C58.1231 22.6717 58.0281 18.3091 56.5217 13.6673C55.1418 9.41955 52.0269 4.18052 46.1276 2.75989C44.5525 2.37999 43.0425 2.22097 41.6205 2.22097C34.4203 2.22097 29.4615 6.29381 29.4017 6.33798C29.356 6.37155 29.3015 6.38745 29.247 6.38745C29.1837 6.38745 29.1222 6.36448 29.073 6.32031C29.0519 6.30264 27.0022 3.76352 23.6026 2.68568C22.2033 2.24217 20.4402 1.88348 18.3976 1.88348C15.8698 1.88348 12.9149 2.433 9.69278 4.05154C4.43331 6.69491 2.67547 12.8969 2.12527 17.6341C1.90554 19.5372 1.85632 21.3624 1.88269 22.912C1.92487 25.3116 3.87256 27.2323 6.25971 27.2323H13.9977C14.7905 27.2323 15.5165 26.7905 15.8839 26.0855L24.042 10.4091C24.0877 10.3207 24.1791 10.2677 24.2758 10.2677C24.2846 10.2677 24.2934 10.2677 24.3022 10.2677C24.4094 10.2783 24.4991 10.3543 24.529 10.4585L30.9029 32.7664C30.9714 33.0067 31.1789 33.1304 31.3845 33.1304C31.5779 33.1304 31.7695 33.0226 31.8521 32.8052L36.2309 21.1398C36.2678 21.0408 36.3592 20.9755 36.4629 20.9684C36.4682 20.9684 36.4717 20.9684 36.477 20.9684C36.579 20.9684 36.6669 21.0232 36.7126 21.1133L39.1683 25.9335C39.5743 26.7287 40.3882 27.2287 41.2759 27.2287C41.2847 27.2287 41.2917 27.2287 41.3005 27.2287L58.1389 27.0503C58.2268 27.0503 58.3112 27.0944 58.3604 27.1686C58.4096 27.2429 58.4184 27.3365 58.3832 27.4196C58.3621 27.4708 56.1279 32.6992 51.4819 38.6309C47.191 44.1102 39.9013 51.3336 29.5423 54.636C29.516 54.6448 29.4896 54.6484 29.4632 54.6484C29.4298 54.6484 29.3964 54.6413 29.3648 54.6289C29.2013 54.5636 12.9483 47.9304 4.1714 34.1976C4.09054 34.0722 4.11514 33.8849 4.24171 33.8071C4.28214 33.7806 4.32784 33.77 4.37179 33.77C4.45792 33.77 4.54406 33.8142 4.60207 33.8902C8.71014 39.0815 11.2608 41.8662 15.346 45.0096C20.6828 49.116 25.9827 51.9432 28.129 52.6128C28.6177 52.7648 29.0906 52.8337 29.5511 52.8337C30.0521 52.8337 30.5408 52.7524 31.0172 52.6128C40.8751 49.7221 46.952 43.5519 51.0565 38.3146C53.1554 35.6359 54.7586 33.1039 55.8818 31.1355C56.7748 29.5717 55.6463 27.6263 53.8585 27.6263C53.8498 27.6263 53.841 27.6263 53.8322 27.6263L39.6745 27.7765H39.6692C39.5778 27.7765 39.4812 27.7199 39.4372 27.6316L37.5739 23.9775C37.3805 23.5976 37.0167 23.4121 36.6545 23.4121C36.252 23.4121 35.8512 23.64 35.6842 24.0853L31.5252 35.1624C31.4865 35.2648 31.3916 35.3338 31.2791 35.3338C31.2756 35.3338 31.272 35.3338 31.2685 35.3338C31.1543 35.3285 31.0576 35.2525 31.0259 35.1429L25.1969 14.7469C25.0001 14.0561 24.3989 13.6903 23.7959 13.6903C23.295 13.6903 22.7905 13.943 22.5145 14.4731L15.673 27.6192C15.6272 27.7076 15.5358 27.7641 15.4356 27.7641H1.94421C1.81413 27.7641 1.70339 27.6687 1.68405 27.5379C1.67702 27.492 0.996734 22.8272 1.60143 17.5847C2.40828 10.5981 5.12415 5.75488 9.45547 3.57799C12.7585 1.91882 15.7942 1.35339 18.3923 1.35339ZM18.3923 1C15.3442 1 12.2838 1.76156 9.29726 3.26347C4.8552 5.49514 2.07253 10.4338 1.25162 17.5423C0.645166 22.7972 1.32897 27.5397 1.336 27.5874C1.3817 27.8931 1.63835 28.114 1.94421 28.114H15.4444C15.6765 28.114 15.8857 27.985 15.9946 27.78L22.8362 14.6338C23.0295 14.2628 23.3916 14.0401 23.8065 14.0401C24.1915 14.0401 24.6995 14.2504 24.87 14.8406L30.699 35.2366C30.7728 35.4928 30.9996 35.673 31.265 35.6836C31.2738 35.6836 31.2826 35.6836 31.2896 35.6836C31.548 35.6836 31.773 35.5264 31.8644 35.2843L36.0235 24.2072C36.1465 23.8786 36.4348 23.762 36.6651 23.762C36.9253 23.762 37.152 23.9015 37.2716 24.1365L39.1349 27.7906C39.2386 27.9956 39.453 28.1263 39.6798 28.1263H39.6939L53.848 27.9761H53.8708C54.5863 27.9761 55.2261 28.3472 55.5847 28.9709C55.9416 29.5911 55.9433 30.335 55.5883 30.957C54.1697 33.4431 52.556 35.8444 50.7911 38.0937C47.1418 42.7497 41.1124 49.2857 30.9293 52.2718C30.4564 52.4114 30.0082 52.4786 29.5617 52.4786C29.1152 52.4786 28.6775 52.4096 28.2433 52.2736C26.2411 51.6481 20.9851 48.8934 15.571 44.7269C11.375 41.4987 8.78397 38.5885 4.8886 33.6675C4.76203 33.5067 4.57746 33.4148 4.38234 33.4148C4.27159 33.4148 4.16261 33.4467 4.06768 33.505C3.93233 33.5898 3.83741 33.7241 3.80225 33.8866C3.76358 34.058 3.79522 34.24 3.88838 34.3867C12.7303 48.2202 29.0835 54.8887 29.247 54.9541C29.3191 54.9823 29.3964 54.9982 29.4755 54.9982C29.5388 54.9982 29.6021 54.9876 29.6619 54.97C40.1052 51.6392 47.4495 44.3629 51.772 38.8465C56.4549 32.8689 58.6979 27.6069 58.7207 27.5556C58.8016 27.363 58.7805 27.1439 58.6645 26.969C58.5502 26.7976 58.3586 26.6951 58.153 26.6951L41.3093 26.8736H41.2882C40.5271 26.8736 39.8398 26.4513 39.4935 25.771L37.0378 20.9507C36.9323 20.7422 36.7213 20.615 36.4893 20.615C36.4788 20.615 36.4682 20.615 36.4577 20.615C36.2133 20.6291 36.0006 20.7864 35.9145 21.0143L31.5357 32.6798C31.5041 32.7646 31.4355 32.777 31.3968 32.777C31.3634 32.777 31.2808 32.7664 31.2527 32.6674L24.8788 10.3596C24.8085 10.1157 24.601 9.94081 24.3497 9.9143C24.3303 9.91254 24.3092 9.91077 24.2881 9.91077C24.0579 9.91077 23.8487 10.038 23.7432 10.243L15.5851 25.9194C15.2774 26.5096 14.6745 26.8771 14.0118 26.8771H6.25971C4.07823 26.8771 2.27293 25.0942 2.23425 22.9032C2.20261 21.0797 2.28347 19.3198 2.47332 17.673C3.01298 13.0224 4.72863 6.93875 9.84571 4.36782C12.66 2.95426 15.5358 2.23687 18.3923 2.23687C20.1308 2.23687 21.8465 2.50191 23.4918 3.02317C26.4977 3.97556 28.4296 6.11534 28.7882 6.53411C28.8163 6.56768 28.8339 6.58359 28.8374 6.58535C28.9499 6.6843 29.0941 6.73908 29.2435 6.73908C29.3736 6.73908 29.4984 6.69844 29.6038 6.62246C29.6074 6.62069 29.6162 6.61363 29.6302 6.60302C30.1523 6.19132 34.9178 2.57259 41.6169 2.57436C43.097 2.57436 44.5859 2.75282 46.0414 3.10268C48.6395 3.72818 50.8948 5.16825 52.7458 7.38049C54.5828 9.57505 55.6287 12.07 56.1824 13.7769C57.6713 18.3657 57.7662 22.6788 57.768 22.7212C57.7733 23.0569 58.0492 23.329 58.3832 23.329H58.3973C58.7348 23.322 59.0037 23.0393 58.9985 22.7C58.9985 22.6541 58.893 18.1448 57.3566 13.4058C55.2789 6.99882 51.547 2.97723 46.5617 1.77569C44.8795 1.36929 43.1515 1.16433 41.4253 1.16433C35.2307 1.16433 30.5794 3.79533 29.2822 4.6152C28.5386 4.04093 26.6472 2.72985 23.8873 1.84991C22.1137 1.28625 20.2644 1 18.3923 1Z" fill="white"/>
<path d="M18.3923 1.35339C20.507 1.35339 22.3334 1.72622 23.7819 2.18916C26.7755 3.14155 28.7091 4.59929 29.2611 5.04987H29.2646C30.2121 4.4226 34.9494 1.51949 41.4271 1.51949C43.0179 1.51949 44.7125 1.69441 46.4826 2.12025C51.3431 3.29174 54.9888 7.23206 57.0262 13.5154C58.5555 18.2314 58.6504 22.6611 58.6504 22.7053C58.6522 22.852 58.5362 22.9721 58.392 22.9757H58.3867C58.2426 22.9757 58.1266 22.8608 58.1231 22.7159C58.1231 22.6717 58.0281 18.3091 56.5217 13.6673C55.1418 9.41955 52.0269 4.18052 46.1276 2.75989C44.5525 2.37999 43.0425 2.22097 41.6205 2.22097C34.4203 2.22097 29.4615 6.29381 29.4017 6.33798C29.356 6.37155 29.3015 6.38745 29.247 6.38745C29.1837 6.38745 29.1222 6.36448 29.073 6.32031C29.0519 6.30264 27.0022 3.76352 23.6026 2.68568C22.2033 2.24217 20.4402 1.88348 18.3976 1.88348C15.8698 1.88348 12.9149 2.433 9.69278 4.05154C4.43331 6.69491 2.67547 12.8969 2.12527 17.6341C1.90554 19.5372 1.85632 21.3624 1.88269 22.912C1.92487 25.3116 3.87256 27.2323 6.25971 27.2323H13.9977C14.7905 27.2323 15.5165 26.7905 15.8839 26.0855L24.042 10.4091C24.0877 10.3207 24.1791 10.2677 24.2758 10.2677C24.2846 10.2677 24.2934 10.2677 24.3022 10.2677C24.4094 10.2783 24.4991 10.3543 24.529 10.4585L30.9029 32.7664C30.9714 33.0067 31.1789 33.1304 31.3845 33.1304C31.5779 33.1304 31.7695 33.0226 31.8521 32.8052L36.2309 21.1398C36.2678 21.0408 36.3592 20.9755 36.4629 20.9684C36.4682 20.9684 36.4717 20.9684 36.477 20.9684C36.579 20.9684 36.6669 21.0232 36.7126 21.1133L39.1683 25.9335C39.5743 26.7287 40.3882 27.2287 41.2759 27.2287C41.2847 27.2287 41.2917 27.2287 41.3005 27.2287L58.1389 27.0503C58.2268 27.0503 58.3112 27.0944 58.3604 27.1686C58.4096 27.2429 58.4184 27.3365 58.3832 27.4196C58.3621 27.4708 56.1279 32.6992 51.4819 38.6309C47.191 44.1102 39.9013 51.3336 29.5423 54.636C29.516 54.6448 29.4896 54.6484 29.4632 54.6484C29.4298 54.6484 29.3964 54.6413 29.3648 54.6289C29.2013 54.5636 12.9483 47.9304 4.1714 34.1976C4.09054 34.0722 4.11514 33.8849 4.24171 33.8071C4.28214 33.7806 4.32784 33.77 4.37179 33.77C4.45792 33.77 4.54406 33.8142 4.60207 33.8902C8.71014 39.0815 11.2608 41.8662 15.346 45.0096C20.6828 49.116 25.9827 51.9432 28.129 52.6128C28.6177 52.7648 29.0906 52.8337 29.5511 52.8337C30.0521 52.8337 30.5408 52.7524 31.0172 52.6128C40.8751 49.7221 46.952 43.5519 51.0565 38.3146C53.1554 35.6359 54.7586 33.1039 55.8818 31.1355C56.7748 29.5717 55.6463 27.6263 53.8585 27.6263C53.8498 27.6263 53.841 27.6263 53.8322 27.6263L39.6745 27.7765H39.6692C39.5778 27.7765 39.4812 27.7199 39.4372 27.6316L37.5739 23.9775C37.3805 23.5976 37.0167 23.4121 36.6545 23.4121C36.252 23.4121 35.8512 23.64 35.6842 24.0853L31.5252 35.1624C31.4865 35.2648 31.3916 35.3338 31.2791 35.3338C31.2756 35.3338 31.272 35.3338 31.2685 35.3338C31.1543 35.3285 31.0576 35.2525 31.0259 35.1429L25.1969 14.7469C25.0001 14.0561 24.3989 13.6903 23.7959 13.6903C23.295 13.6903 22.7905 13.943 22.5145 14.4731L15.673 27.6192C15.6272 27.7076 15.5358 27.7641 15.4356 27.7641H1.94421C1.81413 27.7641 1.70339 27.6687 1.68405 27.5379C1.67702 27.492 0.996734 22.8272 1.60143 17.5847C2.40828 10.5981 5.12415 5.75488 9.45547 3.57799C12.7585 1.91882 15.7942 1.35339 18.3923 1.35339ZM18.3923 1C15.3442 1 12.2838 1.76156 9.29726 3.26347C4.8552 5.49514 2.07253 10.4338 1.25162 17.5423C0.645166 22.7972 1.32897 27.5397 1.336 27.5874C1.3817 27.8931 1.63835 28.114 1.94421 28.114H15.4444C15.6765 28.114 15.8857 27.985 15.9946 27.78L22.8362 14.6338C23.0295 14.2628 23.3916 14.0401 23.8065 14.0401C24.1915 14.0401 24.6995 14.2504 24.87 14.8406L30.699 35.2366C30.7728 35.4928 30.9996 35.673 31.265 35.6836C31.2738 35.6836 31.2826 35.6836 31.2896 35.6836C31.548 35.6836 31.773 35.5264 31.8644 35.2843L36.0235 24.2072C36.1465 23.8786 36.4348 23.762 36.6651 23.762C36.9253 23.762 37.152 23.9015 37.2716 24.1365L39.1349 27.7906C39.2386 27.9956 39.453 28.1263 39.6798 28.1263H39.6939L53.848 27.9761H53.8708C54.5863 27.9761 55.2261 28.3472 55.5847 28.9709C55.9416 29.5911 55.9433 30.335 55.5883 30.957C54.1697 33.4431 52.556 35.8444 50.7911 38.0937C47.1418 42.7497 41.1124 49.2857 30.9293 52.2718C30.4564 52.4114 30.0082 52.4786 29.5617 52.4786C29.1152 52.4786 28.6775 52.4096 28.2433 52.2736C26.2411 51.6481 20.9851 48.8934 15.571 44.7269C11.375 41.4987 8.78397 38.5885 4.8886 33.6675C4.76203 33.5067 4.57746 33.4148 4.38234 33.4148C4.27159 33.4148 4.16261 33.4467 4.06768 33.505C3.93233 33.5898 3.83741 33.7241 3.80225 33.8866C3.76358 34.058 3.79522 34.24 3.88838 34.3867C12.7303 48.2202 29.0835 54.8887 29.247 54.9541C29.3191 54.9823 29.3964 54.9982 29.4755 54.9982C29.5388 54.9982 29.6021 54.9876 29.6619 54.97C40.1052 51.6392 47.4495 44.3629 51.772 38.8465C56.4549 32.8689 58.6979 27.6069 58.7207 27.5556C58.8016 27.363 58.7805 27.1439 58.6645 26.969C58.5502 26.7976 58.3586 26.6951 58.153 26.6951L41.3093 26.8736H41.2882C40.5271 26.8736 39.8398 26.4513 39.4935 25.771L37.0378 20.9507C36.9323 20.7422 36.7213 20.615 36.4893 20.615C36.4788 20.615 36.4682 20.615 36.4577 20.615C36.2133 20.6291 36.0006 20.7864 35.9145 21.0143L31.5357 32.6798C31.5041 32.7646 31.4355 32.777 31.3968 32.777C31.3634 32.777 31.2808 32.7664 31.2527 32.6674L24.8788 10.3596C24.8085 10.1157 24.601 9.94081 24.3497 9.9143C24.3303 9.91254 24.3092 9.91077 24.2881 9.91077C24.0579 9.91077 23.8487 10.038 23.7432 10.243L15.5851 25.9194C15.2774 26.5096 14.6745 26.8771 14.0118 26.8771H6.25971C4.07823 26.8771 2.27293 25.0942 2.23425 22.9032C2.20261 21.0797 2.28347 19.3198 2.47332 17.673C3.01298 13.0224 4.72863 6.93875 9.84571 4.36782C12.66 2.95426 15.5358 2.23687 18.3923 2.23687C20.1308 2.23687 21.8465 2.50191 23.4918 3.02317C26.4977 3.97556 28.4296 6.11534 28.7882 6.53411C28.8163 6.56768 28.8339 6.58359 28.8374 6.58535C28.9499 6.6843 29.0941 6.73908 29.2435 6.73908C29.3736 6.73908 29.4984 6.69844 29.6038 6.62246C29.6074 6.62069 29.6162 6.61363 29.6302 6.60302C30.1523 6.19132 34.9178 2.57259 41.6169 2.57436C43.097 2.57436 44.5859 2.75282 46.0414 3.10268C48.6395 3.72818 50.8948 5.16825 52.7458 7.38049C54.5828 9.57505 55.6287 12.07 56.1824 13.7769C57.6713 18.3657 57.7662 22.6788 57.768 22.7212C57.7733 23.0569 58.0492 23.329 58.3832 23.329H58.3973C58.7348 23.322 59.0037 23.0393 58.9985 22.7C58.9985 22.6541 58.893 18.1448 57.3566 13.4058C55.2789 6.99882 51.547 2.97723 46.5617 1.77569C44.8795 1.36929 43.1515 1.16433 41.4253 1.16433C35.2307 1.16433 30.5794 3.79533 29.2822 4.6152C28.5386 4.04093 26.6472 2.72985 23.8873 1.84991C22.1137 1.28625 20.2644 1 18.3923 1Z" stroke="white" mask="url(#path-1-outside-1_1417_24745)"/>
</svg>
