<svg width="191" height="29" viewBox="0 0 191 29" fill="none" xmlns="http://www.w3.org/2000/svg">
<g filter="url(#filter0_d_1550_6010)">
<path d="M18.6533 12.8598C17.45 15.3466 15.3911 17.0579 12.0754 17.0579C8.75965 17.0579 7.28897 14.999 7.28897 12.1111C7.28897 7.99318 10.5245 3.76833 15.0969 3.76833C18.3859 3.76833 19.7496 5.53314 19.6694 8.3408H22.8247C22.8514 8.0734 22.8514 7.83275 22.8514 7.56535C22.8514 3.34049 19.9101 0.773488 15.3911 0.773488C9.21423 0.773488 4 6.12141 4 12.4587C4 16.951 7.23549 20.026 11.701 20.026C16.4874 20.026 20.3112 17.2986 21.9423 12.8598H18.6533Z" fill="white"/>
<path d="M32.2383 6.33533C30.6874 6.33533 29.0563 7.16426 27.9867 8.10014C28.0669 7.99319 28.4145 7.61883 28.5215 7.00382L29.8852 0.55957H26.8101L22.719 19.8121H25.794L27.4786 11.9239C27.8797 10.6137 29.4306 9.06277 31.1687 9.06277C32.5592 9.06277 33.1207 9.83822 33.1207 11.0682C33.1207 11.3089 33.0672 11.6298 33.0137 11.8972L31.3024 19.8121H34.3507L36.0353 11.8437C36.1423 11.3356 36.2225 10.4265 36.2225 9.99866C36.2225 7.61883 34.6449 6.33533 32.2383 6.33533Z" fill="white"/>
<path d="M37.1333 19.8121H40.2084L43.0428 6.44229H39.9677L37.1333 19.8121ZM40.5025 2.61852C40.5025 3.66137 41.2512 4.38334 42.2941 4.38334C43.3369 4.38334 44.1124 3.66137 44.1124 2.61852C44.1124 1.57568 43.3369 0.826966 42.2941 0.826966C41.2512 0.826966 40.5025 1.57568 40.5025 2.61852Z" fill="white"/>
<path d="M43.1393 19.8121H46.2143L50.3055 0.55957H47.2304L43.1393 19.8121Z" fill="white"/>
<path d="M61.2583 7.0573C61.1781 7.43165 61.2316 7.77927 61.285 7.91297C60.5363 7.03056 59.0389 6.33533 57.6752 6.33533C53.3434 6.33533 49.7603 10.2126 49.7603 14.5979C49.7603 17.6195 51.5786 19.9458 54.7873 19.9458C56.1778 19.9458 57.9961 19.3308 59.0924 18.3414C58.9854 18.4484 58.7715 18.7693 58.6913 19.1971L58.5576 19.8121H61.6327L65.7238 0.55957H62.6755L61.2583 7.0573ZM52.8086 14.2235C52.8086 11.7902 54.7606 9.22321 57.4345 9.22321C59.3598 9.22321 60.5096 10.4532 60.5096 12.1913C60.5096 14.6246 58.4774 17.2184 55.7767 17.2184C53.8514 17.2184 52.8086 15.9883 52.8086 14.2235Z" fill="white"/>
<path d="M74.9803 19.8121L75.6221 16.7905H68.3222L69.3917 11.7635H76.4243L77.066 8.76863H70.0335L71.0229 4.11594H77.9217L78.5634 1.09436H68.5361L64.5519 19.8121H74.9803Z" fill="white"/>
<path d="M124.233 12.3254C128.163 12.3254 131.479 10.0525 131.479 6.01487C131.479 3.15373 129.179 1.09478 126.345 1.09478H120.703L116.719 19.8125H119.874L121.478 12.3254H124.233ZM125.81 4.11635C127.281 4.11635 128.27 5.0255 128.27 6.309C128.27 8.34121 126.425 9.35732 124.634 9.35732H122.093L123.216 4.11635H125.81Z" fill="white"/>
<path d="M130.95 19.8125H134.079L135.79 11.7639H136.352C136.352 11.7639 139.266 14.8389 140.175 19.8125H143.571C142.181 13.6089 139.641 11.4697 139.641 11.4697C142.823 10.935 145.283 8.95622 145.283 5.74747C145.283 3.07351 143.331 1.09478 140.389 1.09478H134.934L130.95 19.8125ZM139.748 4.06287C141.111 4.06287 142.181 4.83832 142.181 6.09509C142.181 7.8599 140.523 8.90275 138.732 8.90275H136.405L137.421 4.06287H139.748Z" fill="white"/>
<path d="M156.08 19.8125L156.722 16.7909H149.422L150.492 11.7639H157.524L158.166 8.76905H151.133L152.123 4.11635H159.022L159.663 1.09478H149.636L145.652 19.8125H156.08Z" fill="white"/>
<path d="M166.949 3.82222C168.66 3.82222 169.677 5.13246 169.356 6.95075H172.431C172.484 6.54966 172.511 6.20204 172.511 5.82769C172.511 2.77937 170.639 0.880859 167.484 0.880859C163.928 0.880859 161.066 3.31416 161.066 6.7101C161.066 9.11666 163.018 10.7478 165.371 11.8174C166.602 12.3789 167.805 13.2613 167.805 14.5715C167.805 16.2829 166.361 17.0316 164.837 17.0316C162.671 17.0316 162.002 15.4005 162.243 13.6891H159.141C159.088 14.0635 159.088 14.4111 159.088 14.7587C159.088 17.9942 161.147 20.0264 164.543 20.0264C168.313 20.0264 171.121 17.6733 171.121 14.0368C171.121 11.3628 169.356 9.89211 167.19 8.87601C165.773 8.20752 164.409 7.48555 164.409 6.14856C164.409 4.65115 165.746 3.82222 166.949 3.82222Z" fill="white"/>
<path d="M180.658 3.82222C182.37 3.82222 183.386 5.13246 183.065 6.95075H186.14C186.194 6.54966 186.22 6.20204 186.22 5.82769C186.22 2.77937 184.348 0.880859 181.193 0.880859C177.637 0.880859 174.776 3.31416 174.776 6.7101C174.776 9.11666 176.728 10.7478 179.081 11.8174C180.311 12.3789 181.514 13.2613 181.514 14.5715C181.514 16.2829 180.07 17.0316 178.546 17.0316C176.38 17.0316 175.712 15.4005 175.952 13.6891H172.85C172.797 14.0635 172.797 14.4111 172.797 14.7587C172.797 17.9942 174.856 20.0264 178.252 20.0264C182.022 20.0264 184.83 17.6733 184.83 14.0368C184.83 11.3628 183.065 9.89211 180.899 8.87601C179.482 8.20752 178.118 7.48555 178.118 6.14856C178.118 4.65115 179.455 3.82222 180.658 3.82222Z" fill="white"/>
<circle cx="77.8733" cy="16.8928" r="0.834187" fill="white"/>
<circle cx="79.9592" cy="18.3518" r="0.834187" fill="white"/>
<circle cx="82.4592" cy="19.1857" r="0.834187" fill="white"/>
<circle cx="85.3811" cy="19.1867" r="0.834187" fill="white"/>
<circle cx="88.299" cy="18.9777" r="0.834187" fill="white"/>
<circle cx="90.8029" cy="17.9348" r="0.834187" fill="white"/>
<circle cx="96.6428" cy="8.342" r="0.834187" fill="white"/>
<circle cx="95.1818" cy="6.04805" r="0.834187" fill="white"/>
<circle cx="93.5139" cy="3.75411" r="0.834187" fill="white"/>
<circle cx="91.4279" cy="2.08614" r="0.834187" fill="white"/>
<circle cx="88.299" cy="1.45919" r="0.834187" fill="white"/>
<circle cx="85.1721" cy="1.87716" r="0.834187" fill="white"/>
<path d="M93.8262 7.40332L92.8877 14.8067" stroke="white" stroke-opacity="0.49" stroke-width="0.208547"/>
<path d="M95.8086 9.59375L94.5573 12.9305" stroke="white" stroke-opacity="0.49" stroke-width="0.208547"/>
<path d="M91.8449 5.00502L90.905 16.284" stroke="white" stroke-opacity="0.49" stroke-width="0.208547"/>
<path d="M89.8633 3.54492L88.4034 17.5206" stroke="white" stroke-opacity="0.49" stroke-width="0.208547"/>
<line x1="87.9853" y1="3.35595" x2="85.2742" y2="17.9542" stroke="white" stroke-opacity="0.49" stroke-width="0.208547"/>
<path d="M82.7734 17.7119L85.5878 3.75375" stroke="white" stroke-opacity="0.49" stroke-width="0.208547"/>
<path d="M80.0645 16.8691L82.8771 5.52697" stroke="white" stroke-opacity="0.49" stroke-width="0.208547"/>
<line x1="78.3961" y1="15.2026" x2="80.0645" y2="7.48635" stroke="white" stroke-opacity="0.49" stroke-width="0.208547"/>
<circle cx="117.705" cy="3.12773" r="0.834187" transform="rotate(-180 117.705 3.12773)" fill="white"/>
<circle cx="115.619" cy="1.66777" r="0.834187" transform="rotate(-180 115.619 1.66777)" fill="white"/>
<circle cx="113.117" cy="0.833782" r="0.834187" transform="rotate(-180 113.117 0.833782)" fill="white"/>
<circle cx="110.197" cy="0.833782" r="0.834187" transform="rotate(-180 110.197 0.833782)" fill="white"/>
<circle cx="107.277" cy="1.04277" r="0.834187" transform="rotate(-180 107.277 1.04277)" fill="white"/>
<circle cx="104.357" cy="2.08574" r="0.834187" transform="rotate(-180 104.357 2.08574)" fill="white"/>
<circle cx="97.6853" cy="10.4275" r="0.834187" transform="rotate(-180 97.6853 10.4275)" fill="white"/>
<circle cx="99.1443" cy="12.7215" r="0.834187" transform="rotate(-180 99.1443 12.7215)" fill="white"/>
<circle cx="100.603" cy="14.8064" r="0.834187" transform="rotate(-180 100.603 14.8064)" fill="white"/>
<circle cx="102.689" cy="16.8924" r="0.834187" transform="rotate(-180 102.689 16.8924)" fill="white"/>
<circle cx="104.982" cy="17.9353" r="0.834187" transform="rotate(-180 104.982 17.9353)" fill="white"/>
<circle cx="107.695" cy="18.3523" r="0.834187" transform="rotate(-180 107.695 18.3523)" fill="white"/>
<circle cx="110.406" cy="17.9353" r="0.834187" transform="rotate(-180 110.406 17.9353)" fill="white"/>
<path d="M101.23 13.7637L101.022 7.50727" stroke="white" stroke-opacity="0.49" stroke-width="0.208547"/>
<path d="M99.7695 11.6787L99.3524 9.3847" stroke="white" stroke-opacity="0.49" stroke-width="0.208547"/>
<line x1="103.001" y1="15.4306" x2="103.21" y2="4.79469" stroke="white" stroke-opacity="0.49" stroke-width="0.208547"/>
<path d="M105.296 16.2526L106.234 2.81546" stroke="white" stroke-opacity="0.49" stroke-width="0.208547"/>
<line x1="107.592" y1="16.2495" x2="109.886" y2="2.48538" stroke="white" stroke-opacity="0.49" stroke-width="0.208547"/>
<line x1="109.886" y1="16.0384" x2="112.597" y2="2.27436" stroke="white" stroke-opacity="0.49" stroke-width="0.208547"/>
<line x1="115.512" y1="3.15289" x2="112.801" y2="14.623" stroke="white" stroke-opacity="0.49" stroke-width="0.208547"/>
<line x1="117.179" y1="4.82144" x2="115.511" y2="11.7035" stroke="white" stroke-opacity="0.49" stroke-width="0.208547"/>
</g>
<defs>
<filter id="filter0_d_1550_6010" x="0" y="0" width="190.221" height="28.0264" filterUnits="userSpaceOnUse" color-interpolation-filters="sRGB">
<feFlood flood-opacity="0" result="BackgroundImageFix"/>
<feColorMatrix in="SourceAlpha" type="matrix" values="0 0 0 0 0 0 0 0 0 0 0 0 0 0 0 0 0 0 127 0" result="hardAlpha"/>
<feOffset dy="4"/>
<feGaussianBlur stdDeviation="2"/>
<feComposite in2="hardAlpha" operator="out"/>
<feColorMatrix type="matrix" values="0 0 0 0 1 0 0 0 0 1 0 0 0 0 1 0 0 0 0.24 0"/>
<feBlend mode="normal" in2="BackgroundImageFix" result="effect1_dropShadow_1550_6010"/>
<feBlend mode="normal" in="SourceGraphic" in2="effect1_dropShadow_1550_6010" result="shape"/>
</filter>
</defs>
</svg>
