<svg width="282" height="49" viewBox="0 0 282 49" fill="none" xmlns="http://www.w3.org/2000/svg">
<path d="M25.4274 29.3567C23.5852 33.1637 20.4332 35.7836 15.3571 35.7836C10.2811 35.7836 8.02959 32.6315 8.02959 28.2105C8.02959 21.9063 12.9828 15.4385 19.9829 15.4385C25.018 15.4385 27.1057 18.1402 26.9829 22.4385H31.8134C31.8543 22.0291 31.8543 21.6607 31.8543 21.2514C31.8543 14.7835 27.3513 10.8536 20.4332 10.8536C10.977 10.8536 2.99447 19.0408 2.99447 28.7426C2.99447 35.6199 7.94772 40.3275 14.784 40.3275C22.1115 40.3275 27.9654 36.152 30.4625 29.3567H25.4274ZM46.2247 19.3683C43.8504 19.3683 41.3533 20.6373 39.7159 22.0701C39.8387 21.9063 40.3709 21.3332 40.5346 20.3917L42.6224 10.5261H37.9147L31.6515 40H36.3592L38.9381 27.9239C39.5522 25.918 41.9264 23.5438 44.5873 23.5438C46.7159 23.5438 47.5756 24.7309 47.5756 26.614C47.5756 26.9824 47.4937 27.4736 47.4119 27.883L44.792 40H49.4587L52.0376 27.8011C52.2014 27.0233 52.3242 25.6315 52.3242 24.9765C52.3242 21.3332 49.9089 19.3683 46.2247 19.3683ZM53.7185 40H58.4262L62.7654 19.532H58.0578L53.7185 40ZM58.8765 13.6782C58.8765 15.2747 60.0227 16.38 61.6192 16.38C63.2157 16.38 64.4028 15.2747 64.4028 13.6782C64.4028 12.0817 63.2157 10.9355 61.6192 10.9355C60.0227 10.9355 58.8765 12.0817 58.8765 13.6782ZM62.9131 40H67.6208L73.884 10.5261H69.1763L62.9131 40ZM90.6517 20.4736C90.5289 21.0467 90.6108 21.5788 90.6926 21.7835C89.5464 20.4326 87.254 19.3683 85.1663 19.3683C78.5347 19.3683 73.0493 25.304 73.0493 32.0175C73.0493 36.6433 75.8329 40.2047 80.7452 40.2047C82.8739 40.2047 85.6575 39.2632 87.3359 37.7485C87.1721 37.9123 86.8447 38.4035 86.7219 39.0585L86.5172 40H91.2248L97.488 10.5261H92.8213L90.6517 20.4736ZM77.716 31.4444C77.716 27.7192 80.7043 23.7894 84.7979 23.7894C87.7452 23.7894 89.5055 25.6724 89.5055 28.3333C89.5055 32.0584 86.3944 36.0292 82.2598 36.0292C79.3125 36.0292 77.716 34.1462 77.716 31.4444ZM111.659 40L112.641 35.3742H101.466L103.103 27.6783H113.869L114.852 23.0935H104.086L105.6 15.9706H116.162L117.144 11.3449H101.793L95.6939 40H111.659Z" fill="white"/>
<path d="M186.869 28.5379C192.886 28.5379 197.962 25.0584 197.962 18.8771C197.962 14.4969 194.442 11.3449 190.103 11.3449H181.465L175.366 40H180.196L182.652 28.5379H186.869ZM189.284 15.9706C191.535 15.9706 193.05 17.3624 193.05 19.3274C193.05 22.4385 190.225 23.9941 187.483 23.9941H183.594L185.313 15.9706H189.284ZM197.153 40H201.942L204.562 27.6783H205.422C205.422 27.6783 209.884 32.3859 211.276 40H216.475C214.346 30.5029 210.457 27.228 210.457 27.228C215.328 26.4093 219.095 23.38 219.095 18.4677C219.095 14.3741 216.106 11.3449 211.603 11.3449H203.252L197.153 40ZM210.621 15.8887C212.709 15.8887 214.346 17.0759 214.346 18.9999C214.346 21.7016 211.808 23.2981 209.065 23.2981H205.504L207.059 15.8887H210.621ZM235.625 40L236.607 35.3742H225.432L227.069 27.6783H237.835L238.818 23.0935H228.052L229.566 15.9706H240.128L241.11 11.3449H225.759L219.66 40H235.625ZM252.264 15.5203C254.884 15.5203 256.439 17.5262 255.948 20.3098H260.656C260.738 19.6958 260.779 19.1636 260.779 18.5905C260.779 13.9238 257.913 11.0174 253.083 11.0174C247.638 11.0174 243.258 14.7425 243.258 19.9414C243.258 23.6256 246.246 26.1227 249.849 27.7602C251.732 28.6198 253.574 29.9707 253.574 31.9766C253.574 34.5965 251.363 35.7427 249.03 35.7427C245.714 35.7427 244.691 33.2456 245.059 30.6257H240.311C240.229 31.1988 240.229 31.7309 240.229 32.2631C240.229 37.2164 243.381 40.3275 248.58 40.3275C254.352 40.3275 258.65 36.7251 258.65 31.1578C258.65 27.0643 255.948 24.8128 252.632 23.2572C250.463 22.2338 248.375 21.1285 248.375 19.0817C248.375 16.7893 250.422 15.5203 252.264 15.5203ZM273.252 15.5203C275.871 15.5203 277.427 17.5262 276.936 20.3098H281.643C281.725 19.6958 281.766 19.1636 281.766 18.5905C281.766 13.9238 278.901 11.0174 274.07 11.0174C268.626 11.0174 264.246 14.7425 264.246 19.9414C264.246 23.6256 267.234 26.1227 270.836 27.7602C272.719 28.6198 274.561 29.9707 274.561 31.9766C274.561 34.5965 272.351 35.7427 270.018 35.7427C266.702 35.7427 265.678 33.2456 266.047 30.6257H261.298C261.216 31.1988 261.216 31.7309 261.216 32.2631C261.216 37.2164 264.368 40.3275 269.567 40.3275C275.339 40.3275 279.638 36.7251 279.638 31.1578C279.638 27.0643 276.936 24.8128 273.62 23.2572C271.45 22.2338 269.363 21.1285 269.363 19.0817C269.363 16.7893 271.409 15.5203 273.252 15.5203Z" fill="white"/>
<circle cx="115.894" cy="35.1189" r="1.27706" fill="white"/>
<circle cx="119.086" cy="37.3532" r="1.27706" fill="white"/>
<circle cx="122.918" cy="38.6306" r="1.27706" fill="white"/>
<circle cx="127.386" cy="38.6306" r="1.27706" fill="white"/>
<circle cx="131.857" cy="38.3103" r="1.27706" fill="white"/>
<circle cx="135.687" cy="36.7146" r="1.27706" fill="white"/>
<circle cx="144.627" cy="22.029" r="1.27706" fill="white"/>
<circle cx="142.392" cy="18.5173" r="1.27706" fill="white"/>
<circle cx="139.84" cy="15.0056" r="1.27706" fill="white"/>
<circle cx="136.646" cy="12.4509" r="1.27706" fill="white"/>
<circle cx="131.857" cy="11.4919" r="1.27706" fill="white"/>
<circle cx="127.068" cy="12.1306" r="1.27706" fill="white"/>
<path d="M140.316 20.5918L138.88 31.9257" stroke="white" stroke-width="0.5"/>
<path d="M143.35 23.9434L141.434 29.0516" stroke="white" stroke-width="0.5"/>
<path d="M137.285 16.9196L135.846 34.1867" stroke="white" stroke-width="0.5"/>
<path d="M134.252 14.6855L132.017 36.0811" stroke="white" stroke-width="0.5"/>
<line x1="131.465" y1="14.4128" x2="127.314" y2="36.7614" stroke="white" stroke-width="0.5"/>
<path d="M123.398 36.373L127.707 15.0044" stroke="white" stroke-width="0.5"/>
<path d="M119.25 35.082L123.556 17.7182" stroke="white" stroke-width="0.5"/>
<line x1="116.607" y1="32.5116" x2="119.161" y2="20.6988" stroke="white" stroke-width="0.5"/>
<circle cx="176.873" cy="14.0472" r="1.27706" transform="rotate(-180 176.873 14.0472)" fill="white"/>
<circle cx="173.68" cy="11.8128" r="1.27706" transform="rotate(-180 173.68 11.8128)" fill="white"/>
<circle cx="169.85" cy="10.5354" r="1.27706" transform="rotate(-180 169.85 10.5354)" fill="white"/>
<circle cx="165.379" cy="10.5354" r="1.27706" transform="rotate(-180 165.379 10.5354)" fill="white"/>
<circle cx="160.91" cy="10.8538" r="1.27706" transform="rotate(-180 160.91 10.8538)" fill="white"/>
<circle cx="156.44" cy="12.4515" r="1.27706" transform="rotate(-180 156.44 12.4515)" fill="white"/>
<circle cx="146.223" cy="25.221" r="1.27706" transform="rotate(-180 146.223 25.221)" fill="white"/>
<circle cx="148.459" cy="28.7327" r="1.27706" transform="rotate(-180 148.459 28.7327)" fill="white"/>
<circle cx="150.694" cy="31.9261" r="1.27706" transform="rotate(-180 150.694 31.9261)" fill="white"/>
<circle cx="153.887" cy="35.1175" r="1.27706" transform="rotate(-180 153.887 35.1175)" fill="white"/>
<circle cx="157.399" cy="36.7151" r="1.27706" transform="rotate(-180 157.399 36.7151)" fill="white"/>
<circle cx="161.549" cy="37.3538" r="1.27706" transform="rotate(-180 161.549 37.3538)" fill="white"/>
<circle cx="165.699" cy="36.7151" r="1.27706" transform="rotate(-180 165.699 36.7151)" fill="white"/>
<path d="M151.652 30.3301L151.333 20.7521" stroke="white" stroke-width="0.5"/>
<path d="M149.416 27.1367L148.777 23.6248" stroke="white" stroke-width="0.5"/>
<line x1="154.275" y1="32.8779" x2="154.595" y2="16.5954" stroke="white" stroke-width="0.5"/>
<path d="M157.878 34.1385L159.313 13.5674" stroke="white" stroke-width="0.5"/>
<line x1="161.302" y1="34.1191" x2="164.814" y2="13.0475" stroke="white" stroke-width="0.5"/>
<line x1="164.815" y1="33.7935" x2="168.966" y2="12.7219" stroke="white" stroke-width="0.5"/>
<line x1="173.605" y1="14.1044" x2="169.454" y2="31.664" stroke="white" stroke-width="0.5"/>
<line x1="176.159" y1="16.6605" x2="173.605" y2="27.1962" stroke="white" stroke-width="0.5"/>
</svg>
