<svg width="50" height="37" viewBox="0 0 50 37" fill="none" xmlns="http://www.w3.org/2000/svg">
<path d="M6.21874 26.9875L27.9318 9.92599C30.6389 5.74898 40.3898 -2.74404 45.6546 4.87363C50.9194 12.4913 41.4637 17.7174 36.0778 19.3782L13.737 35.6242L3.89618 35.5899L6.21874 26.9875Z" fill="#0F54E4"/>
<path d="M27.9318 9.92599L28.5497 10.7123L28.6805 10.6095L28.771 10.4699L27.9318 9.92599ZM6.21874 26.9875L5.60089 26.2012L5.33984 26.4064L5.2533 26.7269L6.21874 26.9875ZM3.89618 35.5899L2.93075 35.3292L2.59161 36.5853L3.89269 36.5899L3.89618 35.5899ZM13.737 35.6242L13.7335 36.6242L14.0606 36.6253L14.3251 36.433L13.737 35.6242ZM36.0778 19.3782L35.7831 18.4226L35.6242 18.4717L35.4897 18.5695L36.0778 19.3782ZM45.6546 4.87363L44.8319 5.44218L44.8319 5.44218L45.6546 4.87363ZM27.314 9.13969L5.60089 26.2012L6.83658 27.7738L28.5497 10.7123L27.314 9.13969ZM5.2533 26.7269L2.93075 35.3292L4.86161 35.8505L7.18417 27.2482L5.2533 26.7269ZM3.89269 36.5899L13.7335 36.6242L13.7405 34.6242L3.89966 34.5899L3.89269 36.5899ZM14.3251 36.433L36.6659 20.187L35.4897 18.5695L13.1489 34.8154L14.3251 36.433ZM36.3725 20.3338C39.1445 19.479 43.0355 17.6918 45.5799 15.054C46.8626 13.7243 47.8567 12.122 48.1263 10.2637C48.3991 8.38342 47.9101 6.37833 46.4772 4.30508L44.8319 5.44218C46.0315 7.17777 46.3348 8.68257 46.1471 9.97655C45.9561 11.2926 45.2369 12.5289 44.1405 13.6655C41.9268 15.9604 38.397 17.6166 35.7831 18.4226L36.3725 20.3338ZM46.4772 4.30508C45.0138 2.18755 43.1726 1.11735 41.1677 0.869519C39.2073 0.627185 37.2076 1.18469 35.3919 2.07989C31.7768 3.86226 28.532 7.16131 27.0927 9.38213L28.771 10.4699C30.0388 8.51365 33.023 5.47769 36.2763 3.87372C37.8948 3.07575 39.4891 2.67725 40.9223 2.85441C42.311 3.02607 43.663 3.75088 44.8319 5.44218L46.4772 4.30508Z" fill="white"/>
<path d="M25.4326 7.21484L38.2689 23.5454" stroke="white" stroke-width="2"/>
</svg>
