<svg width="238" height="174" viewBox="0 0 238 174" fill="none" xmlns="http://www.w3.org/2000/svg">
<path d="M28.7967 140.16V138.92C28.7967 132.64 27.0767 130 23.4767 130C19.6767 130 17.5167 133 17.5167 140.28C17.5167 146.72 19.3967 150.24 23.4367 150.24C26.8767 150.24 28.7167 147.92 28.7967 143.2H26.8767C26.7567 146.84 25.6367 148.48 23.5167 148.48C20.9167 148.48 19.5967 145.76 19.5967 140.28V140.16H28.7967ZM23.5167 131.76C25.7967 131.76 26.8767 133.72 26.8767 138.4V138.6H19.6367C19.8767 133.64 21.1967 131.76 23.5167 131.76ZM32.5345 150H34.6145V138.44C34.6145 134.44 36.4945 131.92 39.1345 131.92C41.6545 131.92 42.6945 133.56 42.6945 136.28V150H44.7745V136.04C44.7745 132.4 43.2145 130 39.8145 130C36.6945 130 35.1345 131.84 34.4945 134.8H34.4545L34.6145 130.24H32.5345V150ZM49.5977 150H51.6777V132.12H57.1977V130.24H51.6777V127.56C51.6777 125.32 52.5577 124.04 54.7577 124.04C55.6777 124.04 56.5577 124.24 56.9577 124.4V122.52C56.5577 122.4 55.6377 122.16 54.6377 122.16C51.1977 122.16 49.5977 124.04 49.5977 127.52V130.24H47.0777V132.12H49.5977V150ZM63.4748 150.24C66.1148 150.24 67.5948 148.64 68.1148 145.84H68.1548C68.1148 147.48 68.0348 149.12 67.9948 150H70.0748V136.32C70.0748 132.28 68.2748 130 64.7148 130C61.2348 130 59.3148 131.96 59.3148 135.72C59.3148 136.48 59.3948 137.2 59.4348 137.48H61.3948C61.3548 137.12 61.2748 136.48 61.2748 135.8C61.2748 133.08 62.5148 131.8 64.6348 131.8C66.9548 131.8 67.9948 133.28 67.9948 136.44V139.44H63.9948C60.6748 139.44 58.8748 141.44 58.8748 144.72C58.8748 148.04 60.5148 150.24 63.4748 150.24ZM63.7948 148.44C61.8348 148.44 60.7948 146.92 60.7948 144.6C60.7948 142.32 61.9548 141 64.1148 141H67.9948V141.52C67.9948 146.16 66.4348 148.44 63.7948 148.44ZM73.9689 150H76.0489V138.44C76.0489 134.44 77.9289 131.92 80.5689 131.92C83.0889 131.92 84.1289 133.56 84.1289 136.28V150H86.2089V136.04C86.2089 132.4 84.6489 130 81.2489 130C78.1289 130 76.5689 131.84 75.9289 134.8H75.8889L76.0489 130.24H73.9689V150ZM95.832 150.12C96.952 150.12 97.832 149.96 98.232 149.84V148.04C97.992 148.12 97.272 148.28 96.192 148.28C93.792 148.28 93.032 146.56 93.032 143.88V132.12H98.432V130.24H93.032V125.76H91.272L91.192 129C91.152 129.96 90.912 130.24 90.392 130.24H88.512V132.12H90.952V143.92C90.952 147.68 92.192 150.12 95.832 150.12ZM108.728 157.52H110.808V150.32C110.808 149.52 110.688 147.2 110.648 145.68H110.688C111.288 148.64 112.888 150.24 115.608 150.24C119.288 150.24 121.208 146.64 121.208 139.72C121.208 133.24 119.288 130 115.648 130C112.928 130 111.128 131.64 110.688 134.84H110.648L110.808 130.24H108.728V157.52ZM115.128 148.36C112.408 148.36 110.808 145.52 110.808 141.28V139.76C110.808 134.08 112.608 131.88 115.088 131.88C117.768 131.88 119.128 134.52 119.128 139.8C119.128 145.4 117.728 148.36 115.128 148.36ZM124.944 150H127.024V139.8C127.024 135.08 128.504 131.92 130.984 131.92C132.824 131.92 133.704 133.28 133.704 136.36C133.704 137.96 133.584 139.44 133.504 140.28H135.384C135.464 139.4 135.584 137.68 135.584 136.04C135.584 132.32 134.384 130 131.504 130C128.784 130 127.464 132.2 126.904 135.2H126.864L127.024 130.24H124.944V150ZM149.936 140.16V138.92C149.936 132.64 148.216 130 144.616 130C140.816 130 138.656 133 138.656 140.28C138.656 146.72 140.536 150.24 144.576 150.24C148.016 150.24 149.856 147.92 149.936 143.2H148.016C147.896 146.84 146.776 148.48 144.656 148.48C142.056 148.48 140.736 145.76 140.736 140.28V140.16H149.936ZM144.656 131.76C146.936 131.76 148.016 133.72 148.016 138.4V138.6H140.776C141.016 133.64 142.336 131.76 144.656 131.76ZM153.674 150H155.754V138.36C155.754 134.32 157.234 131.92 159.514 131.92C161.514 131.92 162.394 133.48 162.394 136V150H164.474V137.96C164.474 134.04 165.954 131.92 168.234 131.92C170.274 131.92 171.114 133.48 171.114 136.08V150H173.194V135.84C173.194 132.12 171.754 130 168.874 130C166.514 130 164.834 131.36 164.434 133.8H164.394C164.114 131.4 162.554 130 160.114 130C157.634 130 156.154 131.72 155.674 134.52H155.594L155.754 130.24H153.674V150ZM177.241 128.12H179.441V124.64H177.241V128.12ZM177.321 150H179.401V130.24H177.321V150ZM188.692 150.24C191.612 150.24 193.252 148.24 193.812 145.12H193.852C193.812 146.92 193.732 148.96 193.652 150H195.732V130.24H193.652V141C193.652 145.16 192.012 148.32 189.132 148.32C186.692 148.32 185.612 146.52 185.612 143.68V130.24H183.532V143.92C183.532 147.76 185.172 150.24 188.692 150.24ZM199.795 150H201.875V138.36C201.875 134.32 203.355 131.92 205.635 131.92C207.635 131.92 208.515 133.48 208.515 136V150H210.595V137.96C210.595 134.04 212.075 131.92 214.355 131.92C216.395 131.92 217.235 133.48 217.235 136.08V150H219.315V135.84C219.315 132.12 217.875 130 214.995 130C212.635 130 210.955 131.36 210.555 133.8H210.515C210.235 131.4 208.675 130 206.235 130C203.755 130 202.275 131.72 201.795 134.52H201.715L201.875 130.24H199.795V150Z" fill="white"/>
<rect x="0.466324" y="7.46632" width="237.067" height="166.067" rx="19.5337" stroke="white" stroke-width="0.932648"/>
<path d="M118.234 0C130.504 0.65 141.524 2.26999 152.044 6.73999C161.424 10.73 169.024 16.7499 175.544 24.5299C178.754 28.3699 180.814 32.6499 182.604 37.1399C183.404 39.1299 183.704 41.35 184.024 43.49C184.404 45.99 184.874 48.5399 184.754 51.0399C184.334 59.6099 181.784 67.47 176.604 74.47C172.404 80.14 167.054 84.59 161.404 88.59C157.874 91.09 153.704 92.74 149.674 94.45C145.024 96.42 140.064 97.54 135.134 98.59C132.334 99.18 129.414 99.18 126.544 99.45C124.374 99.66 122.174 100.2 120.034 100.03C115.804 99.6999 111.564 99.34 107.344 98.86C102.624 98.32 98.0841 97.1999 93.5641 95.8999C87.1941 94.0599 81.3441 90.9799 75.7941 87.4399C72.7141 85.4799 69.6041 83.2099 67.3641 80.3999C63.7441 75.8599 59.7341 71.56 57.5041 65.96C55.7041 61.44 55.0441 56.6999 54.1641 52.0299C53.6941 49.5299 54.3341 46.7499 54.8241 44.1599C55.7341 39.4199 57.1241 34.82 59.4141 30.49C61.1141 27.27 63.4141 24.5499 65.7741 21.8899C72.0741 14.7799 79.7141 9.65001 88.6041 6.13C93.5641 4.16 98.6941 3.00989 103.774 1.63989C106.184 0.989893 108.794 1.06993 111.314 0.799927C113.944 0.509927 116.564 0.2 118.234 0ZM85.6341 55.97C86.2041 55.15 87.4141 54.03 87.2041 53.59C86.7641 52.66 85.5641 52.1 84.6941 51.37C84.3441 51.07 84.0641 50.6499 83.6741 50.4399C83.3441 50.2699 82.7841 50.1499 82.5141 50.3099C81.1441 51.1399 79.8141 52.04 78.5141 52.97C78.3041 53.12 78.1041 53.7199 78.1741 53.7799C79.5641 54.9799 80.9241 56.22 82.4641 57.2C82.7841 57.4 83.7541 56.53 84.4541 56.22C84.7441 56.09 85.1241 56.15 85.4541 56.13C85.1341 56.59 84.7341 57.0299 84.5341 57.5399C84.4041 57.8699 84.4341 58.5699 84.6341 58.6799C86.1241 59.5199 87.7341 60.1499 89.1841 61.0399C90.3641 61.7599 91.2741 61.6299 91.6741 60.3999C92.0941 59.1199 94.3541 58.49 93.4741 57.1C92.7541 55.97 91.0841 55.3499 89.7141 54.7999C89.1141 54.5599 88.2041 55 87.4541 55.22C86.8341 55.4 86.2441 55.71 85.6441 55.96L85.6341 55.97ZM119.774 56.33C122.624 56 125.494 55.7799 128.324 55.2999C132.334 54.6199 136.024 52.9999 139.564 51.0499C140.644 50.4499 140.734 49.83 139.784 49.33C136.114 47.41 132.404 45.6799 128.264 44.8099C124.574 44.0399 120.904 44.2399 117.224 44.1899C111.704 44.1099 106.574 45.6999 101.644 48.0199C100.824 48.4099 100.074 48.99 99.3941 49.59C99.2241 49.74 99.2741 50.5399 99.4541 50.6499C100.914 51.5499 102.374 52.4999 103.944 53.1799C108.984 55.3399 114.244 56.3799 119.774 56.3199V56.33ZM119.024 80.2699C119.024 79.7999 119.024 79.34 119.024 78.87C118.984 76.42 118.984 76.44 116.564 76.36C114.134 76.28 111.714 76.1299 109.284 76.0499C109.074 76.0499 108.704 76.3199 108.674 76.5099C108.394 78.2099 108.164 79.91 107.944 81.62C107.804 82.77 108.264 83.3099 109.514 83.2799C111.724 83.2399 113.934 83.29 116.144 83.36C117.014 83.39 117.874 83.5599 118.734 83.6699C118.834 82.7699 118.934 81.86 119.024 80.96C119.044 80.73 119.024 80.4899 119.024 80.2599V80.2699ZM120.184 81.0599L120.434 81.08C120.414 81.42 120.404 81.77 120.384 82.11C120.314 83.77 120.664 84.09 122.114 83.88C123.804 83.64 125.514 83.3999 127.214 83.3199C131.454 83.1299 130.914 83.95 130.894 79.25C130.894 78.91 130.914 78.53 130.794 78.22C130.374 77.12 129.914 76.2799 128.374 76.2799C126.104 76.2799 123.854 76.81 121.564 76.45C121.254 76.3999 120.594 77.0299 120.514 77.4299C120.284 78.6199 120.274 79.8399 120.174 81.0599H120.184ZM107.134 78.3199L107.404 75.84C106.494 75.77 105.554 75.79 104.664 75.6C103.324 75.31 102.024 74.8699 100.704 74.5099C98.1941 73.8199 97.4741 74.2499 96.8441 76.7899C96.7641 77.1199 96.7641 77.4799 96.7141 77.8199C96.4341 79.6866 97.1708 80.8433 98.9241 81.2899C100.474 81.6899 101.994 82.16 103.554 82.49C106.274 83.07 107.024 82.4099 107.124 79.5099C107.134 79.1599 107.124 78.81 107.124 78.33L107.134 78.3199ZM133.514 82.63C135.374 82.35 136.944 82.07 138.524 81.88C143.044 81.34 143.134 81.24 142.104 76.97C141.974 76.42 141.764 75.89 141.614 75.34C141.344 74.32 140.674 74.18 139.754 74.37C137.524 74.83 135.304 75.31 133.054 75.63C132.054 75.77 131.544 76.11 131.694 77.13C131.924 78.71 132.114 80.3 132.484 81.84C132.574 82.22 133.264 82.45 133.514 82.63ZM114.494 90.95C119.464 90.99 119.484 90.9499 119.024 86.0599C118.944 85.2599 118.734 84.79 117.824 84.75C114.864 84.59 111.844 85.17 108.924 84.12C108.714 84.04 108.024 84.5299 107.984 84.8199C107.734 86.5099 107.624 88.2299 107.454 89.9299C109.104 90.2699 110.754 90.6399 112.414 90.9299C113.084 91.0399 113.794 90.95 114.484 90.95H114.494ZM93.8741 80.35C95.0341 80.42 95.0241 80.3999 95.2441 79.3099C95.6041 77.5299 96.0041 75.75 96.3841 73.97C94.5941 73.34 92.7941 72.7099 91.0141 72.0699C90.6941 71.9499 90.4041 71.75 90.0841 71.61C87.7141 70.61 87.4241 70.6899 86.5341 72.9099C86.1141 73.9599 85.7941 75.0699 85.5541 76.1799C85.3941 76.8899 85.6041 77.43 86.4941 77.72C88.9741 78.53 91.4141 79.47 93.8741 80.36V80.35ZM144.684 80.49C145.164 80.3 145.484 80.1699 145.804 80.0499C147.314 79.5199 148.834 78.99 150.354 78.47C153.924 77.25 153.944 77.25 152.674 73.62C152.344 72.68 151.834 71.79 151.404 70.88C150.714 71.26 150.064 71.74 149.334 71.99C148.254 72.35 147.114 72.5399 146.004 72.8099C142.734 73.6099 142.754 73.6099 143.444 76.7999C143.614 77.5899 143.474 78.44 143.694 79.21C143.824 79.69 144.354 80.06 144.704 80.48L144.684 80.49ZM123.904 90.97L123.944 91.1599C125.624 90.8699 127.294 90.5299 128.974 90.3099C131.584 89.9699 131.594 89.9999 131.594 87.2899C131.594 86.4799 131.644 85.66 131.514 84.88C131.464 84.61 130.914 84.22 130.614 84.23C128.574 84.35 126.534 84.65 124.484 84.73C119.854 84.91 120.554 83.88 120.444 89.13C120.424 90.38 120.734 91.14 122.174 90.98C122.744 90.92 123.324 90.97 123.904 90.97ZM106.434 87.4299H106.454C106.454 86.9599 106.404 86.4899 106.454 86.0299C106.644 84.5599 106.024 84.0799 104.544 83.9099C102.394 83.6599 100.284 83.04 98.1541 82.58C96.2341 82.16 96.1841 82.1399 95.7241 83.8899C95.4941 84.7699 95.4441 85.7 95.3341 86.61C95.2241 87.57 95.5841 88.0699 96.6241 88.2599C99.1041 88.6999 101.564 89.2499 104.024 89.7699C106.344 90.2599 106.344 90.28 106.414 88.13C106.414 87.9 106.414 87.6599 106.414 87.4299H106.434ZM119.024 72.38C119.024 71.92 119.024 71.45 119.024 70.99C118.974 68.72 118.974 68.7699 116.764 68.6399C114.824 68.5199 112.904 68.26 110.964 68.11C110.684 68.09 110.154 68.29 110.114 68.48C109.664 70.48 109.284 72.49 108.924 74.5C108.904 74.59 109.224 74.82 109.404 74.84C111.564 75.1 113.714 75.4799 115.884 75.5399C119.384 75.6299 119.004 75.8699 119.034 72.3899L119.024 72.38ZM143.524 85.1399H143.444C143.444 84.3299 143.524 83.51 143.394 82.72C143.354 82.47 142.744 82.0999 142.454 82.1499C140.214 82.5199 137.974 82.9299 135.754 83.4299C134.664 83.6699 133.314 83.8399 132.664 84.5699C132.224 85.0499 132.854 86.45 132.924 87.45C132.964 87.9799 132.714 88.5499 132.834 89.0399C132.944 89.4599 132.994 90.09 133.934 89.87C136.694 89.21 139.494 88.6899 142.294 88.1899C143.124 88.0399 143.534 87.72 143.514 86.87C143.504 86.29 143.514 85.7099 143.514 85.1399H143.524ZM86.1241 70.71C85.9441 70.51 85.7741 70.2299 85.5241 70.0699C84.6541 69.5199 83.7541 69.03 82.8841 68.48C78.7241 65.83 77.6241 66.2299 75.9541 71.0099C75.6341 71.9199 75.7941 72.4699 76.7241 72.9399C78.8641 74.0199 80.9341 75.25 83.0641 76.36C83.3241 76.5 84.0141 76.4199 84.0741 76.2699C84.7941 74.4799 85.4241 72.65 86.1341 70.71H86.1241ZM120.504 71.6499C120.434 72.1099 120.364 72.68 120.264 73.24C119.914 75.16 120.134 75.5499 121.994 75.5299C123.234 75.5099 124.464 75.1199 125.714 74.95C127.174 74.75 128.634 74.6099 130.094 74.4399C129.904 72.9699 129.714 71.5099 129.514 70.0399C129.474 69.6999 129.514 69.2899 129.344 69.0299C129.114 68.6899 128.694 68.24 128.374 68.25C126.074 68.34 123.774 68.5 121.474 68.7C120.384 68.7899 119.674 69.2299 120.344 70.5099C120.494 70.7999 120.444 71.1899 120.494 71.6499H120.504ZM134.314 74.4099C135.534 74.1299 136.764 73.8799 137.964 73.5499C138.814 73.3099 139.864 73.19 140.404 72.61C141.214 71.74 140.534 70.9599 139.664 70.3999C139.584 70.3499 139.994 69.74 139.904 69.48C139.594 68.52 139.344 67.44 138.714 66.74C138.454 66.45 137.264 67.0599 136.494 67.1699C135.804 67.2699 135.084 67.1499 134.414 67.2999C133.094 67.5899 131.794 68 130.494 68.36C130.664 69.47 130.824 70.5699 130.994 71.6799C131.267 73.4733 132.377 74.3832 134.324 74.4099H134.314ZM163.334 71.2899C162.464 69.5899 161.584 67.86 160.704 66.13C159.614 66.75 158.524 67.37 157.434 67.99C157.334 68.05 157.214 68.0699 157.124 68.1399C155.824 69.1099 153.374 69.0399 153.224 70.7999C153.084 72.3499 154.214 74.03 154.884 75.62C154.994 75.88 155.664 76.1699 155.904 76.0599C158.184 74.9799 160.434 73.8499 162.654 72.6499C162.964 72.4799 163.054 71.8999 163.364 71.2999L163.334 71.2899ZM147.824 63.7899C147.444 63.7899 147.314 63.7599 147.214 63.7899C145.034 64.4999 142.844 65.2 140.694 65.98C140.474 66.06 140.314 66.7299 140.394 67.0699C140.524 67.6199 140.914 68.0999 141.114 68.6399C141.594 69.9199 141.694 71.8599 142.584 72.3199C143.464 72.7799 145.144 71.83 146.424 71.36C148.004 70.78 149.524 70.0699 151.074 69.4099C150.294 67.7499 149.534 66.08 148.694 64.46C148.514 64.1 148.014 63.9099 147.824 63.7799V63.7899ZM94.5741 83.25C94.7641 82.13 94.5341 81.3699 92.8741 81.1399C91.0841 80.8899 89.3741 80.05 87.6241 79.48C86.7941 79.21 85.4141 78.5699 85.2141 78.8199C84.6241 79.5799 84.4241 80.6799 84.2241 81.6799C84.1241 82.1899 84.5541 82.8299 84.4041 83.2999C84.1041 84.2399 84.4041 84.47 85.2641 84.71C86.9241 85.17 88.5641 85.72 90.1741 86.34C94.4341 87.98 94.4241 88.01 94.5641 83.25H94.5741ZM108.474 70.0499C108.674 68.5299 108.354 68.0099 107.274 67.9099C106.144 67.7999 105.044 67.4299 103.914 67.2599C102.714 67.0799 101.064 66.46 100.384 67C99.4641 67.74 99.2241 69.3699 98.7941 70.6599C98.1841 72.4699 98.5341 73.0799 100.294 73.4399C102.424 73.8599 104.544 74.28 106.684 74.63C107.024 74.68 107.694 74.45 107.734 74.24C108.074 72.68 108.294 71.0899 108.464 70.0599L108.474 70.0499ZM95.4641 72.2899C96.5941 72.2399 97.3841 72.03 97.3841 70.72C97.3841 70.38 97.4741 70.03 97.5641 69.7C97.8841 68.52 98.8041 67.02 98.3841 66.24C97.9141 65.38 96.2441 65.1299 95.0741 64.6899C93.8141 64.2099 92.5141 63.8299 91.2341 63.3999C90.4941 64.6899 89.7441 65.9799 89.0341 67.2899C88.7641 67.7899 88.5141 68.33 88.3941 68.88C88.3341 69.15 88.5241 69.6799 88.7341 69.7599C90.9641 70.6399 93.2241 71.4599 95.4641 72.2999V72.2899ZM154.684 82.0099C154.684 81.4299 154.744 80.8399 154.674 80.2599C154.494 78.6699 153.894 78.35 152.364 78.96C151.184 79.43 150.024 79.94 148.824 80.34C147.414 80.81 145.984 81.18 144.554 81.59C144.694 83.16 144.844 84.7199 144.964 86.2899C145.034 87.1599 145.324 87.5299 146.284 87.1899C148.344 86.4499 150.444 85.82 152.504 85.11C154.744 84.33 154.734 84.3099 154.684 82.0099ZM152.414 69.0499C153.554 68.4899 154.524 68.0899 155.414 67.5599C156.964 66.6399 158.474 65.6499 160.004 64.6899C158.924 63.1899 157.824 61.7199 156.784 60.1899C156.274 59.4399 155.654 59.4299 154.994 59.7899C153.274 60.7299 151.574 61.7 149.894 62.7C149.234 63.09 149.474 63.6099 149.774 64.1699C150.544 65.5699 151.254 67.0099 152.004 68.4199C152.124 68.6399 152.284 68.8499 152.414 69.0399V69.0499ZM86.0241 68.7699C86.5041 68.3799 87.0341 68.1199 87.3241 67.6799C87.6241 67.2199 87.6241 66.5699 87.8641 66.0599C88.3941 64.9499 88.9941 63.8599 89.5641 62.7699C88.3441 62.1199 87.1241 61.48 85.9141 60.83C85.7141 60.72 85.5241 60.58 85.3141 60.48C83.0741 59.37 82.9441 59.4 81.3341 61.35C78.6841 64.55 78.7041 64.8099 82.1941 66.8999C83.3641 67.5999 84.6541 68.1099 86.0241 68.7699ZM81.9741 58.73C81.7241 58.41 81.5641 58.0899 81.3041 57.8899C80.4941 57.2499 79.6041 56.6999 78.8241 56.0299C76.6541 54.1599 76.6641 54.14 74.6141 56.12C74.4441 56.28 74.2841 56.45 74.1241 56.61C71.3141 59.42 71.3241 59.5899 74.3941 61.9299C74.5741 62.0699 74.7841 62.1699 74.9941 62.2799C76.0741 62.8799 77.1941 63.9599 78.2341 63.8999C78.9141 63.8599 79.4641 62.1299 80.1241 61.1899C80.5241 60.6299 81.0541 60.15 81.4841 59.61C81.6841 59.36 81.8041 59.03 81.9741 58.72V58.73ZM167.684 60.46C167.454 60.63 167.264 60.7599 167.084 60.8999C165.764 61.9899 164.364 63.01 163.174 64.22C162.704 64.7 162.394 65.71 162.554 66.35C162.894 67.78 163.514 69.14 164.114 70.49C164.354 71.03 164.764 71.38 165.454 70.83C167.234 69.41 169.094 68.0799 170.884 66.6699C171.074 66.5199 171.214 66.02 171.114 65.83C170.274 64.21 169.374 62.6199 168.454 61.0399C168.304 60.7799 167.934 60.64 167.684 60.46ZM77.1141 65.7599C76.9041 65.4599 76.7141 65.0299 76.3841 64.7599C75.6741 64.1799 74.8641 63.7199 74.1441 63.1499C73.0841 62.3099 72.0641 61.4099 71.0341 60.5399C70.2941 61.6899 69.5641 62.85 68.8241 64C68.7641 64.1 68.6741 64.1799 68.5941 64.2699C67.7341 65.2699 67.9441 66.19 68.8641 66.99C70.2641 68.19 71.6841 69.3599 73.1141 70.5199C74.4041 71.5699 74.3841 71.54 75.0741 69.98C75.6841 68.61 76.3641 67.28 77.1041 65.75L77.1141 65.7599ZM167.064 59.12C166.484 58.26 165.964 57.3499 165.304 56.5599C163.564 54.5099 162.074 54.3899 160.034 56.0699C159.054 56.8699 157.424 57.5999 157.304 58.5199C157.184 59.4499 158.554 60.58 159.274 61.62C159.724 62.29 160.114 63.01 160.644 63.6C160.864 63.85 161.554 64.0699 161.734 63.9299C163.454 62.5699 165.114 61.13 166.774 59.7C166.924 59.57 166.974 59.31 167.064 59.12ZM74.3941 78.2C74.5841 78.4699 74.9141 79.45 75.5941 79.86C77.6741 81.1 79.8641 82.1499 82.0541 83.2C82.2941 83.32 83.0341 83.0199 83.0741 82.8199C83.3941 81.2699 84.0341 79.5999 83.6841 78.1799C83.4841 77.3499 81.6541 76.9099 80.5441 76.3199C79.6241 75.8299 78.6841 75.3799 77.7541 74.9099C75.1241 73.5999 74.6841 73.86 74.3941 76.85C74.3741 77.08 74.3941 77.31 74.3941 78.2ZM164.614 77.4299C164.494 76.6399 164.434 75.8399 164.234 75.0699C163.974 74.0499 163.534 73.51 162.334 74.24C160.864 75.13 159.264 75.8 157.734 76.58C155.524 77.71 155.544 77.72 156.074 80.47C156.184 81.03 156.134 81.6199 156.164 82.1899C156.224 83.1399 156.694 83.3699 157.534 82.95C159.284 82.07 161.004 81.15 162.784 80.36C164.104 79.77 164.874 78.9799 164.604 77.4299H164.614ZM70.9541 58.1699C71.3841 57.7899 71.8241 57.4499 72.2041 57.0499C73.3141 55.8899 74.4041 54.7199 75.4941 53.5499C74.5341 52.2799 73.2641 51.14 72.6841 49.71C71.9141 47.81 71.0641 49.98 70.2641 49.47C70.0841 49.36 69.1441 50.47 68.5441 51C66.3441 52.95 66.2641 53.45 68.0441 55.58C68.6341 56.29 69.3141 56.9199 69.9741 57.5499C70.2041 57.7699 70.5341 57.8999 70.9541 58.1599V58.1699ZM172.724 52.86C172.154 52.26 171.594 51.54 170.894 50.99C169.834 50.15 168.684 49.4199 167.574 48.6399C166.784 49.6099 165.974 50.5699 165.194 51.5499C164.227 52.7499 164.271 53.9233 165.324 55.0699C165.554 55.3299 165.824 55.5499 166.054 55.8199C168.204 58.3899 168.214 58.41 170.434 56.09C171.064 55.43 171.634 54.7 172.194 53.97C172.404 53.7 172.504 53.35 172.734 52.87L172.724 52.86ZM173.954 54.23C173.754 54.34 173.534 54.42 173.374 54.58C172.484 55.47 171.544 56.3399 170.734 57.3099C169.194 59.1599 169.224 59.5399 170.544 61.7799C171.004 62.5699 171.354 63.42 171.794 64.22C172.274 65.1 172.824 64.9599 173.364 64.2699C174.144 63.2899 174.864 62.2599 175.684 61.3099C177.444 59.2699 177.484 58.81 175.854 56.61C175.374 55.97 174.844 55.37 174.344 54.74C174.204 54.57 174.084 54.4 173.954 54.22V54.23ZM70.0441 59.49C69.9641 59.29 69.9441 59.17 69.8741 59.09C68.5141 57.52 67.1541 55.9499 65.7541 54.4099C65.6641 54.3199 65.1441 54.4699 64.9641 54.6599C64.5641 55.0699 64.2341 55.5499 63.9041 56.0199C61.6141 59.3799 61.5841 59.41 64.2841 62.35C65.1141 63.26 66.1341 63.9999 67.0741 64.8199C67.6141 63.7999 68.1341 62.7699 68.7041 61.7599C68.9841 61.2599 69.3541 60.8099 69.6541 60.3199C69.8241 60.0399 69.9441 59.72 70.0641 59.49H70.0441ZM165.314 74.25C165.314 74.49 165.254 74.9599 165.314 75.4099C165.744 78.1499 166.244 78.3799 168.414 76.7799C169.704 75.8299 170.964 74.8399 172.154 73.7799C172.534 73.4399 172.874 72.7699 172.824 72.2999C172.644 70.7299 172.284 69.18 171.994 67.63C170.894 68.35 169.784 69.0499 168.704 69.7999C167.954 70.3199 167.314 71.01 166.524 71.46C165.474 72.06 165.094 72.88 165.314 74.25ZM127.874 91.72C125.824 91.92 123.324 92.1799 120.814 92.4099C120.224 92.4599 120.134 92.65 120.194 93.25C120.264 93.88 119.864 94.5599 119.974 95.1699C120.044 95.5899 120.634 96.26 120.974 96.25C123.724 96.19 126.474 96 129.224 95.84C131.334 95.71 131.634 95.39 131.624 93.35C131.614 91.82 131.514 91.75 129.374 91.72C129.024 91.72 128.684 91.72 127.874 91.72ZM73.5941 74.6599C74.6141 73.0699 73.6841 72.17 72.1641 71.37C71.3741 70.96 70.7641 70.2 70.0541 69.62C69.2241 68.95 68.3641 68.3199 67.5141 67.6699C67.2341 68.7599 67.0441 69.8799 66.6341 70.9199C66.0941 72.2999 66.4741 73.24 67.6141 74.09C68.9841 75.11 70.2541 76.2799 71.6241 77.3099C72.6941 78.1099 73.4441 77.68 73.5841 76.24C73.6241 75.78 73.5841 75.3199 73.5841 74.6599H73.5941ZM143.554 90.8199C143.584 89.1399 143.594 89.22 141.914 89.59C139.474 90.13 137.014 90.62 134.534 91C133.584 91.15 133.054 91.3799 133.044 92.4299C133.044 92.9799 132.764 93.5199 132.604 94.0699C132.374 94.8499 132.824 95.23 133.474 95.13C135.944 94.74 138.414 94.3299 140.854 93.7999C143.534 93.2199 143.514 93.1499 143.554 90.8199ZM150.394 54.25C150.304 54.25 150.174 54.21 150.094 54.25C148.484 55.16 146.874 56.0699 145.304 57.0399C145.164 57.1299 145.144 57.7399 145.304 57.9299C146.324 59.1599 147.214 60.83 148.544 61.37C149.464 61.75 151.034 60.5699 152.304 60.0499C152.834 59.8299 153.364 59.56 153.844 59.24C154.604 58.73 155.054 58.1099 154.184 57.2799C153.344 56.4799 152.534 55.64 151.654 54.87C151.314 54.58 150.834 54.45 150.404 54.24L150.394 54.25ZM173.264 51.61C173.494 51.44 173.824 51.2999 173.984 51.0599C174.304 50.5899 174.524 50.0499 174.784 49.5399C176.434 46.2499 176.284 45.5599 173.264 43.6699C172.394 43.1299 171.404 42.78 170.474 42.35C170.134 43.19 169.814 44.03 169.454 44.86C169.274 45.28 169.064 45.69 168.814 46.08C168.274 46.95 168.114 47.6799 169.134 48.4099C170.434 49.3299 171.634 50.4099 172.874 51.4099C172.964 51.4799 173.074 51.52 173.254 51.62L173.264 51.61ZM132.554 66.5C134.074 66.25 135.774 66.0399 137.434 65.6799C138.094 65.5399 138.704 65.1199 138.154 64.1799C137.574 63.1899 137.154 62.11 136.574 61.13C136.384 60.81 135.884 60.3899 135.604 60.4399C133.714 60.7799 131.844 61.2699 129.964 61.6399C129.004 61.8299 128.874 62.26 129.254 63.08C129.444 63.49 129.514 63.9499 129.614 64.3899C130.104 66.4399 130.254 66.5599 132.564 66.5199L132.554 66.5ZM113.544 95.84V95.86C115.054 95.86 116.574 95.92 118.074 95.84C119.324 95.78 118.994 94.73 119.034 93.98C119.064 93.29 119.094 92.5299 118.104 92.4399C115.474 92.1999 112.844 91.8899 110.204 91.7699C107.524 91.6499 107.584 91.7299 107.884 94.4099C108.004 95.4199 108.334 95.87 109.354 95.85C110.754 95.82 112.144 95.85 113.544 95.85V95.84ZM146.824 62.13C146.824 60.69 144.024 57.91 142.804 58.22C140.974 58.69 139.234 59.47 137.454 60.13C138.084 61.32 138.714 62.52 139.324 63.72C139.424 63.92 139.334 64.27 139.474 64.38C139.774 64.62 140.224 64.97 140.484 64.88C142.324 64.28 144.134 63.6099 145.934 62.8999C146.314 62.7499 146.594 62.3499 146.814 62.1399L146.824 62.13ZM65.6841 51.61C66.1341 51.27 66.5641 50.8899 67.0441 50.5699C71.1941 47.7799 71.3341 47.2399 68.8441 43.0399C68.7841 42.9399 68.7841 42.75 68.7141 42.73C68.4641 42.65 68.1241 42.5 67.9441 42.61C66.6641 43.37 65.3641 44.1099 64.1841 45.0099C63.7041 45.3799 63.1241 46.2699 63.2741 46.6899C63.8341 48.3099 64.6741 49.83 65.4141 51.38C65.4541 51.47 65.5641 51.52 65.6841 51.62V51.61ZM106.134 66.45C108.754 66.6 108.834 66.56 109.314 65.34C110.554 62.18 110.354 61.8099 106.914 61.0099C106.464 60.9099 105.994 60.9299 105.544 60.8199C103.134 60.2299 103.134 60.2199 102.094 62.1699C101.824 62.6799 101.594 63.21 101.304 63.71C100.824 64.53 101.084 65 101.944 65.25C103.584 65.72 105.224 66.19 106.144 66.46L106.134 66.45ZM114.214 67.22C115.364 67.22 116.524 67.2 117.674 67.24C118.734 67.27 119.094 66.7399 119.054 65.7599C119.024 65.0699 119.024 64.3799 119.054 63.6899C119.104 62.5899 118.454 62.42 117.534 62.34C115.954 62.21 114.394 61.9199 112.814 61.7799C112.414 61.7399 111.704 61.9199 111.624 62.1599C111.124 63.6699 110.764 65.2199 110.354 66.7599C111.524 66.9199 112.704 67.08 113.874 67.23C113.984 67.24 114.104 67.23 114.224 67.23L114.214 67.22ZM106.464 93.4199C106.424 91.6799 106.104 91.3199 104.614 91.0499C102.254 90.6299 99.9041 90.12 97.5341 89.75C96.9141 89.65 95.7941 89.7499 95.6741 90.0599C95.4141 90.7199 95.3741 91.7699 95.7541 92.3099C96.2241 92.9799 97.1441 93.51 97.9641 93.73C100.054 94.3 102.204 94.67 104.324 95.1C105.994 95.44 106.494 95.0499 106.464 93.4299V93.4199ZM95.8441 57.74C95.6141 57.82 95.3441 57.83 95.2241 57.97C94.1641 59.31 93.1341 60.6699 92.0941 62.0199C93.2141 62.5699 94.3241 63.1499 95.4641 63.6799C95.9741 63.9199 96.5241 64.0799 97.0741 64.2599C99.0641 64.8999 99.7341 64.63 100.654 62.74C100.854 62.34 100.774 61.7799 101.024 61.4399C101.924 60.1799 101.384 60.04 100.134 59.72C98.6341 59.33 97.2541 58.42 95.8441 57.75V57.74ZM161.494 53.62C161.364 53.43 161.284 53.1899 161.114 53.0699C160.374 52.5299 159.654 51.9699 158.854 51.5199C157.864 50.9599 156.824 50.1899 155.774 50.1399C155.114 50.1099 154.434 51.27 153.714 51.84C153.184 52.26 152.554 52.57 152.004 52.98C151.634 53.26 151.374 53.52 151.974 53.97C153.434 55.04 154.814 56.21 156.234 57.34C157.764 56.36 159.294 55.3799 160.814 54.3899C161.004 54.2699 161.154 54.0899 161.314 53.9199C161.394 53.8399 161.434 53.72 161.494 53.63V53.62ZM124.554 67.23C127.707 67.2166 128.894 65.8833 128.114 63.23C128.084 63.12 128.114 62.9899 128.074 62.8899C127.724 62.0499 127.124 61.62 126.184 61.73C124.374 61.95 122.574 62.1399 120.764 62.3899C120.544 62.4199 120.174 62.7699 120.194 62.9199C120.364 64.2599 120.264 65.83 120.964 66.83C121.374 67.42 123.084 67.12 124.214 67.22C124.324 67.22 124.444 67.22 124.564 67.22L124.554 67.23ZM76.8641 52.3099C77.0541 52.2199 77.1641 52.18 77.2641 52.12C78.7341 51.25 80.2241 50.39 81.6641 49.48C81.8241 49.38 81.8841 48.83 81.7641 48.61C81.4441 48.01 80.9841 47.4899 80.5941 46.9199C79.2341 44.9499 79.1041 44.81 77.0541 45.72C75.6441 46.35 74.3941 47.36 73.0741 48.2C74.0741 49.42 75.0641 50.65 76.0941 51.85C76.2941 52.08 76.6241 52.19 76.8541 52.33L76.8641 52.3099ZM160.094 45.1399C159.934 45.3599 159.764 45.61 159.574 45.83C159.124 46.36 158.674 46.8899 158.214 47.4099C156.964 48.8199 156.964 48.8199 158.424 49.7799C159.764 50.6599 161.114 51.5199 162.464 52.3899C163.614 51.1499 164.774 49.8999 165.924 48.6599C166.224 48.3299 166.634 47.9699 165.924 47.6599C164.234 46.9199 162.544 46.2 160.854 45.47C160.644 45.38 160.434 45.28 160.104 45.13L160.094 45.1399ZM144.964 91.37C144.774 92.93 144.784 92.9499 146.044 92.5299C148.104 91.8499 150.174 91.18 152.214 90.46C153.914 89.86 154.874 88.7399 154.744 86.8099C154.684 85.9799 154.684 85.53 153.604 86C151.714 86.82 149.774 87.52 147.804 88.13C145.274 88.91 145.254 88.85 144.954 91.37H144.964ZM94.5641 91.8199C94.4941 91.6199 94.3341 91.3 94.2641 90.97C93.8641 89.04 93.8741 89.0399 92.5441 88.5699C90.0641 87.6899 87.5741 86.8299 85.1041 85.9299C84.6041 85.7499 84.2541 85.58 84.1941 86.33C84.0641 88.21 84.9441 89.6699 86.7141 90.2799C88.9841 91.0699 91.2841 91.7399 93.5441 92.5699C94.3041 92.8499 94.5841 92.77 94.5541 91.83L94.5641 91.8199ZM58.4141 51.7699C58.4541 51.9599 58.4441 52.1099 58.5141 52.1599C59.8241 53.1199 59.2741 54.81 60.0241 55.98C60.4441 56.64 60.9341 57.25 61.3941 57.88C61.7341 57.29 61.9641 56.56 62.4441 56.13C65.0741 53.81 64.4841 51.4299 62.7641 48.9399C62.5241 48.5899 62.5641 48.0499 62.3541 47.6499C62.2841 47.4999 61.7441 47.4 61.6441 47.49C60.7541 48.39 59.8741 49.2999 59.0741 50.2799C58.7341 50.6999 58.6041 51.2999 58.4041 51.7599L58.4141 51.7699ZM178.114 57.3199C178.294 57.1699 178.554 57.06 178.634 56.87C179.314 55.3 179.994 53.74 180.574 52.13C180.714 51.75 180.594 51.1599 180.374 50.8099C179.704 49.7499 178.954 48.73 178.154 47.75C178.004 47.56 177.244 47.5299 177.184 47.6399C176.274 49.3699 175.434 51.1399 174.574 52.8999C175.414 54.1299 176.264 55.36 177.104 56.59C177.234 56.78 177.304 57.0299 177.474 57.1599C177.634 57.2799 177.894 57.2699 178.114 57.3199ZM169.484 42.1C169.104 41.82 168.884 41.55 168.614 41.46C166.974 40.97 165.324 40.4899 163.664 40.0699C163.384 39.9999 162.844 40.13 162.744 40.33C162.174 41.44 161.544 42.5699 161.304 43.7699C161.254 44.0299 162.744 44.5799 163.504 45.0199C164.394 45.5499 165.244 46.17 166.164 46.62C166.474 46.77 167.224 46.67 167.344 46.45C168.114 45.06 168.764 43.61 169.494 42.1H169.484ZM78.2641 43.7599C78.1741 43.5299 78.1441 43.4099 78.0841 43.3199C77.4341 42.2699 76.9441 41.0099 76.0341 40.2599C75.5941 39.8999 74.3641 40.4999 73.4941 40.6499C73.1541 40.7099 72.7941 40.6699 72.4641 40.7599C70.0441 41.3999 69.7041 42.1299 70.7141 44.4399C70.9941 45.0699 71.2541 45.7299 71.6541 46.2699C71.8441 46.5299 72.4541 46.7799 72.7041 46.6699C74.3541 45.9199 75.9641 45.0799 77.5841 44.2599C77.8441 44.1299 78.0541 43.9299 78.2641 43.7699V43.7599ZM115.924 11.96C116.394 11.96 116.864 11.91 117.324 11.96C118.744 12.13 119.054 11.41 119.084 10.12C119.174 6.31999 119.174 6.26995 115.344 6.44995C113.051 6.56328 112.184 7.6533 112.744 9.71997C112.834 10.05 112.864 10.4099 112.864 10.7599C112.864 11.6699 113.364 11.97 114.184 11.95C114.764 11.94 115.344 11.95 115.924 11.95V11.96ZM61.8241 40.5499C61.8241 41.1899 61.7341 41.68 61.8441 42.11C62.0341 42.88 62.3441 43.61 62.5941 44.36C63.2441 44.05 63.9241 43.7799 64.5541 43.4199C65.0541 43.1399 65.4441 42.61 65.9641 42.46C68.2141 41.8 67.9741 40.17 67.6341 38.47C67.5941 38.25 67.4441 38.05 67.4041 37.83C67.2941 37.28 67.2041 36.7199 67.1141 36.1699C66.4641 36.3099 65.6441 36.24 65.2041 36.62C63.8541 37.79 61.1441 37.8999 61.8241 40.5499ZM172.214 36.0399C171.944 36.2299 171.674 36.32 171.654 36.45C171.414 37.91 170.854 39.4499 171.134 40.8099C171.304 41.6099 172.834 42.1099 173.734 42.7799C174.374 43.2599 174.994 43.7899 175.614 44.2999C176.134 44.7299 176.414 44.51 176.524 43.95C176.844 42.3899 177.154 40.8399 177.444 39.2799C177.474 39.0999 177.424 38.79 177.314 38.72C175.614 37.8 173.894 36.9199 172.214 36.0499V36.0399ZM119.064 16.1799C119.064 15.4899 119.044 14.8 119.064 14.11C119.114 13.05 118.564 12.69 117.584 12.75C117.014 12.79 116.424 12.7099 115.864 12.7899C113.824 13.0999 113.284 13.8799 113.714 15.8199C113.884 16.5899 114.214 17.36 114.224 18.13C114.234 19.35 114.764 19.67 115.904 19.7C119.054 19.78 119.054 19.8299 119.064 16.5199C119.064 16.3999 119.064 16.2899 119.064 16.1699V16.1799ZM178.534 64.83C178.534 64.36 178.584 64.1099 178.534 63.8999C178.314 63.0399 178.294 61.6699 177.774 61.4399C176.554 60.8899 176.644 62.4799 176.074 63.0699C175.034 64.1499 173.574 65.15 173.174 66.46C172.784 67.74 173.494 69.3499 173.714 70.8199C173.734 70.9299 173.714 71.0499 173.724 71.1699C173.754 71.8399 174.074 72.0299 174.524 71.5199C175.354 70.5699 176.054 69.49 176.924 68.58C178.014 67.45 178.964 66.32 178.544 64.84L178.534 64.83ZM123.984 6.5V6.44995C123.404 6.44995 122.824 6.49994 122.254 6.43994C120.864 6.28994 120.404 6.96 120.504 8.25C120.564 9.05 120.524 9.85992 120.524 10.6699C120.524 11.4899 120.854 11.97 121.734 11.96C122.424 11.96 123.114 11.97 123.804 11.96C125.974 11.93 126.254 11.7099 126.744 9.52991C126.844 9.08991 126.774 8.57994 126.964 8.18994C127.494 7.12994 126.964 6.6699 126.054 6.5199C125.384 6.4099 124.674 6.5 123.984 6.5ZM109.634 7.1499C108.004 7.4399 106.774 7.68999 105.524 7.85999C104.334 8.01999 104.264 8.72997 104.644 9.58997C105.194 10.83 105.554 12.3699 106.514 13.1399C107.094 13.6099 108.644 12.8499 109.764 12.6699C110.104 12.6099 110.494 12.72 110.804 12.6C111.454 12.35 112.064 12.07 111.664 11.1C111.284 10.16 111.204 9.07991 110.784 8.15991C110.554 7.65991 109.874 7.35991 109.634 7.15991V7.1499ZM169.694 40.2999C169.524 40.4199 169.974 40.2699 170.014 40.0499C170.264 38.7199 170.824 37.2699 170.504 36.0699C170.104 34.5299 168.314 35.32 167.154 34.98C166.934 34.92 166.744 34.7399 166.534 34.6799C164.324 34.1499 162.734 35.66 163.274 37.84C163.394 38.32 163.874 38.9299 164.314 39.0599C165.934 39.5399 167.614 39.8399 169.684 40.2899L169.694 40.2999ZM75.7341 36.6799C75.4441 34.4899 75.0141 34.12 73.0441 34.48C71.9241 34.68 70.8141 34.9099 69.7141 35.1799C69.4141 35.2499 68.9441 35.4699 68.9141 35.6799C68.6641 37.1699 68.5041 38.78 69.5641 39.95C69.8941 40.31 71.1441 39.89 71.9641 39.75C72.7441 39.62 73.5141 39.3899 74.2841 39.1899C75.7841 38.7999 75.9741 38.4599 75.7441 36.6799H75.7341ZM98.7041 15.62C98.6641 15.37 98.6641 15.2599 98.6341 15.1499C97.3641 11.5999 95.1341 10.81 91.8341 12.75C90.1941 13.71 90.1441 14.2699 91.5941 15.5199C91.8541 15.7399 92.1341 15.94 92.4241 16.13C93.3341 16.75 94.2441 17.84 95.1541 17.83C96.1341 17.83 97.1141 16.7899 98.0741 16.1799C98.3341 16.0199 98.5341 15.77 98.7141 15.62H98.7041ZM138.924 15.0699C138.924 15.0699 139.194 14.9599 139.364 14.7699C139.744 14.3399 140.064 13.8599 140.424 13.4099C141.104 12.5499 141.794 11.69 142.474 10.83C141.414 10.4 140.374 9.90992 139.294 9.53992C136.574 8.59992 136.544 8.61 135.104 11.13C134.714 11.81 134.474 12.59 134.244 13.35C134.194 13.53 134.434 13.9599 134.614 14.0099C135.934 14.3799 137.284 14.6799 138.924 15.0699ZM144.364 11.38C144.064 11.52 143.714 11.61 143.474 11.83C142.794 12.46 142.114 13.0999 141.514 13.8099C139.984 15.6299 140.034 15.7999 142.204 16.8999C143.851 17.7332 145.361 17.4799 146.734 16.1399C147.314 15.5699 147.924 15.0299 148.474 14.4299C148.644 14.2399 148.764 13.6699 148.704 13.6399C147.284 12.8699 145.844 12.1499 144.354 11.3899L144.364 11.38ZM66.5041 66.5099C66.3941 66.3699 66.2041 66.11 65.9941 65.88C64.8341 64.6 63.6841 63.3099 62.4941 62.0499C62.1841 61.7199 61.7641 61.5 61.4041 61.23C61.2941 61.66 61.1541 62.0899 61.0941 62.5299C60.9141 63.7599 60.2641 65.2399 60.7241 66.1599C61.5841 67.8799 63.0841 69.2699 64.3541 70.7699C64.4941 70.9299 65.1041 70.9599 65.1141 70.9299C65.5941 69.5199 66.0241 68.0999 66.5141 66.5099H66.5041ZM110.914 20.34L110.974 20.5199C111.744 20.3499 112.854 20.4099 113.184 19.9299C113.494 19.4799 112.934 18.4699 112.824 17.6899C112.744 17.1199 112.834 16.52 112.754 15.95C112.434 13.71 111.884 13.38 109.614 13.96C109.174 14.07 108.704 14.0999 108.244 14.1499C107.284 14.2399 107.134 14.88 107.334 15.63C107.754 17.17 108.214 18.71 108.744 20.22C108.854 20.52 109.354 20.87 109.664 20.86C110.084 20.86 110.494 20.52 110.914 20.33V20.34ZM127.814 13.3999C127.554 13.6699 127.044 13.96 126.904 14.38C126.624 15.23 126.594 16.1599 126.384 17.0399C125.734 19.8199 125.894 19.92 128.694 20.48C129.784 20.69 130.384 20.76 130.684 19.59C131.084 18.05 131.524 16.53 131.904 14.99C131.964 14.75 131.844 14.25 131.714 14.22C130.504 13.92 129.284 13.6899 127.804 13.3899L127.814 13.3999ZM100.354 15.1699C102.004 14.6499 103.424 14.22 104.814 13.73C104.914 13.69 104.914 13.0899 104.804 12.8199C104.494 12.0799 104.094 11.3699 103.724 10.6499C102.644 8.5399 102.624 8.49991 100.494 9.27991C99.3141 9.70991 98.2041 10.33 97.0641 10.86C97.8141 11.97 98.5441 13.1099 99.3341 14.1899C99.6641 14.6299 100.144 14.9699 100.354 15.1599V15.1699ZM135.154 8.47998C134.844 8.25998 134.614 7.97993 134.344 7.92993C132.894 7.64993 131.444 7.41994 129.984 7.18994C128.914 7.01994 128.164 7.28996 128.194 8.57996C128.194 8.90996 128.094 9.25996 128.014 9.57996C127.464 11.64 127.764 12.22 129.724 12.63C130.504 12.79 131.304 12.8299 132.104 12.8999C132.394 12.9299 132.884 12.98 132.954 12.85C133.704 11.45 134.394 10.01 135.144 8.47998H135.154ZM90.1241 21.62C90.6741 21.13 91.2141 20.57 91.8341 20.1C93.9941 18.44 94.0041 18.45 91.9541 16.97C91.4841 16.63 91.0041 16.32 90.5541 15.96C89.2474 14.9333 88.0008 14.9633 86.8141 16.0499C86.4741 16.3599 86.1641 16.7199 85.8041 17.0099C84.9841 17.6799 84.8841 18.24 85.9041 18.84C87.0941 19.54 88.2441 20.3199 89.4041 21.0699C89.5941 21.1999 89.7741 21.35 90.1341 21.62H90.1241ZM68.6941 32.61C68.8741 32.99 69.1841 33.9699 69.3641 33.9399C71.1641 33.7099 72.9641 33.3799 74.7241 32.9299C75.1241 32.8299 75.5841 32.2399 75.6741 31.7999C76.3241 28.8199 76.2941 28.8099 73.4641 28.8099C72.6541 28.8099 71.8341 28.9099 71.0341 28.8099C69.8041 28.6599 69.3941 29.48 69.0841 30.36C68.8541 31 68.8441 31.7 68.6941 32.61ZM122.114 19.6399V19.72C122.814 19.67 123.764 19.8799 124.134 19.5099C124.614 19.0199 124.614 18.0599 124.854 17.3199C124.964 16.9899 125.224 16.7 125.294 16.37C125.484 15.49 126.004 14.0399 125.684 13.7999C124.814 13.1799 123.594 12.9399 122.484 12.7899C120.924 12.5799 120.204 13.29 120.154 14.98C120.114 16.32 120.174 17.6699 120.244 19.0099C120.254 19.2299 120.534 19.56 120.734 19.61C121.184 19.7 121.664 19.6399 122.124 19.6399H122.114ZM154.494 18.0199C154.394 17.8299 154.334 17.59 154.174 17.46C153.184 16.68 152.204 15.8699 151.154 15.1799C150.854 14.9799 150.194 14.9699 149.914 15.1799C148.624 16.1299 147.404 17.17 146.174 18.2C146.034 18.31 145.944 18.5999 145.984 18.7799C146.234 20.0699 149.024 21.48 150.224 20.84C151.544 20.15 152.784 19.3199 154.054 18.5299C154.234 18.4199 154.344 18.18 154.494 18V18.0199ZM138.274 16.63C138.244 16.57 138.184 16.3099 138.054 16.2699C136.654 15.7999 135.244 15.3599 133.834 14.9199C133.364 15.9099 132.864 16.8899 132.434 17.8999C132.164 18.5299 131.894 19.18 131.784 19.85C131.584 21 132.344 21.5499 133.304 21.8199C133.904 21.9899 134.964 22.2799 135.114 22.0599C136.254 20.3399 137.214 18.5 138.274 16.63ZM166.334 28.83V28.7999C165.864 28.7999 165.404 28.7799 164.934 28.7999C163.344 28.8799 162.894 29.48 163.254 30.97C163.764 33.08 165.574 33.26 167.224 33.6C168.304 33.83 169.414 33.8999 170.504 34.0399C170.374 32.9199 170.204 31.7899 170.114 30.6699C170.014 29.3799 169.324 28.82 168.074 28.83C167.494 28.83 166.914 28.83 166.334 28.83ZM104.334 22.3099C105.524 22.0199 106.514 21.7999 107.494 21.5299C107.624 21.4899 107.804 21.12 107.744 20.97C107.104 19.13 106.464 17.28 105.734 15.47C105.634 15.22 104.954 14.98 104.664 15.09C103.484 15.5 102.354 16.0399 101.204 16.5399C101.634 17.4799 102.044 18.42 102.504 19.35C102.904 20.18 103.334 20.9999 103.794 21.7999C103.944 22.0599 104.234 22.2299 104.334 22.3199V22.3099ZM143.354 19.3099C143.274 19.1499 143.254 19.01 143.164 18.96C142.114 18.31 141.094 17.5399 139.954 17.1399C139.694 17.0499 138.944 18.1699 138.494 18.7799C138.014 19.4199 137.554 20.0799 137.194 20.7899C136.314 22.5199 136.474 22.91 137.934 23.87C139.164 24.67 139.874 24.4299 140.574 23.1399C141.164 22.0499 142.054 21.12 142.814 20.11C143.014 19.85 143.194 19.5699 143.364 19.3199L143.354 19.3099ZM88.9241 22.35C88.8141 22.16 88.7441 21.8799 88.5741 21.7899C86.9841 20.8899 85.3741 20.0099 83.7641 19.1599C83.6041 19.0699 83.2141 19.1 83.1241 19.22C82.3341 20.3 81.5741 21.4099 80.8141 22.5199C81.4741 22.8699 82.1341 23.2199 82.7941 23.5599C83.7141 24.0299 84.6241 24.5199 85.5741 24.9199C86.5941 25.3599 89.0741 23.42 88.9141 22.35H88.9241ZM154.994 19.1599C153.644 19.9699 152.054 20.91 150.494 21.87C150.354 21.95 150.204 22.29 150.264 22.38C150.834 23.24 151.344 24.19 152.094 24.84C152.404 25.11 153.324 24.81 153.904 24.6C155.094 24.17 156.264 23.66 157.394 23.1C157.744 22.93 158.164 22.5199 158.194 22.1899C158.284 21.2099 156.134 19.0399 154.984 19.1599H154.994ZM83.5441 88.2999C83.3041 86.5899 83.1641 85.2499 81.6641 84.5299C80.1041 83.7799 78.5941 82.9499 77.0641 82.1399C76.2641 81.7099 75.4841 81.2499 74.6841 80.8099C74.8241 81.7799 74.8041 82.81 75.1441 83.71C75.3941 84.38 76.0141 85.0399 76.6341 85.3999C78.5441 86.4699 80.5241 87.41 82.4941 88.36C82.7341 88.47 83.0941 88.3399 83.5341 88.2999H83.5441ZM164.564 82.1699L164.424 81.0299C164.064 81.1499 163.684 81.2299 163.344 81.3999C161.384 82.3899 159.424 83.3799 157.494 84.4299C157.024 84.6799 156.434 85.0699 156.294 85.5099C155.994 86.4699 155.454 88.0099 155.884 88.4299C156.864 89.3999 157.454 87.6899 158.374 87.3899C159.674 86.9699 160.814 86.0399 162.104 85.5699C163.814 84.9399 164.114 83.4999 164.564 82.1699ZM81.9841 18.73C81.5941 18.37 81.3341 17.92 80.9841 17.83C79.6641 17.5 78.1841 16.8399 77.0041 17.1799C76.0041 17.4599 75.3441 18.94 74.5241 19.88C74.2241 20.23 73.8941 20.5599 73.5841 20.8999C73.1441 21.3899 73.2141 21.69 73.9141 21.73C75.0641 21.79 76.3541 21.53 77.3441 21.96C78.5841 22.5 79.2941 22.2799 80.0141 21.3199C80.6341 20.4999 81.2641 19.68 81.9941 18.72L81.9841 18.73ZM67.3341 29.2799C66.1441 29.8399 65.2341 30.3 64.2941 30.71C63.4341 31.09 62.6341 31.47 62.5041 32.58C62.3441 33.92 62.1041 35.25 61.8941 36.58C63.0941 36.15 64.2941 35.7099 65.4941 35.2899C65.8141 35.1799 66.1941 35.16 66.4641 34.97C66.7941 34.74 67.1841 34.4199 67.2841 34.0599C67.5841 32.9699 67.8241 31.86 67.9341 30.73C67.9741 30.32 67.5841 29.8599 67.3241 29.2699L67.3341 29.2799ZM102.704 22.6699C102.604 22.4599 102.504 22.2499 102.404 22.0399C101.894 20.9999 101.414 19.9399 100.884 18.9099C99.7641 16.7199 99.7541 16.72 97.6041 17.86C97.2941 18.02 96.9941 18.19 96.6841 18.36C95.8741 18.81 95.9041 19.49 96.3241 20.12C96.8941 20.99 97.5941 21.76 98.2041 22.61C99.5241 24.47 100.594 24.6199 102.354 23.1499C102.504 23.0299 102.594 22.8299 102.714 22.6699H102.704ZM75.0741 23.2599C74.4541 23.1599 73.7841 23.02 73.1141 22.95C72.8541 22.93 72.4241 22.9999 72.3341 23.1699C71.6641 24.4399 71.0641 25.7399 70.4341 27.0199C71.5541 27.1299 72.6741 27.26 73.7941 27.35C74.3641 27.39 74.9441 27.34 75.5241 27.37C76.4441 27.42 77.0041 27.17 77.2041 26.12C77.3241 25.5 77.9141 24.97 78.2441 24.38C78.6341 23.67 78.2741 23.2999 77.5741 23.2599C76.7741 23.2099 75.9641 23.25 75.0941 23.25L75.0741 23.2599ZM171.634 31.61C171.064 33.88 172.264 35.04 174.244 35.71C175.164 36.02 176.074 36.3499 176.984 36.6699C176.964 35.5399 177.134 34.3599 176.874 33.2899C176.254 30.7999 173.954 30.31 171.924 29.58C171.804 29.54 171.324 30.0199 171.304 30.2799C171.284 30.7099 171.504 31.15 171.634 31.62V31.61ZM144.854 19.6899C144.304 20.1699 143.884 20.4199 143.634 20.7799C142.844 21.9099 142.134 23.1 141.344 24.23C140.774 25.03 140.684 25.7599 141.574 26.2899C142.384 26.7699 143.194 27.6599 144.214 26.3899C145.134 25.2399 146.284 24.2699 147.294 23.1899C147.504 22.9599 147.724 22.3899 147.624 22.2899C146.754 21.3999 145.814 20.58 144.844 19.7L144.854 19.6899ZM165.684 21.4299C165.534 21.0999 165.484 20.8599 165.334 20.6799C164.464 19.6099 163.584 18.5499 162.664 17.5299C162.484 17.3299 162.044 17.2099 161.784 17.2699C160.244 17.6599 158.724 18.1099 157.204 18.5399C158.034 19.6099 158.834 20.7 159.704 21.73C159.944 22.01 160.424 22.25 160.774 22.22C162.134 22.12 163.494 21.91 164.854 21.71C165.134 21.67 165.394 21.5199 165.674 21.4199L165.684 21.4299ZM85.5441 26.7699C85.2641 26.4399 84.9341 25.78 84.4041 25.49C83.4041 24.94 82.2741 24.6399 81.2341 24.1799C80.1641 23.6999 79.4741 23.9499 79.0541 25.0499C78.8441 25.5899 78.5541 26.09 78.2741 26.6C77.8441 27.37 77.9141 27.8399 78.9041 28.0499C80.1341 28.3099 81.3441 28.6599 82.5541 29.0199C84.2441 29.5199 85.4541 28.7499 85.5541 26.7799L85.5441 26.7699ZM119.064 24.7C119.064 23.89 119.134 23.0699 119.034 22.2599C118.984 21.8799 118.714 21.33 118.394 21.2C116.284 20.33 114.864 21.33 114.994 23.63C115.044 24.64 115.304 25.6599 115.594 26.6399C115.974 27.9299 116.724 28.25 118.144 28C119.384 27.78 118.994 26.83 119.064 26.09C119.114 25.63 119.064 25.16 119.064 24.7ZM161.394 27.61C160.774 24.5 159.254 23.6899 156.484 24.7899C156.054 24.9599 155.644 25.1799 155.234 25.3899C153.324 26.3399 153.104 27.1099 154.434 28.6899C154.734 29.0399 155.444 29.31 155.884 29.22C157.564 28.9 159.224 28.44 160.874 28C161.094 27.94 161.274 27.7 161.394 27.62V27.61ZM165.594 27.6499L165.674 27.37C166.134 27.37 166.594 27.39 167.054 27.37C168.804 27.28 168.924 26.89 168.384 25.24C167.664 23.04 165.994 23.07 164.234 23.2C163.234 23.27 162.234 23.46 161.234 23.6C161.654 24.64 161.834 25.9399 162.584 26.6499C163.274 27.3099 164.564 27.3499 165.594 27.6599V27.6499ZM94.2741 19.96C93.5041 20.45 92.8241 20.8699 92.1441 21.3099C91.4741 21.7499 91.1641 22.1599 91.8841 22.9199C92.9941 24.0899 93.9541 25.39 95.0341 26.59C95.3141 26.9 95.8141 27.2399 96.1741 27.1899C97.4541 27.0399 98.4641 25.05 97.7641 23.99C96.9341 22.74 95.9541 21.5999 95.0041 20.4399C94.8141 20.1999 94.4641 20.09 94.2641 19.96H94.2741ZM56.9641 44.5199C57.2441 46.3399 57.4241 47.6799 57.6741 49.0099C57.6941 49.1399 58.2741 49.3299 58.3141 49.2699C59.3941 47.9599 60.9441 46.74 61.3341 45.23C61.6841 43.9 60.7641 42.22 60.3541 40.71C60.3141 40.56 59.7441 40.38 59.6641 40.45C58.4141 41.76 57.2541 43.1399 56.9441 44.5199H56.9641ZM162.404 32.0199C162.414 29.7699 161.804 29.18 159.894 29.5C158.674 29.71 157.464 30.08 156.284 30.49C155.834 30.65 155.194 31.12 155.174 31.47C155.134 32.24 155.414 33.0299 155.614 33.7999C155.634 33.8899 155.974 33.9799 156.144 33.95C157.934 33.6199 159.744 33.3199 161.514 32.8899C161.924 32.7899 162.214 32.1999 162.404 32.0099V32.0199ZM160.754 15.8099C160.624 15.6199 160.534 15.3899 160.354 15.2599C159.624 14.7099 158.864 14.2099 158.144 13.6499C156.264 12.1899 154.724 12.14 152.614 13.45C151.934 13.87 151.954 14.3599 152.474 14.7999C153.074 15.3199 153.814 15.6799 154.414 16.1899C155.264 16.9099 155.864 17.9599 157.324 17.0399C158.244 16.4599 159.474 16.3599 160.554 16.0299C160.634 16.0099 160.684 15.8799 160.754 15.8099ZM111.804 21.7599C111.174 21.7999 110.664 21.7299 110.264 21.8999C109.944 22.0399 109.474 22.5199 109.524 22.7599C109.844 24.3099 110.404 25.8199 110.644 27.3899C110.844 28.6799 111.554 28.83 112.574 28.7C113.674 28.57 114.264 27.91 114.144 26.83C114.014 25.59 113.524 24.3599 113.564 23.1399C113.614 21.4599 112.964 21.2599 111.794 21.7699L111.804 21.7599ZM181.984 45.8899C182.424 43.5999 180.994 41.97 179.324 40.47C179.214 40.38 178.654 40.5399 178.634 40.6399C178.234 43.1299 176.744 45.7799 179.664 47.8099C180.234 48.2099 180.654 48.82 181.144 49.34C181.424 48.6 181.744 47.88 181.974 47.12C182.074 46.8 181.994 46.43 181.994 45.88L181.984 45.8899ZM123.974 24.12C124.004 23.76 123.954 22.9199 124.194 22.1699C124.424 21.4199 124.354 21.11 123.554 21.1C122.624 21.1 121.694 21.09 120.764 21.1C120.084 21.1 120.214 21.46 120.244 22C120.324 23.79 120.224 25.59 120.244 27.38C120.244 27.59 120.524 27.94 120.724 27.98C123.384 28.48 123.914 28.0299 123.984 25.2799C123.984 25.0499 123.984 24.81 123.984 24.13L123.974 24.12ZM83.2041 17.21C83.2041 17.21 83.4041 17.21 83.5641 17.08C84.7441 16.16 85.9141 15.2399 87.0441 14.2799C87.1841 14.1599 87.1541 13.5399 87.0841 13.5099C85.7041 13.0699 84.1241 12.0699 82.9741 12.4299C81.3141 12.9399 79.9641 14.4499 78.5041 15.5599C78.4441 15.5999 78.5741 16.08 78.6741 16.1C80.1041 16.48 81.5541 16.81 83.2041 17.21ZM157.894 38.5C158.474 38.5 159.044 38.51 159.624 38.5C161.664 38.45 162.494 37.6099 162.364 35.5599C162.334 35.1599 161.734 34.46 161.444 34.48C159.634 34.63 157.844 34.93 156.044 35.22C155.874 35.25 155.654 35.51 155.614 35.7C155.444 36.56 155.324 37.4399 155.184 38.3099C155.854 38.3699 156.524 38.44 157.204 38.5C157.434 38.52 157.664 38.5 157.894 38.5ZM83.6141 31.21C83.6141 31.21 83.3641 30.5 82.9241 30.34C81.4441 29.8 79.8841 29.4799 78.3641 29.0299C77.6341 28.8099 77.3741 29.0799 77.1941 29.7599C76.4041 32.6299 76.3841 32.64 79.4041 33.36C80.5041 33.62 81.6241 33.7899 82.7541 33.9299C82.9541 33.9599 83.3441 33.6999 83.3941 33.5199C83.5241 32.9699 83.5241 32.4 83.6241 31.21H83.6141ZM153.824 11.0099C153.574 10.8399 153.354 10.6399 153.094 10.5099C151.754 9.81989 150.414 9.11998 149.054 8.47998C147.884 7.93998 145.664 8.75989 145.374 10.0099C145.074 11.2999 146.614 11.0499 147.204 11.6499C147.354 11.7999 147.614 11.85 147.824 11.96C149.824 12.9733 151.651 12.8666 153.304 11.6399C153.484 11.5099 153.594 11.2899 153.824 11.0099ZM80.8341 38.5C81.6341 38.5 82.4441 38.54 83.2441 38.47C83.4341 38.45 83.7441 38.1099 83.7541 37.8999C83.8241 36.2199 83.0641 35.3499 81.4041 35.0499C80.8541 34.9499 80.3141 34.75 79.7641 34.62C76.7741 33.91 76.4641 34.2899 77.1341 37.2599C77.3741 38.3099 77.8441 38.5499 78.7641 38.5099C79.4541 38.4699 80.1441 38.5099 80.8341 38.5099V38.5ZM89.8741 23.2999C89.2641 24.2099 88.6241 25.13 88.0241 26.09C87.9741 26.18 88.1341 26.49 88.2641 26.59C89.7341 27.7 91.1741 28.83 92.7141 29.83C93.0041 30.02 93.7741 29.75 94.1541 29.46C94.5341 29.17 95.0041 28.2599 94.9141 28.1799C93.4041 26.7899 92.8941 24.46 90.7241 23.7C90.5041 23.62 90.3041 23.5099 89.8641 23.2999H89.8741ZM134.554 23.87C133.864 23.54 133.134 23.19 132.394 22.83C131.824 22.55 131.244 22.4199 131.024 23.1899C130.524 24.9199 129.954 26.6499 129.694 28.4199C129.524 29.5899 130.824 29.73 131.624 29.95C131.944 30.04 132.704 29.4799 132.864 29.0599C133.474 27.4799 133.924 25.84 134.554 23.86V23.87ZM107.844 22.3999C106.674 22.8099 105.624 23.03 104.814 23.58C104.604 23.73 105.104 24.9699 105.334 25.6799C105.614 26.5499 105.974 27.3999 106.284 28.2599C106.954 30.0999 106.944 30.07 108.774 29.47C109.314 29.29 109.834 29.42 109.554 28.45C109.074 26.81 108.894 25.0899 108.524 23.4099C108.444 23.0499 108.094 22.74 107.844 22.38V22.3999ZM127.864 21.7799C125.644 21.6699 125.574 21.7499 125.414 23.9299C125.344 24.8299 125.384 25.81 125.034 26.61C124.394 28.09 125.644 28.12 126.334 28.48C127.084 28.87 127.944 28.94 128.254 27.84C128.614 26.54 128.904 25.2199 129.234 23.8999C129.714 21.9599 129.654 21.8599 127.874 21.7799H127.864ZM148.994 23.34C148.674 23.53 148.444 23.6099 148.284 23.7599C147.134 24.8999 145.954 26.02 144.894 27.24C144.614 27.56 144.494 28.33 144.684 28.72C145.644 30.71 146.014 30.7299 147.664 29.1599C148.504 28.3599 149.334 27.5499 150.224 26.8199C150.644 26.4699 151.474 26.3 151.034 25.61C150.484 24.76 149.674 24.07 148.994 23.34ZM156.894 43.3899C157.174 43.3999 157.714 43.28 158.094 43.48C159.214 44.07 159.754 43.66 160.104 42.6C160.254 42.16 160.484 41.76 160.714 41.35C161.174 40.52 160.754 40.2299 160.044 39.7899C158.084 38.5599 156.504 40.14 154.804 40.47C154.264 40.57 153.964 41.9699 153.554 42.7799C154.264 42.9899 154.954 43.22 155.674 43.38C156.004 43.46 156.364 43.3899 156.904 43.3899H156.894ZM90.9741 7.92993C89.8041 8.48993 88.8541 8.8899 87.9441 9.3999C86.9941 9.9299 86.1041 10.55 85.1941 11.13C86.2541 11.75 87.2841 12.42 88.3741 12.95C88.6741 13.09 89.2341 12.89 89.5941 12.7C90.7941 12.04 91.9741 11.34 93.1341 10.61C93.3341 10.48 93.5641 9.97996 93.5241 9.95996C92.6641 9.23996 91.7641 8.55995 90.9641 7.94995L90.9741 7.92993ZM139.164 5.03992C138.734 5.60992 138.084 6.24 137.754 7C137.314 8.03 138.484 7.97993 138.934 8.17993C140.074 8.68993 141.344 8.90998 142.524 9.34998C143.184 9.59998 143.754 10.04 144.394 9.34998C144.944 8.75998 145.504 8.17998 146.064 7.59998C145.314 7.19998 144.594 6.70992 143.804 6.41992C142.404 5.92992 140.964 5.55992 139.174 5.03992H139.164ZM105.514 30.4199C104.874 28.3799 104.304 26.5299 103.734 24.6899C103.524 24.0199 103.144 24.1799 102.704 24.4399C102.304 24.6699 101.894 24.8799 101.464 25.0399C100.344 25.4699 100.184 26.04 100.824 27.13C101.514 28.3 101.854 29.6699 102.444 30.8999C102.644 31.3199 103.344 31.94 103.514 31.86C104.264 31.49 104.904 30.8899 105.514 30.4299V30.4199ZM102.064 7.3999C101.814 7.0699 101.654 6.89996 101.534 6.70996C100.564 5.23996 99.3641 4.89995 97.7141 5.69995C96.4841 6.29995 95.1141 6.62996 93.8141 7.07996C93.4941 7.18996 93.1641 7.2999 92.8441 7.3999C93.1341 7.7299 93.3841 8.11 93.7241 8.38C95.0541 9.47001 96.4641 9.6599 98.0741 8.8999C99.1041 8.4099 100.244 8.1399 101.324 7.7699C101.574 7.6799 101.804 7.53991 102.074 7.40991L102.064 7.3999ZM84.6241 44.25V44.2C84.3941 44.2 84.1441 44.15 83.9341 44.2C82.9541 44.4799 81.9941 44.79 81.0241 45.09C81.6041 46.03 82.1041 47.04 82.8241 47.87C83.1041 48.2 83.8741 48.2399 84.4041 48.1899C85.0741 48.1199 85.7341 47.86 86.3641 47.6C86.9641 47.35 87.5241 46.9899 88.0941 46.6899C87.5241 45.8799 87.0441 44.9599 86.3241 44.3099C86.0041 44.0199 85.2041 44.2599 84.6241 44.2599V44.25ZM112.584 5.6499C114.884 5.3599 116.594 5.21 118.274 4.88C118.604 4.81 118.934 4.06998 119.024 3.59998C119.154 2.83998 118.854 2.1799 117.924 2.2699C115.994 2.4499 114.064 2.67992 112.144 2.91992C110.694 3.09992 110.494 3.46 111.324 4.62C111.724 5.17 112.414 5.5199 112.594 5.6499H112.584ZM130.134 3.16992C130.004 3.45992 129.764 3.99991 129.504 4.52991C129.224 5.06991 128.984 5.56992 129.854 5.78992C131.274 6.14992 132.684 6.54 134.104 6.88C135.774 7.29 136.934 6.65989 137.544 5.00989C137.604 4.85989 137.334 4.41989 137.164 4.38989C134.944 3.97989 132.724 3.60992 130.144 3.16992H130.134ZM103.954 7.04993C105.924 6.72993 107.414 6.58993 108.834 6.17993C109.284 6.04993 109.904 5.01994 109.764 4.68994C109.484 4.01994 109.504 2.70994 107.974 3.18994C106.344 3.69994 104.634 3.93996 102.964 4.32996C102.564 4.42996 102.194 4.66998 101.804 4.84998C101.994 5.24998 102.084 5.7599 102.384 6.0199C102.964 6.5099 103.654 6.85993 103.944 7.04993H103.954ZM73.5841 82.2999C73.6941 80.7599 73.5341 79.8099 72.2841 79.0599C70.6241 78.0699 69.1741 76.7199 67.6241 75.5399C67.4441 75.3999 67.2341 75.32 67.0341 75.2C66.9341 75.49 66.6841 75.83 66.7541 76.08C66.9641 76.82 67.1141 77.71 67.6241 78.21C69.1841 79.73 70.8941 81.0999 72.5541 82.5099C72.7941 82.7099 73.1241 82.81 73.4041 82.95L73.5841 82.2899V82.2999ZM148.884 53.48C148.744 53.3 148.634 53.06 148.444 52.95C146.084 51.54 143.204 51.6899 141.374 53.3199C141.254 53.4299 141.144 53.69 141.184 53.84C141.424 54.68 143.694 56.28 144.494 55.95C145.964 55.35 147.324 54.49 148.734 53.73C148.804 53.69 148.834 53.56 148.884 53.47V53.48ZM154.334 44.1599C152.614 43.9499 151.904 45.32 151.014 46.34C150.904 46.46 151.094 47.1099 151.234 47.1499C152.764 47.5299 154.414 48.31 155.814 48C156.924 47.75 157.734 46.14 158.674 45.13C157.684 44.86 156.704 44.5599 155.714 44.3199C155.264 44.2099 154.794 44.2199 154.334 44.1699V44.1599ZM91.0841 33.58C91.2941 33.41 91.6041 33.2599 91.7741 33.0199C92.3941 32.0999 92.7741 31.18 91.6141 30.33C90.5941 29.59 89.5541 28.8499 88.6141 28.0099C87.8241 27.3099 87.2141 27.3099 86.5941 28.1499C85.6841 29.3699 85.6841 30.05 86.6541 30.71C87.8841 31.55 89.1441 32.3599 90.3941 33.1799C90.5841 33.2999 90.7841 33.41 91.0941 33.58H91.0841ZM89.0741 48.34C88.4641 48.37 88.2141 48.3199 88.0041 48.3999C86.9941 48.8199 86.0041 49.27 85.0141 49.71C85.6741 50.31 86.3741 50.8699 86.9941 51.5099C87.9141 52.4599 88.8341 52.82 90.0641 51.99C90.7241 51.55 91.5241 51.29 92.2941 51.09C92.9341 50.93 93.0941 50.73 92.6341 50.24C91.5741 49.09 90.3241 48.31 89.0741 48.33V48.34ZM150.824 48.2C148.974 47.9 148.004 49.12 146.994 50.23C146.844 50.39 146.794 50.87 146.924 51C148.084 52.2 150.564 52.5799 151.784 51.6599C152.714 50.9599 153.524 50.0799 154.384 49.2799C153.204 48.9199 152.014 48.57 150.834 48.21L150.824 48.2ZM125.784 5.63989C127.204 5.85989 127.934 5.13 128.374 3.88C128.544 3.39 128.744 3.01994 128.014 2.93994C125.964 2.70994 123.914 2.40993 121.864 2.29993C121.294 2.26993 120.704 2.83 120.124 3.12C120.544 3.73 120.854 4.7 121.414 4.87C122.814 5.31999 124.324 5.39989 125.794 5.63989H125.784ZM175.504 29.0599C175.134 28.3399 174.654 27.6499 174.434 26.8899C173.804 24.7099 171.974 24.0099 170.154 23.2899C169.884 23.1799 169.414 23.2499 169.194 23.4299C169.014 23.5699 168.944 24.0299 169.014 24.2999C169.794 27.3599 172.074 28.6799 174.924 29.3199C175.084 29.3599 175.294 29.1699 175.514 29.0699L175.504 29.0599ZM153.574 29.5199C152.964 28.7899 152.524 27.78 151.844 27.58C150.854 27.28 147.264 30.5399 147.164 31.6899C147.124 32.1799 147.434 32.7799 147.774 33.1799C147.914 33.3399 148.594 33.18 148.934 32.99C150.234 32.28 151.514 31.54 152.754 30.73C153.074 30.52 153.224 30.0499 153.564 29.5099L153.574 29.5199ZM138.644 25.8099C138.284 25.5799 137.884 25.1699 137.414 25.0399C136.814 24.8699 135.674 24.7199 135.604 24.8999C134.924 26.5699 134.334 28.2999 133.954 30.0599C133.874 30.4199 134.684 31.0999 135.214 31.4299C135.464 31.5799 136.264 31.36 136.384 31.11C137.174 29.47 137.834 27.7699 138.654 25.8099H138.644ZM166.064 83.5C167.874 81.03 170.994 80.36 171.994 77.47C172.064 77.25 172.194 77.0299 172.174 76.8099C172.144 76.4899 172.104 76.0599 171.894 75.8899C171.724 75.7499 171.224 75.8 170.994 75.96C169.954 76.68 168.994 77.51 167.954 78.21C166.374 79.27 165.834 80.84 165.654 82.6C165.634 82.8 165.844 83.02 166.064 83.49V83.5ZM81.1941 39.96C80.3841 39.96 79.5641 39.95 78.7541 39.98C78.5541 39.98 78.2541 40.1099 78.1841 40.2699C77.9141 40.8599 79.7141 43.4599 80.4341 43.3999C81.9141 43.2599 83.3741 42.9599 84.8341 42.6899C84.9941 42.6599 85.1841 42.4399 85.2341 42.2699C85.4041 41.6699 84.2741 40.02 83.6341 39.98C82.8241 39.93 82.0041 39.97 81.1941 39.97V39.96ZM182.554 57.36C182.384 56.67 182.194 55.9099 182.004 55.1399C181.924 54.8199 181.814 54.51 181.714 54.2C181.444 54.4 181.074 54.5499 180.934 54.8099C180.284 56.0199 179.684 57.25 179.114 58.49C178.724 59.33 179.434 62.73 180.074 63.23C180.704 62.17 181.434 61.1599 181.934 60.0399C182.294 59.2399 182.354 58.29 182.554 57.35V57.36ZM56.9041 56.2999C56.8641 58.7499 57.7441 61.7199 58.7641 63.0499C58.8941 63.2199 59.1441 63.2999 59.3341 63.4199C59.4341 63.2299 59.5641 63.05 59.6241 62.86C60.6741 59.29 60.6841 59.2799 58.8041 55.6899C58.5341 55.1699 58.0341 54.7699 57.6441 54.3099C57.4041 54.9199 57.1341 55.5299 56.9241 56.1599C56.8541 56.3699 56.9141 56.6199 56.9141 56.2999H56.9041ZM64.2741 29.1799C66.3341 28.2899 68.8841 28.49 69.5241 25.75C69.6541 25.21 70.0441 24.73 70.2641 24.2C70.3741 23.94 70.3441 23.62 70.3841 23.33C70.0541 23.31 69.7041 23.2299 69.3841 23.2699C66.3541 23.7099 65.0741 25.98 64.0441 28.47C63.9741 28.64 64.1941 28.9399 64.2741 29.1699V29.1799ZM94.3041 51.6899C93.5541 51.8899 93.0741 51.9299 92.6841 52.1399C91.8041 52.5999 90.9641 53.1399 90.1141 53.6499C90.9241 54.0899 91.7241 54.55 92.5541 54.96C95.0841 56.23 96.0741 56.12 97.7341 54.37C97.8941 54.21 97.9041 53.5899 97.7841 53.5299C96.5941 52.8499 95.3641 52.2399 94.3041 51.6899ZM119.064 31.7899H119.034C119.034 31.0999 119.084 30.4 119.014 29.71C118.984 29.44 118.604 28.96 118.514 28.99C117.574 29.3 115.964 29.57 115.874 30.08C115.604 31.6 115.944 33.2299 116.064 34.8099C116.064 34.8699 116.244 34.92 116.344 34.96C117.834 35.57 119.014 34.7999 119.074 33.1799C119.094 32.7199 119.074 32.2499 119.074 31.7899H119.064ZM111.474 32.95C111.474 33.2 111.494 33.78 111.474 34.35C111.434 35.38 111.914 35.75 112.934 35.73C114.664 35.71 114.934 35.5499 114.844 33.7599C114.794 32.7599 114.394 31.7799 114.284 30.7699C114.164 29.7199 113.614 29.25 112.694 29.59C111.894 29.89 110.494 30.04 111.384 31.59C111.534 31.86 111.444 32.2699 111.484 32.9399L111.474 32.95ZM129.654 60.3899C131.504 60.0199 132.944 59.7399 134.394 59.4299C135.234 59.2499 135.184 58.7199 134.784 58.1799C133.884 56.9499 132.754 56.39 131.194 56.97C130.464 57.24 129.654 57.32 128.874 57.46C127.484 57.7 127.284 58.04 128.144 59.2C128.554 59.75 129.244 60.0799 129.664 60.3999L129.654 60.3899ZM101.704 32.2599C101.154 30.7599 100.684 29.36 100.124 28C99.8241 27.26 99.4341 26.44 98.3641 26.95C97.2141 27.5 96.9041 28.35 97.4341 29.36C98.1041 30.67 98.7641 31.9699 99.4341 33.2799C99.7941 33.9799 100.774 34.0899 101.224 33.4299C101.464 33.0699 101.564 32.62 101.714 32.25L101.704 32.2599ZM138.984 54.62C137.784 55.07 136.494 55.5399 135.224 56.0499C134.534 56.3299 134.934 56.6699 135.194 57.0599C136.414 58.8999 136.404 58.8999 138.734 58.1599C139.714 57.8499 140.734 57.61 141.674 57.22C141.844 57.15 141.944 56.2399 141.794 56.1399C140.944 55.5899 140.004 55.16 138.984 54.63V54.62ZM139.144 34.08C139.354 33.85 139.814 33.58 139.884 33.22C140.214 31.57 140.994 30.1799 142.194 29.0299C142.954 28.3099 142.244 28.21 141.794 27.88C139.774 26.42 139.644 26.44 138.764 28.71C138.394 29.68 137.984 30.63 137.624 31.6C137.324 32.41 138.124 33.88 139.144 34.08ZM115.354 60.86C116.274 60.86 117.214 60.9699 118.104 60.8099C118.474 60.7399 118.944 60.0999 118.984 59.6799C119.034 59.2199 118.654 58.3199 118.424 58.2999C116.714 58.1799 114.974 58.1399 113.274 58.3199C112.854 58.3699 112.304 59.29 112.214 59.87C112.064 60.83 112.924 60.85 113.624 60.86C114.204 60.86 114.774 60.86 115.354 60.86ZM99.7541 54.58C99.0841 54.94 98.1641 55.3799 97.3341 55.9399C97.1941 56.0299 97.2941 56.91 97.4641 56.97C98.8341 57.53 100.244 58.01 101.664 58.45C102.744 58.78 103.924 57.9599 103.974 56.7C103.984 56.32 103.214 55.7899 102.694 55.5399C101.874 55.1599 100.964 54.9599 99.7541 54.5699V54.58ZM123.594 60.8899V60.85C124.524 60.85 125.444 60.85 126.374 60.85C127.224 60.85 127.104 60.4999 126.974 59.7999C126.744 58.5399 126.214 58 124.914 58.11C123.884 58.2 122.834 58.1099 121.794 58.1699C120.984 58.2099 119.924 59.55 120.244 60.34C120.384 60.69 121.294 60.7999 121.864 60.8899C122.424 60.9799 123.014 60.9099 123.594 60.9099V60.8899ZM109.064 60.1499C109.444 60.1499 109.684 60.1899 109.914 60.1499C110.824 59.9799 111.344 59.4 111.364 58.48C111.394 57.48 110.624 57.4999 109.924 57.4399C109.354 57.3899 108.784 57.34 108.224 57.21C106.324 56.78 105.134 57.21 104.234 58.73C104.154 58.87 104.354 59.3799 104.484 59.4099C106.054 59.6999 107.634 59.9299 109.064 60.1499ZM85.9641 31.58C85.5041 31.78 85.2341 31.81 85.1241 31.96C84.4741 32.82 85.0241 34.5199 86.0441 35.0299C87.0741 35.5499 88.0341 36.1799 89.0741 36.6699C89.4041 36.8299 90.1741 36.84 90.2241 36.71C90.4541 36.14 90.8041 35.1399 90.5641 34.9399C89.0741 33.6899 87.4341 32.6199 85.9741 31.5699L85.9641 31.58ZM107.264 33.49C107.404 34.07 107.654 35.3 108.044 36.49C108.114 36.71 108.804 36.93 109.114 36.83C110.184 36.5 110.924 35.8499 110.644 34.5499C110.404 33.4399 110.244 32.2999 109.954 31.2C109.884 30.95 109.404 30.5999 109.164 30.6399C107.404 30.9099 107.234 31.15 107.264 33.49ZM125.354 29.59C125.224 29.76 124.824 30.06 124.804 30.37C124.734 31.85 124.704 33.34 124.774 34.83C124.824 35.8 125.704 35.7899 126.324 35.6699C126.744 35.5899 127.304 35.11 127.404 34.71C127.714 33.52 127.874 32.2799 128.004 31.0599C128.034 30.8099 127.794 30.3699 127.564 30.2699C126.944 29.9999 126.274 29.87 125.344 29.6L125.354 29.59ZM154.014 32.83C153.934 32.44 154.084 31.2899 153.044 31.8099C151.524 32.5699 150.114 33.62 148.824 34.73C148.474 35.03 148.684 35.9999 148.644 36.6599C149.134 36.6399 149.684 36.75 150.114 36.58C151.074 36.2 151.944 35.61 152.914 35.25C154.014 34.83 154.164 34.04 154.024 32.83H154.014ZM123.284 32.33H123.334C123.334 31.87 123.184 31.33 123.364 30.95C123.944 29.7 123.544 29.4599 122.274 29.3899C120.544 29.2899 120.554 29.1399 120.514 30.9199C120.494 31.8499 120.734 32.8699 120.414 33.6799C119.934 34.8999 120.344 34.9499 121.374 35.0699C123.244 35.2799 123.244 35.36 123.284 33.72C123.294 33.26 123.284 32.79 123.284 32.33ZM141.374 36.2899C141.574 36.2099 141.854 36.1799 141.964 36.0299C142.894 34.7099 143.974 33.45 144.624 32C144.874 31.44 144.114 30.43 143.824 29.62C143.304 29.99 142.604 30.25 142.294 30.75C141.564 31.93 140.984 33.2 140.404 34.46C140.084 35.17 140.744 36.3199 141.374 36.2799V36.2899ZM131.724 33.9099L131.604 33.88C131.744 33.34 132.024 32.78 131.974 32.25C131.934 31.81 131.544 31.0799 131.244 31.0499C130.534 30.9799 129.184 31.18 129.164 31.38C129.004 32.94 128.994 34.55 129.184 36.1C129.234 36.48 130.204 36.9699 130.794 37.0199C132.054 37.1299 130.974 36.0199 131.394 35.5299C131.714 35.1599 131.634 34.4599 131.734 33.8999L131.724 33.9099ZM98.9341 34.98C98.2141 33.1 97.5841 31.2799 96.1041 29.9299C95.9441 29.7899 95.4341 29.81 95.2541 29.96C94.5541 30.54 93.8541 31.15 94.6341 32.2C95.4541 33.29 96.1741 34.4499 97.0041 35.5199C97.2241 35.7999 97.7741 36.1099 98.0241 36.0199C98.3841 35.8899 98.5941 35.39 98.9241 34.98H98.9341ZM74.5441 18.33C74.0341 17.96 73.8141 17.69 73.5341 17.63C71.6841 17.2 70.8241 18.65 69.8041 19.7C69.0541 20.47 68.4641 21.3999 67.8041 22.2599C68.9141 22.0799 70.2041 22.1999 71.0741 21.6499C72.3441 20.8399 73.3141 19.55 74.5341 18.33H74.5441ZM171.454 22.0399C170.344 20.7299 169.524 19.4499 168.404 18.5399C167.684 17.9499 166.544 17.83 165.564 17.6C165.024 17.48 164.744 17.75 165.064 18.36C166.394 20.87 167.594 21.7499 170.564 22.2799C170.774 22.3199 171.034 22.1599 171.454 22.0299V22.0399ZM135.464 33.99C135.734 33.61 133.754 31.75 133.414 31.88C133.334 31.91 133.254 32.04 133.244 32.13C133.014 33.9 132.734 35.67 132.644 37.45C132.624 37.75 133.454 38.35 133.864 38.33C134.274 38.31 134.904 37.7399 135.014 37.3099C135.294 36.2399 135.334 35.1 135.464 33.99ZM106.504 36.3099C106.434 35.2699 106.404 34.2599 106.254 33.2799C106.214 32.9999 105.814 32.5299 105.614 32.5499C104.974 32.5999 104.314 32.7599 103.734 33.0399C103.564 33.1199 103.574 33.76 103.654 34.11C103.874 35.23 104.124 36.3499 104.454 37.4399C104.564 37.7999 104.934 38.0799 105.184 38.3899C105.604 38.0299 106.084 37.7299 106.404 37.2999C106.584 37.0699 106.484 36.6299 106.514 36.3199L106.504 36.3099ZM119.054 38.62C119.054 38.39 119.034 38.1599 119.054 37.9399C119.164 36.6699 118.434 36.44 117.364 36.45C116.314 36.4599 115.554 36.6499 115.654 37.9399C115.694 38.3899 115.664 38.8499 115.654 39.3099C115.644 40.1099 115.944 40.54 116.834 40.61C118.724 40.76 119.034 40.52 119.044 38.63L119.054 38.62ZM178.804 33.83C178.704 34.23 178.614 34.53 178.544 34.85C178.044 37.41 179.504 39.11 181.144 40.72C181.304 40.87 181.524 40.9599 181.724 41.0699C181.804 40.8599 181.994 40.6199 181.944 40.45C181.304 38.42 181.414 36.1 179.694 34.49C179.454 34.26 179.154 34.09 178.804 33.84V33.83ZM57.5341 39.3199L57.8141 40.2999C58.1041 40.1599 58.4041 40.05 58.6641 39.87C60.9741 38.37 60.1441 35.6899 61.0041 33.6399C60.7641 33.5799 60.3841 33.39 60.2941 33.48C58.7141 35.1 57.7041 36.9999 57.5341 39.3199ZM107.884 97.22C108.284 97.52 108.504 97.83 108.764 97.86C110.024 98 111.284 98.0699 112.544 98.1699C114.374 98.3099 116.194 98.4899 118.024 98.5599C118.304 98.5699 118.604 98.08 118.894 97.83C118.624 97.67 118.374 97.38 118.094 97.36C115.004 97.13 111.864 97.6799 108.824 96.6799C108.634 96.6199 108.324 96.96 107.894 97.21L107.884 97.22ZM90.6941 39.7999C90.2941 39.1299 90.1541 38.5799 89.8241 38.3899C88.4241 37.5799 86.9741 36.8699 85.5141 36.1699C85.4141 36.1199 84.9141 36.56 84.9441 36.6C85.3841 37.47 85.6841 38.57 86.4041 39.08C87.2941 39.71 88.5341 39.8899 89.6441 40.1799C89.8941 40.2499 90.2341 39.9799 90.7041 39.7999H90.6941ZM154.034 36.5499C153.764 36.4899 153.304 36.22 153.054 36.35C151.654 37.08 150.264 37.86 148.944 38.73C148.664 38.91 148.674 39.5199 148.544 39.9399C148.894 39.9799 149.264 40.1199 149.584 40.0399C150.564 39.7999 151.524 39.42 152.514 39.2C153.794 38.91 154.074 38.0299 154.034 36.5499ZM138.594 35.63C138.274 35.29 137.674 34.6599 137.074 34.0299C136.914 34.5999 136.744 35.18 136.584 35.75C136.374 36.52 136.004 37.2799 136.004 38.0499C136.004 38.7799 136.364 39.53 136.694 40.22C136.754 40.34 137.724 40.24 137.754 40.12C138.064 38.8 138.274 37.46 138.594 35.62V35.63ZM122.904 98.7599C125.284 98.4799 127.554 98.2099 129.814 97.9399C130.034 97.9099 130.294 97.8999 130.474 97.7799C130.634 97.6699 130.774 97.44 130.814 97.25C130.834 97.16 130.564 96.9199 130.434 96.9299C128.024 97.0499 125.624 97.15 123.214 97.34C122.144 97.42 120.834 96.81 120.134 98.23C121.084 98.41 122.024 98.5999 122.904 98.7699V98.7599ZM111.214 39.24C111.524 40.01 111.684 41.0199 112.004 41.0699C112.574 41.1599 113.264 40.7299 113.844 40.3999C114.094 40.2599 114.294 39.8599 114.354 39.5399C114.514 38.6799 114.594 37.7999 114.704 36.9299C113.844 37.0399 112.864 36.93 112.174 37.33C111.654 37.63 111.524 38.58 111.224 39.24H111.214ZM146.724 34.3999C146.504 34.0199 146.344 33.5299 146.004 33.2699C145.864 33.1599 145.214 33.46 145.014 33.73C144.114 34.93 143.234 36.1599 142.464 37.4399C142.304 37.6999 142.544 38.2899 142.744 38.6499C142.834 38.8099 143.444 38.8999 143.554 38.7799C144.624 37.5699 145.644 36.3099 146.644 35.0499C146.754 34.9099 146.704 34.6399 146.734 34.3999H146.724ZM93.3841 33.2599C92.6441 33.4199 92.3241 34.8599 92.9241 35.6499C93.6941 36.6599 94.5341 37.6199 95.3841 38.5599C95.5241 38.7199 95.9941 38.81 96.1141 38.7C96.3441 38.49 96.6541 38.01 96.5641 37.85C95.7541 36.34 94.8641 34.8699 93.9741 33.3999C93.8941 33.2799 93.5841 33.3 93.3841 33.25V33.2599ZM152.854 40.25C152.004 40.56 151.094 40.7599 150.324 41.1899C149.334 41.7499 147.664 41.67 147.824 43.49C148.884 43.45 149.954 43.47 151.004 43.34C151.964 43.22 153.274 41.5599 153.224 40.6599C153.224 40.5199 152.994 40.39 152.864 40.25H152.854ZM103.164 37.5499C102.934 36.6499 102.774 35.7499 102.424 34.9299C102.314 34.6799 101.644 34.55 101.254 34.6C100.994 34.63 100.534 35.0899 100.564 35.2899C100.854 36.8499 101.234 38.3899 101.624 39.9299C101.664 40.0999 101.934 40.3299 102.064 40.3199C102.264 40.2899 102.544 40.0999 102.594 39.9199C102.814 39.1599 102.964 38.3799 103.154 37.5599L103.164 37.5499ZM123.274 38.6399C123.274 36.5699 123.194 36.38 121.204 36.49C118.644 36.64 121.444 37.77 120.934 38.37C120.724 38.61 120.594 38.9799 120.554 39.3099C120.434 40.1599 120.834 40.56 121.704 40.59C123.034 40.64 123.274 40.3699 123.274 38.6399ZM124.694 37.83C124.694 38.41 124.684 38.64 124.694 38.87C124.774 40.39 125.794 41.5199 127.284 41.1799C128.574 40.8899 127.114 39.75 127.434 39C127.554 38.72 127.544 38.1399 127.374 38.0199C126.684 37.5399 125.914 37.1799 125.164 36.7799L124.694 37.83ZM74.8541 16.1599C75.2541 16.0699 75.8941 16.0899 76.3341 15.8099C77.3841 15.1299 78.3741 14.3399 79.3341 13.5299C79.7341 13.1899 79.9941 12.68 80.3141 12.24C79.6741 12.31 78.9141 12.18 78.4141 12.48C76.9541 13.36 75.5841 14.3899 74.2041 15.3899C74.0841 15.4799 74.0041 15.8699 74.0641 15.9099C74.2341 16.0299 74.4841 16.0499 74.8641 16.1599H74.8541ZM104.784 97.4399L104.824 97.23C105.564 97.28 106.314 97.3399 107.054 97.3899C106.734 96.0299 105.524 96.64 104.744 96.45C102.414 95.85 100.044 95.44 97.6841 94.98C97.4041 94.93 97.0941 94.9999 96.8041 95.0199C97.0041 95.2699 97.1641 95.67 97.4141 95.73C99.8641 96.33 102.324 96.8699 104.774 97.4299L104.784 97.4399Z" fill="white"/>
</svg>
