<svg width="38" height="36" viewBox="0 0 37 36" fill="none" xmlns="http://www.w3.org/2000/svg">
<path d="M16.6099 1.60549C17.3099 -0.0142128 19.6066 -0.0142131 20.3065 1.60549L23.9864 10.1209C24.278 10.7958 24.9143 11.2581 25.6462 11.3269L34.882 12.1952C36.6387 12.3604 37.3485 14.5447 36.0243 15.7109L29.0628 21.842C28.5111 22.3279 28.2681 23.0759 28.4288 23.7933L30.457 32.8454C30.8428 34.5672 28.9847 35.9171 27.4664 35.0182L19.4841 30.292C18.8515 29.9175 18.065 29.9175 17.4324 30.292L9.45009 35.0182C7.93179 35.9171 6.07369 34.5672 6.45947 32.8454L8.48766 23.7933C8.6484 23.0759 8.40537 22.3279 7.85366 21.842L0.892138 15.7109C-0.432003 14.5447 0.277728 12.3604 2.03445 12.1952L11.2702 11.3269C12.0022 11.2581 12.6385 10.7958 12.9301 10.1209L16.6099 1.60549Z" fill="#0F54E4"/>
</svg>
