<svg width="194" height="476" viewBox="0 0 194 476" fill="none" xmlns="http://www.w3.org/2000/svg">
<path d="M113.584 293.635L79.0866 293.635" stroke="#1D1D1B" stroke-width="1.87015"/>
<path d="M132.285 275.867L58.5146 275.867" stroke="#1D1D1B" stroke-width="1.87015"/>
<path d="M144.441 252.471L38.8782 254.361" stroke="#1D1D1B" stroke-width="1.87015"/>
<path d="M156.598 230.029L33.1676 234.705" stroke="#1D1D1B" stroke-width="1.87015"/>
<path d="M163.143 206.652L25.6864 211.328" stroke="#1D1D1B" stroke-width="1.87015"/>
<path d="M162.207 184.211L20.0755 188.886" stroke="#1D1D1B" stroke-width="1.87015"/>
<path d="M156.598 161.768L19.1415 165.508" stroke="#1D1D1B" stroke-width="1.87015"/>
<path d="M158.467 144.937L20.0755 143.066" stroke="#1D1D1B" stroke-width="1.87015"/>
<path d="M155.662 133.716L24.7515 119.689" stroke="#1D1D1B" stroke-width="1.87015"/>
<path d="M136.961 117.821L36.9078 99.1191" stroke="#1D1D1B" stroke-width="1.87015"/>
<path d="M122.934 100.054L54.673 78.5469" stroke="#1D1D1B" stroke-width="1.87015"/>
<path d="M91.2422 73.8915L74.3104 58.9102" stroke="#1D1D1B" stroke-width="1.87015"/>
<path d="M119.193 334.758L88.3358 348.784" stroke="#1D1D1B" stroke-width="1.87015"/>
<path d="M123.869 354.395L77.1153 372.161" stroke="#1D1D1B" stroke-width="1.87015"/>
<path d="M127.609 375.9L61.219 391.797" stroke="#1D1D1B" stroke-width="1.87015"/>
<path d="M143.506 394.602L48.1281 409.563" stroke="#1D1D1B" stroke-width="1.87015"/>
<path d="M152.857 418.914L40.6483 428.265" stroke="#1D1D1B" stroke-width="1.87015"/>
<path d="M160.338 443.227L36.9078 448.837" stroke="#1D1D1B" stroke-width="1.87015"/>
<path d="M87.4013 37.4023L93.0117 52.3636" stroke="#1D1D1B" stroke-width="1.87015"/>
<path d="M101.427 19.6367L103.297 26.1823" stroke="#1D1D1B" stroke-width="1.87015"/>
<path d="M160.338 469.408L38.778 469.408" stroke="#1D1D1B" stroke-width="1.87015"/>
<circle cx="100.74" cy="7.48061" r="7.48061" transform="rotate(90 100.74 7.48061)" fill="#1D1D1B"/>
<circle cx="83.2538" cy="24.965" r="7.48061" transform="rotate(90 83.2538 24.965)" fill="#1D1D1B"/>
<circle cx="65.7674" cy="48.2814" r="7.48061" transform="rotate(90 65.7674 48.2814)" fill="#1D1D1B"/>
<circle cx="42.453" cy="71.5978" r="7.48061" transform="rotate(90 42.453 71.5978)" fill="#1D1D1B"/>
<circle cx="24.9667" cy="94.9122" r="7.48061" transform="rotate(90 24.9667 94.9122)" fill="#1D1D1B"/>
<circle cx="12.5956" cy="115.949" r="7.48061" transform="rotate(90 12.5956 115.949)" fill="#1D1D1B"/>
<circle cx="7.48033" cy="141.541" r="7.48061" transform="rotate(90 7.48033 141.541)" fill="#1D1D1B"/>
<circle cx="7.48033" cy="164.856" r="7.48061" transform="rotate(90 7.48033 164.856)" fill="#1D1D1B"/>
<circle cx="7.48033" cy="188.172" r="7.48061" transform="rotate(90 7.48033 188.172)" fill="#1D1D1B"/>
<circle cx="13.3085" cy="211.486" r="7.48061" transform="rotate(90 13.3085 211.486)" fill="#1D1D1B"/>
<circle cx="19.1385" cy="234.801" r="7.48061" transform="rotate(90 19.1385 234.801)" fill="#1D1D1B"/>
<circle cx="170.685" cy="159.027" r="7.48061" transform="rotate(90 170.685 159.027)" fill="#1D1D1B"/>
<circle cx="176.514" cy="182.342" r="7.48061" transform="rotate(90 176.514 182.342)" fill="#1D1D1B"/>
<circle cx="176.514" cy="205.656" r="7.48061" transform="rotate(90 176.514 205.656)" fill="#1D1D1B"/>
<circle cx="170.685" cy="228.971" r="7.48061" transform="rotate(90 170.685 228.971)" fill="#1D1D1B"/>
<circle cx="159.027" cy="252.285" r="7.48061" transform="rotate(90 159.027 252.285)" fill="#1D1D1B"/>
<circle cx="147.371" cy="275.602" r="7.48061" transform="rotate(90 147.371 275.602)" fill="#1D1D1B"/>
<circle cx="129.885" cy="293.09" r="7.48061" transform="rotate(90 129.885 293.09)" fill="#1D1D1B"/>
<circle cx="112.398" cy="310.574" r="7.48061" transform="rotate(90 112.398 310.574)" fill="#1D1D1B"/>
<circle cx="94.912" cy="328.061" r="7.48061" transform="rotate(90 94.912 328.061)" fill="#1D1D1B"/>
<circle cx="77.4256" cy="351.375" r="7.48061" transform="rotate(90 77.4256 351.375)" fill="#1D1D1B"/>
<circle cx="61.2186" cy="370.289" r="7.48061" transform="rotate(90 61.2186 370.289)" fill="#1D1D1B"/>
<circle cx="44.3885" cy="388.992" r="7.48061" transform="rotate(90 44.3885 388.992)" fill="#1D1D1B"/>
<circle cx="33.1678" cy="407.694" r="7.48061" transform="rotate(90 33.1678 407.694)" fill="#1D1D1B"/>
<circle cx="23.8163" cy="428.266" r="7.48061" transform="rotate(90 23.8163 428.266)" fill="#1D1D1B"/>
<circle cx="20.076" cy="446.967" r="7.48061" transform="rotate(90 20.076 446.967)" fill="#1D1D1B"/>
<circle cx="20.076" cy="467.537" r="7.48061" transform="rotate(90 20.076 467.537)" fill="#1D1D1B"/>
<circle cx="180.908" cy="439.486" r="7.48061" transform="rotate(90 180.908 439.486)" fill="#1D1D1B"/>
<circle cx="186.519" cy="467.537" r="7.48061" transform="rotate(90 186.519 467.537)" fill="#1D1D1B"/>
<circle cx="169.687" cy="413.303" r="7.48061" transform="rotate(90 169.687 413.303)" fill="#1D1D1B"/>
<circle cx="158.467" cy="388.992" r="7.48061" transform="rotate(90 158.467 388.992)" fill="#1D1D1B"/>
<circle cx="145.937" cy="368.863" r="7.48061" transform="rotate(90 145.937 368.863)" fill="#1D1D1B"/>
</svg>
