<svg width="132" height="99" viewBox="0 0 132 99" fill="none" xmlns="http://www.w3.org/2000/svg">
<path d="M131 49.5C131 62.7837 123.823 74.8861 112.069 83.7018C100.315 92.5177 84.0299 98 66 98C47.9701 98 31.6855 92.5177 19.931 83.7018C8.17673 74.8861 1 62.7837 1 49.5C1 36.2163 8.17673 24.1139 19.931 15.2982C31.6855 6.48231 47.9701 1 66 1C84.0299 1 100.315 6.48231 112.069 15.2982C123.823 24.1139 131 36.2163 131 49.5Z" stroke="#1D1D1B" stroke-width="2"/>
<path d="M87 49.5C87 49.5 77.3741 57 65.5 57C53.6259 57 44 49.5 44 49.5C44 49.5 53.6259 42 65.5 42C77.3741 42 87 49.5 87 49.5Z" stroke="#1D1D1B" stroke-width="1.5"/>
<path d="M48 52C46.5 51.3333 39.6 47.9 36 41.5" stroke="#1D1D1B" stroke-width="1.5" stroke-linecap="round"/>
<path d="M83 52C84.5 51.3333 91.4 47.9 95 41.5" stroke="#1D1D1B" stroke-width="1.5" stroke-linecap="round"/>
</svg>
