<svg width="132" height="99" viewBox="0 0 132 99" fill="none" xmlns="http://www.w3.org/2000/svg">
<path d="M131 49.5C131 62.7837 123.823 74.8861 112.069 83.7018C100.315 92.5177 84.0299 98 66 98C47.9701 98 31.6855 92.5177 19.931 83.7018C8.17673 74.8861 1 62.7837 1 49.5C1 36.2163 8.17673 24.1139 19.931 15.2982C31.6855 6.48231 47.9701 1 66 1C84.0299 1 100.315 6.48231 112.069 15.2982C123.823 24.1139 131 36.2163 131 49.5Z" stroke="#1D1D1B" stroke-width="2"/>
<path d="M127.25 42.5C127.25 53.917 120.5 64.3361 109.417 71.9334C98.3369 79.5283 82.9891 84.25 66 84.25C49.0109 84.25 33.6631 79.5283 22.5834 71.9334C11.5003 64.3361 4.75 53.917 4.75 42.5C4.75 31.083 11.5003 20.6639 22.5834 13.0666C33.6631 5.47166 49.0109 0.75 66 0.75C82.9891 0.75 98.3369 5.47166 109.417 13.0666C120.5 20.6639 127.25 31.083 127.25 42.5Z" stroke="#1D1D1B" stroke-width="1.5"/>
<path d="M115.25 37C115.25 45.7804 109.857 53.8246 100.942 59.7086C92.033 65.5887 79.6812 69.25 66 69.25C52.3188 69.25 39.967 65.5887 31.0578 59.7086C22.1426 53.8246 16.75 45.7804 16.75 37C16.75 28.2196 22.1426 20.1754 31.0578 14.2914C39.967 8.41135 52.3188 4.75 66 4.75C79.6812 4.75 92.033 8.41135 100.942 14.2914C109.857 20.1754 115.25 28.2196 115.25 37Z" stroke="#1D1D1B" stroke-width="1.5"/>
<path d="M95.25 38.5C95.25 43.2457 92.0753 47.6663 86.6778 50.9402C81.294 54.2058 73.8083 56.25 65.5 56.25C57.1917 56.25 49.706 54.2058 44.3222 50.9402C38.9247 47.6663 35.75 43.2457 35.75 38.5C35.75 33.7543 38.9247 29.3337 44.3222 26.0598C49.706 22.7942 57.1917 20.75 65.5 20.75C73.8083 20.75 81.294 22.7942 86.6778 26.0598C92.0753 29.3337 95.25 33.7543 95.25 38.5Z" stroke="#1D1D1B" stroke-width="1.5"/>
<path d="M87.6794 49.1152C87.5055 49.2479 87.3037 49.3973 87.0742 49.56C86.1131 50.241 84.6658 51.1558 82.7401 52.0729C78.8906 53.9059 73.1252 55.75 65.5 55.75C57.3679 55.75 51.4776 53.9027 47.635 52.0729C45.7122 51.1572 44.2991 50.2446 43.3726 49.5666C43.1602 49.4112 42.9734 49.2682 42.8119 49.1402C43.1134 48.9818 43.483 48.7918 43.9136 48.5781C45.2198 47.9298 47.0855 47.0646 49.3182 46.1993C53.7951 44.4644 59.6958 42.75 65.5 42.75C71.3024 42.75 77.0766 44.4635 81.4251 46.1967C83.5941 47.0612 85.3963 47.9257 86.6548 48.5732C87.0528 48.778 87.3962 48.9609 87.6794 49.1152Z" stroke="#1D1D1B" stroke-width="1.5"/>
<path d="M39 46C41.9444 39.5 54.7963 34 66.5278 34C78.2593 34 90.5278 39 92 46" stroke="#1D1D1B" stroke-width="1.5"/>
<path d="M84 46.5C88.5 47.5 90 47.2 92 46L87.3363 49.8865C87.1108 50.3372 86.5554 50.6914 86 51L87.3363 49.8865C87.7197 49.1199 87.1486 48.0743 84 46.5Z" fill="#1D1D1B"/>
<path d="M47 46.5C42.5 47.5 41 47.2 39 46L43.6637 49.8865C43.8892 50.3372 44.4446 50.6914 45 51L43.6637 49.8865C43.2803 49.1199 43.8514 48.0743 47 46.5Z" fill="#1D1D1B"/>
</svg>
