<svg width="413" height="258" viewBox="0 0 413 258" fill="none" xmlns="http://www.w3.org/2000/svg">
<path fill-rule="evenodd" clip-rule="evenodd" d="M289.242 19.2672C294.105 19.1155 297.924 15.0505 297.773 10.1877C297.621 5.32489 293.556 1.50578 288.693 1.65747C283.83 1.80916 280.011 5.87421 280.163 10.737C280.314 15.5998 284.379 19.4189 289.242 19.2672ZM289.27 20.1477C294.619 19.9809 298.82 15.5093 298.653 10.1602C298.486 4.81115 294.015 0.610125 288.666 0.776981C283.316 0.943839 279.115 5.41539 279.282 10.7645C279.449 16.1136 283.921 20.3146 289.27 20.1477ZM40.5469 100.24C9.53926 130.296 -5.14691 163.245 3.52791 192.001C10.3475 214.608 30.6224 231.388 59.6269 241.371C88.6259 251.352 126.286 254.513 167.726 249.919L167.823 250.795C126.293 255.398 88.4946 252.239 59.3402 242.204C30.1913 232.171 9.6174 215.238 2.68453 192.256C-6.13421 163.022 8.84211 129.745 39.9338 99.607C71.0437 69.4516 118.378 42.3394 174.558 25.3918C210.289 14.613 245.309 9.2397 277.025 8.79246L277.038 9.67328C245.409 10.1193 210.471 15.4784 174.812 26.2352C118.739 43.1506 71.5365 70.2007 40.5469 100.24ZM372.167 28.4801C353.384 18.4429 328.881 12.2421 300.817 10.3012L300.878 9.42233C329.026 11.3691 353.659 17.5912 372.582 27.7031C391.508 37.8163 404.745 51.8347 410.036 69.3723C418.855 98.6059 403.878 131.883 372.787 162.021C341.677 192.176 294.343 219.289 238.162 236.236C223.164 240.761 208.291 244.333 193.735 246.988L193.577 246.121C208.1 243.472 222.941 239.908 237.908 235.393C293.982 218.477 341.184 191.427 372.173 161.388C403.181 131.332 417.867 98.3832 409.192 69.6267C403.987 52.3725 390.948 38.5159 372.167 28.4801ZM188.853 248.022C189.004 252.884 185.185 256.95 180.322 257.101C175.46 257.253 171.395 253.434 171.243 248.571C171.091 243.708 174.91 239.643 179.773 239.491C184.636 239.34 188.701 243.159 188.853 248.022ZM189.733 247.994C189.9 253.343 185.699 257.815 180.35 257.982C175.001 258.149 170.529 253.948 170.362 248.598C170.195 243.249 174.397 238.778 179.746 238.611C185.095 238.444 189.566 242.645 189.733 247.994Z" fill="#1D1D1B"/>
</svg>
